<svg xmlns="http://www.w3.org/2000/svg" xmlns:xlink="http://www.w3.org/1999/xlink" width="186.259" height="109.334" viewBox="0 0 186.259 109.334"><defs><style>.a,.b{fill:#f9d626;}.a{opacity:0.4;}.b{opacity:0.2;}.c{fill:url(#a);}.d{fill:#f99d65;}.e{fill:#fff;}.f{fill:#f9bc26;}.g{fill:#ffbd67;}.h{fill:#ffd263;}.i{fill:url(#b);}</style><linearGradient id="a" x1="0.5" x2="0.5" y2="1" gradientUnits="objectBoundingBox"><stop offset="0" stop-color="#ffc868"/><stop offset="1" stop-color="#ff7c66"/></linearGradient><linearGradient id="b" x1="0.5" x2="0.5" y2="1" gradientUnits="objectBoundingBox"><stop offset="0" stop-color="#fbe7b9"/><stop offset="1" stop-color="#ffb467"/></linearGradient></defs><g transform="translate(-1118.064 -1085)"><circle class="a" cx="5" cy="5" r="5" transform="translate(1126.725 1149.685) rotate(60)"/><circle class="b" cx="5" cy="5" r="5" transform="translate(1299.323 1107.685) rotate(60)"/><path class="c" d="M45.5-2.883c2.358,0,9.384,4.149,12.008,4.464,24.1,2.885,42.957,20.564,42.957,42.526,0,24,11.859,43.476-48.715,43.555S0,68.109,0,44.107C0,24.113,13.081,8.266,34.663,3.12,38.588,2.183,40.868-2.883,45.5-2.883Z" transform="translate(1162.446 1098.67)"/><g transform="translate(-0.188 3.685)"><path class="d" d="M1.019,0H12.411A16.448,16.448,0,0,1,11.39,9c-1.962,4.43-6.828,8.723-6.828,8.723H3.527A23.114,23.114,0,0,1,.154,9.253,24.591,24.591,0,0,1,1.019,0Z" transform="translate(1193.195 1090.25) rotate(-45)"/><path class="e" d="M2.573,2a20.805,20.805,0,0,0-.439,6.972,19.489,19.489,0,0,0,2.205,6.2A26.131,26.131,0,0,0,9.561,8.188,13.989,13.989,0,0,0,10.617,2H2.573M1.019,0H12.411A16.448,16.448,0,0,1,11.39,9c-1.962,4.43-6.828,8.723-6.828,8.723H3.527A23.113,23.113,0,0,1,.154,9.253,24.591,24.591,0,0,1,1.019,0Z" transform="translate(1193.195 1090.25) rotate(-45)"/><path class="d" d="M1.085,17.721H12.478a16.448,16.448,0,0,0-1.021-9C9.494,4.293,4.628,0,4.628,0H3.593A24.277,24.277,0,0,0,.148,8.654,22.656,22.656,0,0,0,1.085,17.721Z" transform="translate(1210.557 1102.828) rotate(-135)"/><path class="e" d="M2.609,15.721h8.073A14.023,14.023,0,0,0,9.628,9.533,26.207,26.207,0,0,0,4.411,2.555,20.3,20.3,0,0,0,2.129,8.934a19.3,19.3,0,0,0,.48,6.788m-1.524,2A22.656,22.656,0,0,1,.148,8.654,24.277,24.277,0,0,1,3.593,0H4.628s4.866,4.293,6.828,8.723a16.448,16.448,0,0,1,1.021,9Z" transform="translate(1210.557 1102.828) rotate(-135)"/></g><g transform="translate(-0.188 3.685)"><circle class="e" cx="3" cy="3" r="3" transform="translate(1179 1140)"/><circle class="e" cx="3" cy="3" r="3" transform="translate(1189 1140)"/><circle class="e" cx="3" cy="3" r="3" transform="translate(1199 1140)"/></g><path class="f" d="M2.226,3V24.691H4.15A51.419,51.419,0,0,0,6.783,13.755,50.932,50.932,0,0,0,6.615,3H2.226m-3-3h10a56.682,56.682,0,0,1,.54,14.079,56.365,56.365,0,0,1-3.54,13.612h-7Z" transform="translate(1269.531 1112.915)"/><rect class="g" width="8" height="20" transform="translate(1241.979 1160.685)"/><path class="g" d="M4,0H24a4,4,0,0,1,4,4V6a0,0,0,0,1,0,0H0A0,0,0,0,1,0,6V4A4,4,0,0,1,4,0Z" transform="translate(1231.813 1178.915)"/><path class="h" d="M2.61,3a50.927,50.927,0,0,0-.168,10.755A51.421,51.421,0,0,0,5.076,24.691H7V3H2.61M0,0H10V27.691H3A56.365,56.365,0,0,1-.54,14.079,56.682,56.682,0,0,1,0,0Z" transform="translate(1213.199 1112.915)"/><path class="i" d="M2,0H52a2,2,0,0,1,2,2s2.129,8.986,0,25.357S34,52,34,52c-.574,1.223-.9,2-2,2H21c-1.1,0-1.5-1.023-2-2,0,0-15.885-7.1-19-23.888S0,2,0,2A2,2,0,0,1,2,0Z" transform="translate(1219.197 1106.685)"/><path class="e" d="M12,0l4.2,6.59L24,8.4,18.8,14.29,19.416,22,12,19.048,4.584,22,5.2,14.29,0,8.4,7.8,6.59Z" transform="translate(1233.813 1117.594)"/><circle class="b" cx="19.5" cy="19.5" r="19.5" transform="translate(1165.5 1141.059) rotate(60)"/></g></svg>