<svg xmlns="http://www.w3.org/2000/svg" width="486" height="495" viewBox="0 0 486 495"><defs><style>.a{fill:#1d65d4;}.b,.d,.e,.g,.i{fill:#fff;}.b{font-size:18px;font-family:JiangChengYuanTi-500W, JiangChengYuanTi;font-weight:500;}.c{fill:#fbb81d;}.d{stroke:#fbb81d;}.f{fill:#3b93f8;}.g{stroke:#226cdc;}.h{fill:#ff733e;}.i{stroke:#ff733e;}.j{stroke:none;}.k{fill:none;}</style></defs><g transform="translate(-717 -1486)"><circle class="a" cx="48" cy="48" r="48" transform="translate(912 1885)"/><text class="b" transform="translate(924 1941)"><tspan x="0" y="0">普通人员</tspan></text><g transform="translate(0 141)"><rect class="c" width="164" height="84" rx="15" transform="translate(717 1345)"/><text class="b" transform="translate(763 1395)"><tspan x="0" y="0">技术专家</tspan></text></g><g transform="translate(0 141)"><rect class="c" width="164" height="84" rx="15" transform="translate(717 1449)"/><text class="b" transform="translate(763 1499)"><tspan x="0" y="0">技术精英</tspan></text></g><g transform="translate(0 141)"><rect class="c" width="164" height="84" rx="15" transform="translate(717 1553)"/><text class="b" transform="translate(763 1603)"><tspan x="0" y="0">高级技术</tspan></text></g><rect class="c" width="4" height="20" transform="translate(797 1674)"/><g class="d" transform="translate(795 1670)"><circle class="j" cx="4" cy="4" r="4"/><circle class="k" cx="4" cy="4" r="3.5"/></g><rect class="c" width="4" height="20" transform="translate(797 1571)"/><g class="d" transform="translate(795 1567)"><circle class="j" cx="4" cy="4" r="4"/><circle class="k" cx="4" cy="4" r="3.5"/></g><path class="c" d="M-11786.5,134h-91.5a29.809,29.809,0,0,1-11.677-2.358,29.922,29.922,0,0,1-9.538-6.427,29.977,29.977,0,0,1-6.431-9.538A29.806,29.806,0,0,1-11908,104V66c0-.209,0-.363,0-.5h4c0,.189,0,.352,0,.5v38a25.809,25.809,0,0,0,2.04,10.116,25.884,25.884,0,0,0,5.574,8.267,25.98,25.98,0,0,0,8.267,5.573A25.839,25.839,0,0,0-11878,130h91.5v4Z" transform="translate(12707.002 1699)"/><circle class="e" cx="4" cy="4" r="4" transform="translate(797 1775)"/><path class="c" d="M4,1A3,3,0,1,0,7,4,3,3,0,0,0,4,1M4,0A4,4,0,1,1,0,4,4,4,0,0,1,4,0Z" transform="translate(797 1775)"/><g transform="translate(0 141)"><rect class="f" width="164" height="84" rx="15" transform="translate(1039 1345)"/><text class="b" transform="translate(1085 1395)"><tspan x="0" y="0">高层管理</tspan></text></g><g transform="translate(0 141)"><rect class="f" width="164" height="84" rx="15" transform="translate(1039 1449)"/><text class="b" transform="translate(1085 1499)"><tspan x="0" y="0">中层管理</tspan></text></g><g transform="translate(0 141)"><rect class="f" width="164" height="84" rx="15" transform="translate(1038 1553)"/><text class="b" transform="translate(1084 1603)"><tspan x="0" y="0">基层管理</tspan></text></g><rect class="f" width="4" height="20" transform="translate(1119 1674)"/><g class="g" transform="translate(1117 1670)"><circle class="j" cx="4" cy="4" r="4"/><circle class="k" cx="4" cy="4" r="3.5"/></g><rect class="f" width="4" height="20" transform="translate(1119 1570)"/><g class="g" transform="translate(1117 1565)"><circle class="j" cx="4" cy="4" r="4"/><circle class="k" cx="4" cy="4" r="3.5"/></g><path class="f" d="M121.5,0H30A29.975,29.975,0,0,0,0,30V68c0,.209,0,.363,0,.5h4c0-.189,0-.352,0-.5V30A25.972,25.972,0,0,1,30,4h91.5V0Z" transform="translate(1121.502 1833) rotate(180)"/><g class="g" transform="translate(1115.502 1775)"><ellipse class="j" cx="4" cy="4" rx="4" ry="4"/><ellipse class="k" cx="4" cy="4" rx="3.5" ry="3.5"/></g><circle class="h" cx="48" cy="48" r="48" transform="translate(912 1769)"/><text class="b" transform="translate(924 1825)"><tspan x="0" y="0">核心人员</tspan></text><path class="h" d="M2,21H-2V0H2Z" transform="translate(960.5 1864.5)"/><g class="i" transform="translate(956 1863)"><circle class="j" cx="4" cy="4" r="4"/><circle class="k" cx="4" cy="4" r="3.5"/></g></g></svg>