<svg xmlns="http://www.w3.org/2000/svg" xmlns:xlink="http://www.w3.org/1999/xlink" width="207.993" height="99.5" viewBox="0 0 207.993 99.5"><defs><style>.a,.c{fill:#fff3a8;}.b,.d{fill:#fecb40;font-size:32px;font-family:NotoSansSC-Regular, Noto Sans SC;}.b{opacity:0.6;}.e{fill:url(#a);}.f{fill:#f6b32a;}.g{fill:#ffc03e;}.h,.i{fill:#fdd04a;}.h{opacity:0.2;}.i,.j{opacity:0.4;}.k{fill:#ff7c65;}.l,.m{stroke:none;}.m{fill:#fff;}</style><linearGradient id="a" x1="0.5" y1="0.818" x2="0.924" y2="0.276" gradientUnits="objectBoundingBox"><stop offset="0" stop-color="#fecb40"/><stop offset="1" stop-color="#ffeb6b"/></linearGradient></defs><g transform="translate(-609.007 -1086)"><g transform="translate(-2 -0.5)"><path class="a" d="M2,0H38a2,2,0,0,1,2,2V66a2,2,0,0,1-2,2H2a2,2,0,0,1-2-2V2A2,2,0,0,1,2,0Z" transform="matrix(-0.966, -0.259, 0.259, -0.966, 742.5, 1162.536)"/><text class="b" transform="matrix(-0.966, -0.259, -0.259, 0.966, 736.673, 1134.057)"><tspan x="0" y="0">¥</tspan></text></g><g transform="translate(2 -0.5)"><rect class="a" width="40" height="68" rx="2" transform="matrix(0.966, -0.259, 0.259, 0.966, 641.999, 1096.853)"/><text class="b" transform="matrix(0.966, -0.259, 0.259, 0.966, 665.426, 1134.057)"><tspan x="0" y="0">¥</tspan></text></g><g class="c" transform="translate(678.049 1090.5)"><path class="l" d="M 42 67 L 2 67 C 1.448600053787231 67 1 66.55139923095703 1 66 L 1 2 C 1 1.448600053787231 1.448600053787231 1 2 1 L 42 1 C 42.55139923095703 1 43 1.448600053787231 43 2 L 43 66 C 43 66.55139923095703 42.55139923095703 67 42 67 Z"/><path class="m" d="M 2 2 L 2 66 L 42 66 L 42 2 L 2 2 M 2 0 L 42 0 C 43.10456848144531 0 44 0.8954315185546875 44 2 L 44 66 C 44 67.10456848144531 43.10456848144531 68 42 68 L 2 68 C 0.8954315185546875 68 0 67.10456848144531 0 66 L 0 2 C 0 0.8954315185546875 0.8954315185546875 0 2 0 Z"/></g><text class="d" transform="translate(691.049 1132.5)"><tspan x="0" y="0">¥</tspan></text><g transform="translate(0 -0.5)"><path class="e" d="M4,0,54.994,35.539,106,0a4,4,0,0,1,4,4V60a4,4,0,0,1-4,4H4a4,4,0,0,1-4-4V4A4,4,0,0,1,4,0Z" transform="translate(645.049 1122)"/><path class="f" d="M.812,42.755-.812,41.647,31.37-.645l1.573.923Z" transform="translate(646.549 1142.829)"/><path class="g" d="M31.943,42.594l1.074-1.264L.761-.645-.812.278Z" transform="translate(721.549 1142.645)"/></g><g transform="translate(0 -0.5)"><circle class="h" cx="19.5" cy="19.5" r="19.5" transform="translate(778 1096)"/><circle class="i" cx="5" cy="5" r="5" transform="translate(773 1137)"/><g class="j" transform="translate(27.286 -8.279)"><rect class="k" width="14" height="4" transform="matrix(0.966, 0.259, -0.259, 0.966, 582.756, 1156.256)"/><rect class="k" width="14" height="4" transform="matrix(-0.259, 0.966, -0.966, -0.259, 592.743, 1153.756)"/></g></g></g></svg>