<svg xmlns="http://www.w3.org/2000/svg" xmlns:xlink="http://www.w3.org/1999/xlink" width="151.696" height="92" viewBox="0 0 151.696 92"><defs><style>.a{fill:url(#a);}.b{fill:url(#b);}.c{fill:url(#c);}.d{fill:url(#d);}.e{fill:url(#e);}.f{fill:url(#f);}.g{fill:url(#g);}.h{fill:#a89eec;}.i{fill:url(#h);}.j{fill:#9ea8ec;}.k{fill:url(#i);}.l{fill:#fff;}.m{opacity:0.7;}.n{opacity:0.4;}.o{fill:#b4d1ff;}</style><linearGradient id="a" x1="0.5" x2="0.5" y2="1" gradientUnits="objectBoundingBox"><stop offset="0" stop-color="#fff"/><stop offset="1" stop-color="#9ea8ec"/></linearGradient><linearGradient id="b" x1="0.5" x2="0.5" y2="1" gradientUnits="objectBoundingBox"><stop offset="0" stop-color="#fefeff"/><stop offset="1" stop-color="#b5bef3"/></linearGradient><linearGradient id="c" x1="0.5" x2="0.5" y2="1" gradientUnits="objectBoundingBox"><stop offset="0" stop-color="#fbfcff"/><stop offset="1" stop-color="#a7bdfb"/></linearGradient><linearGradient id="d" x1="0.5" x2="0.5" y2="1" gradientUnits="objectBoundingBox"><stop offset="0" stop-color="#fff"/><stop offset="1" stop-color="#a7c8fb"/></linearGradient><linearGradient id="e" x1="0.5" x2="0.5" y2="1" gradientUnits="objectBoundingBox"><stop offset="0" stop-color="#fefeff"/><stop offset="1" stop-color="#a7c8fb"/></linearGradient><linearGradient id="f" x1="0.5" x2="0.5" y2="1" gradientUnits="objectBoundingBox"><stop offset="0" stop-color="#f1f9ff"/><stop offset="1" stop-color="#a7d9fb"/></linearGradient><linearGradient id="g" x1="0.5" x2="0.5" y2="1" gradientUnits="objectBoundingBox"><stop offset="0" stop-color="#ecf6ff"/><stop offset="1" stop-color="#a7d9fb"/></linearGradient><linearGradient id="h" x1="0.793" y1="0.5" x2="0.066" y2="0.5" gradientUnits="objectBoundingBox"><stop offset="0" stop-color="#9ea8ec"/><stop offset="1" stop-color="#e9ecff"/></linearGradient><linearGradient id="i" x1="0.205" y1="0.409" x2="1" y2="0.394" gradientUnits="objectBoundingBox"><stop offset="0" stop-color="#afbaff"/><stop offset="1" stop-color="#b5ddff"/></linearGradient></defs><g transform="translate(-1135.304 -1394)"><path class="a" d="M4,0H4A4,4,0,0,1,8,4V68a0,0,0,0,1,0,0H0a0,0,0,0,1,0,0V4A4,4,0,0,1,4,0Z" transform="translate(1161.291 1416)"/><path class="b" d="M4,0H4A4,4,0,0,1,8,4V51a0,0,0,0,1,0,0H0a0,0,0,0,1,0,0V4A4,4,0,0,1,4,0Z" transform="translate(1173.291 1433)"/><path class="c" d="M4,0H4A4,4,0,0,1,8,4V40a0,0,0,0,1,0,0H0a0,0,0,0,1,0,0V4A4,4,0,0,1,4,0Z" transform="translate(1185.291 1444)"/><path class="d" d="M4,0H4A4,4,0,0,1,8,4V81a0,0,0,0,1,0,0H0a0,0,0,0,1,0,0V4A4,4,0,0,1,4,0Z" transform="translate(1197.291 1403)"/><path class="e" d="M4,0H4A4,4,0,0,1,8,4V62a0,0,0,0,1,0,0H0a0,0,0,0,1,0,0V4A4,4,0,0,1,4,0Z" transform="translate(1209.291 1422)"/><path class="f" d="M4,0H4A4,4,0,0,1,8,4V51a0,0,0,0,1,0,0H0a0,0,0,0,1,0,0V4A4,4,0,0,1,4,0Z" transform="translate(1221.291 1433)"/><path class="g" d="M4,0H4A4,4,0,0,1,8,4V90a0,0,0,0,1,0,0H0a0,0,0,0,1,0,0V4A4,4,0,0,1,4,0Z" transform="translate(1233.291 1394)"/><rect class="h" width="70" height="4" transform="translate(1161.291 1482)"/><path class="i" d="M29.351,10.627A43.284,43.284,0,0,1,16.629,8.552,66.272,66.272,0,0,1,4.554,3.365,54.068,54.068,0,0,1-.29.408L.29-.408A65.678,65.678,0,0,0,16.948,7.6c12.528,3.862,22.829,2.263,30.615-4.755A33.33,33.33,0,0,1,63.54-5.045a48.566,48.566,0,0,1,16.149-.3A69.623,69.623,0,0,1,92.177-2.395,52.28,52.28,0,0,1,97.212-.453l-.424.906A66.862,66.862,0,0,0,79.527-4.362c-8.906-1.212-21.564-.816-31.294,7.954a26.911,26.911,0,0,1-15.841,6.9Q30.9,10.627,29.351,10.627Z" transform="translate(1161.291 1421.375)"/><circle class="j" cx="2" cy="2" r="2" transform="translate(1256.291 1419)"/><circle class="j" cx="2" cy="2" r="2" transform="translate(1224.291 1415)"/><circle class="j" cx="2" cy="2" r="2" transform="translate(1186.291 1430)"/><rect class="k" width="64" height="44" rx="2" transform="translate(1216.291 1442)"/><path class="l" d="M-9917,26h0l-28.8-22.5h3.248L-9917,23.462-9891.451,3.5h3.248L-9917,26Z" transform="translate(11165.291 1438.499)"/><circle class="l" cx="2" cy="2" r="2" transform="translate(1246.291 1452)"/><g class="m" transform="translate(-157.421 1394.032) rotate(-60)"><rect class="h" width="14" height="4" transform="translate(582.756 1156.257) rotate(15)"/><rect class="h" width="14" height="4" transform="translate(592.743 1153.756) rotate(105)"/><g transform="translate(0 0)"><rect class="h" width="14" height="4" transform="translate(582.756 1156.257) rotate(15)"/><rect class="h" width="14" height="4" transform="translate(592.743 1153.756) rotate(105)"/></g></g><g class="n" transform="matrix(-0.259, -0.966, 0.966, -0.259, 311.971, 2282.16)"><rect class="o" width="14" height="4" transform="translate(582.756 1156.257) rotate(15)"/><rect class="o" width="14" height="4" transform="translate(592.743 1153.756) rotate(105)"/><g transform="translate(0 0)"><rect class="o" width="14" height="4" transform="translate(582.756 1156.257) rotate(15)"/><rect class="o" width="14" height="4" transform="translate(592.743 1153.756) rotate(105)"/></g></g></g></svg>