<svg xmlns="http://www.w3.org/2000/svg" xmlns:xlink="http://www.w3.org/1999/xlink" width="164" height="164" viewBox="0 0 164 164"><defs><style>.a{fill:#fff;}.b{opacity:0.7;}.c{fill:#53e8ca;}.d{filter:url(#a);}</style><filter id="a" x="0" y="0" width="164" height="164" filterUnits="userSpaceOnUse"><feOffset dy="3" input="SourceAlpha"/><feGaussianBlur stdDeviation="10" result="b"/><feFlood flood-opacity="0.051"/><feComposite operator="in" in2="b"/><feComposite in="SourceGraphic"/></filter></defs><g transform="translate(-1321 -222.745)"><g class="d" transform="matrix(1, 0, 0, 1, 1321, 222.75)"><circle class="a" cx="52" cy="52" r="52" transform="translate(30 27)"/></g><g class="b" transform="translate(1382.988 284.582)"><path class="c" d="M211,240h6.984v2.328H211Zm0,0" transform="translate(-194.627 -221.377)"/><path class="c" d="M32.233,92.355H25.685v1.164a1.163,1.163,0,0,1-1.164,1.164H15.209a1.163,1.163,0,0,1-1.164-1.164V92.355H7.5a3.488,3.488,0,0,1-3.312-2.387L0,77.41v25.42a3.5,3.5,0,0,0,3.492,3.492H36.238a3.5,3.5,0,0,0,3.492-3.492V77.411L35.545,89.968a3.487,3.487,0,0,1-3.312,2.387Zm0,0" transform="translate(0 -71.403)"/><path class="c" d="M48.327,0H39.015a3.5,3.5,0,0,0-3.492,3.492V4.656H25.809L30.2,17.828a1.164,1.164,0,0,0,1.1.8h6.548V17.459A1.163,1.163,0,0,1,39.015,16.3h9.312a1.163,1.163,0,0,1,1.164,1.164v1.164h6.548a1.164,1.164,0,0,0,1.1-.8l4.39-13.172H51.819V3.492A3.5,3.5,0,0,0,48.327,0ZM37.851,4.656V3.492a1.165,1.165,0,0,1,1.164-1.164h9.312a1.165,1.165,0,0,1,1.164,1.164V4.656Zm0,0" transform="translate(-23.806)"/></g></g></svg>