<svg xmlns="http://www.w3.org/2000/svg" xmlns:xlink="http://www.w3.org/1999/xlink" width="156" height="156" viewBox="0 0 156 156"><defs><style>.a{fill:#fff;}.b{fill:#fbb81d;opacity:0.8;}.c{filter:url(#a);}</style><filter id="a" x="0" y="0" width="156" height="156" filterUnits="userSpaceOnUse"><feOffset dy="3" input="SourceAlpha"/><feGaussianBlur stdDeviation="10" result="b"/><feFlood flood-opacity="0.051"/><feComposite operator="in" in2="b"/><feComposite in="SourceGraphic"/></filter></defs><g transform="translate(-268 -516)"><g class="c" transform="matrix(1, 0, 0, 1, 268, 516)"><circle class="a" cx="48" cy="48" r="48" transform="translate(30 27)"/></g><path class="b" d="M87.806,23.87A15.59,15.59,0,0,0,89.9,17.007a9.582,9.582,0,0,0-1.011-4.761c-1.187-2.431-3.225-3.8-5.195-5.117a14.686,14.686,0,0,1-3.84-3.243l-.176-.237a6.392,6.392,0,0,1-1.34-2.405A1.46,1.46,0,0,0,76.8,0,1.44,1.44,0,0,0,75.462,1.44V27.168a8.353,8.353,0,0,0-4.331-1.184c-3.979,0-7.219,2.59-7.219,5.775s3.24,5.775,7.219,5.775,7.219-2.59,7.219-5.775V14.931A10.393,10.393,0,0,1,85.043,22.8a8.144,8.144,0,0,1-.557.788,1.442,1.442,0,1,0,2.166,1.906A10.735,10.735,0,0,0,87.711,24,.909.909,0,0,0,87.806,23.87Z" transform="translate(269.088 572)"/></g></svg>