<svg xmlns="http://www.w3.org/2000/svg" xmlns:xlink="http://www.w3.org/1999/xlink" width="815" height="858" viewBox="0 0 815 858"><defs><style>.a{fill:#65a3ff;}.b,.d,.g,.k,.m,.n{fill:#fff;}.b{font-size:32px;}.b,.d,.g,.k,.m{font-family:JiangChengYuanTi-500W, JiangChengYuanTi;font-weight:500;}.c{fill:#4adfb6;}.d{font-size:30px;}.e{fill:#b5b2ff;}.f{fill:#bdc8e3;}.g{font-size:24px;}.h{fill:#8fd8ff;}.i,.p{fill:#fbb81d;}.j{fill:#ffab94;}.k{font-size:20px;}.l{fill:#53e8ca;}.m{font-size:26px;}.o{opacity:0.8;}.p{opacity:0.82;}.q{fill:#60c8ff;}.r{fill:#45dec0;opacity:0.4;}.s{fill:#e0bbdb;opacity:0.48;}.t{filter:url(#y);}.u{filter:url(#w);}.v{filter:url(#u);}.w{filter:url(#s);}.x{filter:url(#q);}.y{filter:url(#o);}.z{filter:url(#m);}.aa{filter:url(#k);}.ab{filter:url(#i);}.ac{filter:url(#g);}.ad{filter:url(#e);}.ae{filter:url(#c);}.af{filter:url(#a);}</style><filter id="a" x="253" y="280" width="321.785" height="321.785" filterUnits="userSpaceOnUse"><feOffset dy="8" input="SourceAlpha"/><feGaussianBlur stdDeviation="20" result="b"/><feFlood flood-color="#478ef9" flood-opacity="0.4"/><feComposite operator="in" in2="b"/><feComposite in="SourceGraphic"/></filter><filter id="c" x="81" y="412" width="290" height="290" filterUnits="userSpaceOnUse"><feOffset dy="8" input="SourceAlpha"/><feGaussianBlur stdDeviation="20" result="d"/><feFlood flood-color="#4adfb6" flood-opacity="0.4"/><feComposite operator="in" in2="d"/><feComposite in="SourceGraphic"/></filter><filter id="e" x="478" y="349" width="321" height="321" filterUnits="userSpaceOnUse"><feOffset dy="8" input="SourceAlpha"/><feGaussianBlur stdDeviation="20" result="f"/><feFlood flood-color="#c0beff" flood-opacity="0.4"/><feComposite operator="in" in2="f"/><feComposite in="SourceGraphic"/></filter><filter id="g" x="163" y="610" width="248" height="248" filterUnits="userSpaceOnUse"><feOffset dy="8" input="SourceAlpha"/><feGaussianBlur stdDeviation="20" result="h"/><feFlood flood-color="#bdc8e3" flood-opacity="0.4"/><feComposite operator="in" in2="h"/><feComposite in="SourceGraphic"/></filter><filter id="i" x="0" y="289" width="247.443" height="247.443" filterUnits="userSpaceOnUse"><feOffset dy="8" input="SourceAlpha"/><feGaussianBlur stdDeviation="20" result="j"/><feFlood flood-color="#8fd8ff" flood-opacity="0.4"/><feComposite operator="in" in2="j"/><feComposite in="SourceGraphic"/></filter><filter id="k" x="86" y="94" width="332" height="332" filterUnits="userSpaceOnUse"><feOffset dy="8" input="SourceAlpha"/><feGaussianBlur stdDeviation="20" result="l"/><feFlood flood-color="#fbb81d" flood-opacity="0.4"/><feComposite operator="in" in2="l"/><feComposite in="SourceGraphic"/></filter><filter id="m" x="267" y="0" width="232" height="232" filterUnits="userSpaceOnUse"><feOffset dy="8" input="SourceAlpha"/><feGaussianBlur stdDeviation="20" result="n"/><feFlood flood-color="#ffab94" flood-opacity="0.4"/><feComposite operator="in" in2="n"/><feComposite in="SourceGraphic"/></filter><filter id="o" x="456" y="568" width="280.366" height="280.366" filterUnits="userSpaceOnUse"><feOffset dy="8" input="SourceAlpha"/><feGaussianBlur stdDeviation="20" result="p"/><feFlood flood-color="#53e8ca" flood-opacity="0.4"/><feComposite operator="in" in2="p"/><feComposite in="SourceGraphic"/></filter><filter id="q" x="303" y="514" width="246" height="246" filterUnits="userSpaceOnUse"><feOffset dy="8" input="SourceAlpha"/><feGaussianBlur stdDeviation="20" result="r"/><feFlood flood-color="#fbb81d" flood-opacity="0.4"/><feComposite operator="in" in2="r"/><feComposite in="SourceGraphic"/></filter><filter id="s" x="567" y="200" width="248" height="248" filterUnits="userSpaceOnUse"><feOffset dy="8" input="SourceAlpha"/><feGaussianBlur stdDeviation="20" result="t"/><feFlood flood-color="#bdc8e3" flood-opacity="0.4"/><feComposite operator="in" in2="t"/><feComposite in="SourceGraphic"/></filter><filter id="u" x="580.5" y="54.5" width="185" height="185" filterUnits="userSpaceOnUse"><feOffset dy="3" input="SourceAlpha"/><feGaussianBlur stdDeviation="12.5" result="v"/><feFlood flood-opacity="0.078"/><feComposite operator="in" in2="v"/><feComposite in="SourceGraphic"/></filter><filter id="w" x="35.5" y="601.5" width="177" height="177" filterUnits="userSpaceOnUse"><feOffset dy="3" input="SourceAlpha"/><feGaussianBlur stdDeviation="12.5" result="x"/><feFlood flood-opacity="0.078"/><feComposite operator="in" in2="x"/><feComposite in="SourceGraphic"/></filter><filter id="y" x="363" y="88" width="308" height="308" filterUnits="userSpaceOnUse"><feOffset dy="8" input="SourceAlpha"/><feGaussianBlur stdDeviation="20" result="z"/><feFlood flood-color="#8fd8ff" flood-opacity="0.4"/><feComposite operator="in" in2="z"/><feComposite in="SourceGraphic"/></filter></defs><g transform="translate(29 -229)"><g transform="translate(283.715 561.278)"><g class="af" transform="matrix(1, 0, 0, 1, -312.71, -332.28)"><path class="a" d="M100.893,0A100.893,100.893,0,1,1,0,100.893,100.893,100.893,0,0,1,100.893,0Z" transform="translate(313 332)"/></g><text class="b" transform="translate(35.285 111.722)"><tspan x="0" y="0">全年15薪</tspan></text></g><g transform="translate(111.796 693.329)"><g class="ae" transform="matrix(1, 0, 0, 1, -140.8, -464.33)"><circle class="c" cx="85" cy="85" r="85" transform="translate(141 464)"/></g><text class="d" transform="translate(25.204 94.671)"><tspan x="0" y="0">年度旅游</tspan></text></g><g transform="translate(509.079 630.21)"><g class="ad" transform="matrix(1, 0, 0, 1, -538.08, -401.21)"><circle class="e" cx="100.5" cy="100.5" r="100.5" transform="translate(538 401)"/></g><text class="b" transform="translate(36.921 111.79)"><tspan x="0" y="0">七险一金</tspan></text></g><g transform="translate(193.848 890.621)"><g class="ac" transform="matrix(1, 0, 0, 1, -222.85, -661.62)"><circle class="f" cx="64" cy="64" r="64" transform="translate(223 662)"/></g><text class="g" transform="translate(16.152 72.379)"><tspan x="0" y="0">年度评优</tspan></text></g><g transform="translate(31 570.278)"><g class="ab" transform="matrix(1, 0, 0, 1, -60, -341.28)"><path class="h" d="M63.722,0A63.722,63.722,0,1,1,0,63.722,63.722,63.722,0,0,1,63.722,0Z" transform="translate(60 341)"/></g><text class="g" transform="translate(16 71.722)"><tspan x="0" y="0">节日礼金</tspan></text></g><g transform="translate(117.426 375.332)"><g class="aa" transform="matrix(1, 0, 0, 1, -146.43, -146.33)"><circle class="i" cx="106" cy="106" r="106" transform="translate(146 146)"/></g><text class="d" transform="translate(45.574 115.668)"><tspan x="0" y="0">绩效奖金</tspan></text></g><g transform="translate(297.601 281)"><g class="z" transform="matrix(1, 0, 0, 1, -326.6, -52)"><circle class="j" cx="56" cy="56" r="56" transform="translate(327 52)"/></g><text class="k" transform="translate(16.399 63)"><tspan x="0" y="0">活动丰富</tspan></text></g><g transform="translate(487.5 849)"><g class="y" transform="matrix(1, 0, 0, 1, -516.5, -620)"><path class="l" d="M80.183,0A80.183,80.183,0,1,1,0,80.183,80.183,80.183,0,0,1,80.183,0Z" transform="translate(516 620)"/></g><text class="m" transform="translate(28.5 89)"><tspan x="0" y="0">期权激励</tspan></text></g><g transform="translate(334.058 794.574)"><g class="x" transform="matrix(1, 0, 0, 1, -363.06, -565.57)"><circle class="i" cx="63" cy="63" r="63" transform="translate(363 566)"/></g><text class="k" transform="translate(22.942 70.426)"><tspan x="0" y="0">各种补贴</tspan></text></g><g transform="translate(598.084 480.781)"><g class="w" transform="matrix(1, 0, 0, 1, -627.08, -251.78)"><circle class="f" cx="64" cy="64" r="64" transform="translate(627 252)"/></g><text class="g" transform="translate(15.916 72.219)"><tspan x="0" y="0">弹性工作</tspan></text></g><g transform="translate(589.155 318.423)"><g class="v" transform="matrix(1, 0, 0, 1, -618.15, -89.42)"><circle class="n" cx="55" cy="55" r="55" transform="translate(618 89)"/></g><g class="o" transform="translate(33.846 35.577)"><path class="l" d="M211,240h7.417v2.472H211Zm0,0" transform="translate(-193.611 -220.221)"/><path class="l" d="M34.232,93.282H27.278v1.236a1.236,1.236,0,0,1-1.236,1.236H16.153a1.236,1.236,0,0,1-1.236-1.236V93.282H7.963a3.7,3.7,0,0,1-3.518-2.535L0,77.41v27a3.713,3.713,0,0,0,3.708,3.708H38.486a3.713,3.713,0,0,0,3.708-3.708v-27L37.749,90.747a3.7,3.7,0,0,1-3.518,2.535Zm0,0" transform="translate(0 -71.031)"/><path class="l" d="M49.724,0H39.835a3.713,3.713,0,0,0-3.708,3.708V4.945H25.809l4.662,13.989a1.236,1.236,0,0,0,1.173.845H38.6V18.542a1.236,1.236,0,0,1,1.236-1.236h9.889a1.236,1.236,0,0,1,1.236,1.236v1.236h6.954a1.236,1.236,0,0,0,1.173-.845L63.75,4.945H53.432V3.708A3.713,3.713,0,0,0,49.724,0ZM38.6,4.945V3.708a1.237,1.237,0,0,1,1.236-1.236h9.889A1.237,1.237,0,0,1,50.96,3.708V4.945Zm0,0" transform="translate(-23.682)"/></g></g><g transform="translate(44.047 864.574)"><g class="u" transform="matrix(1, 0, 0, 1, -73.05, -635.57)"><circle class="n" cx="51" cy="51" r="51" transform="translate(73 636)"/></g><path class="p" d="M89.288,25.351a16.557,16.557,0,0,0,2.22-7.289A10.177,10.177,0,0,0,90.435,13c-1.26-2.582-3.425-4.033-5.517-5.434A15.6,15.6,0,0,1,80.84,4.127l-.187-.251A6.788,6.788,0,0,1,79.23,1.321,1.55,1.55,0,0,0,77.6,0,1.529,1.529,0,0,0,76.178,1.53V28.853a8.871,8.871,0,0,0-4.6-1.257c-4.226,0-7.667,2.751-7.667,6.133s3.441,6.133,7.667,6.133,7.667-2.751,7.667-6.133V15.857a11.038,11.038,0,0,1,7.108,8.357,8.649,8.649,0,0,1-.592.837,1.532,1.532,0,1,0,2.3,2.024,11.4,11.4,0,0,0,1.125-1.582A.966.966,0,0,0,89.288,25.351Z" transform="translate(-26.664 31.022)"/></g><g transform="translate(394.466 368.959)"><g class="t" transform="matrix(1, 0, 0, 1, -423.47, -139.96)"><circle class="q" cx="94" cy="94" r="94" transform="translate(423 140)"/></g><text class="d" transform="translate(33.534 104.041)"><tspan x="0" y="0">带薪年假</tspan></text></g><ellipse class="r" cx="6.5" cy="6" rx="6.5" ry="6" transform="translate(82 386)"/><circle class="s" cx="6.5" cy="6.5" r="6.5" transform="translate(674 865)"/></g></svg>