<svg xmlns="http://www.w3.org/2000/svg" xmlns:xlink="http://www.w3.org/1999/xlink" width="1921" height="569" viewBox="0 0 1921 569"><defs><style>.a{fill:#fff;stroke:#707070;opacity:0.5;}.b{clip-path:url(#a);}.c{fill:url(#b);}.d{opacity:0.9;fill:url(#e);}.e{fill:url(#h);}.f{filter:url(#i);}.g{filter:url(#f);}.h{filter:url(#c);}</style><clipPath id="a"><rect class="a" width="1921" height="569" transform="translate(0 308)"/></clipPath><linearGradient id="b" x1="0.5" x2="0.5" y2="0.209" gradientUnits="objectBoundingBox"><stop offset="0" stop-color="#fff"/><stop offset="1" stop-color="#fff" stop-opacity="0"/></linearGradient><filter id="c" x="-52.5" y="-22.5" width="2026" height="1257" filterUnits="userSpaceOnUse"><feOffset dy="3" input="SourceAlpha"/><feGaussianBlur stdDeviation="17.5" result="d"/><feFlood flood-opacity="0.059"/><feComposite operator="in" in2="d"/><feComposite in="SourceGraphic"/></filter><linearGradient id="e" y2="0.295" xlink:href="#b"/><filter id="f" x="-30" y="109" width="1981" height="1212" filterUnits="userSpaceOnUse"><feOffset dy="3" input="SourceAlpha"/><feGaussianBlur stdDeviation="10" result="g"/><feFlood flood-opacity="0.059"/><feComposite operator="in" in2="g"/><feComposite in="SourceGraphic"/></filter><linearGradient id="h" y2="0.325" xlink:href="#b"/><filter id="i" x="-29" y="217" width="1980" height="1212" filterUnits="userSpaceOnUse"><feOffset dy="3" input="SourceAlpha"/><feGaussianBlur stdDeviation="10" result="j"/><feFlood flood-opacity="0.059"/><feComposite operator="in" in2="j"/><feComposite in="SourceGraphic"/></filter></defs><g class="b" transform="translate(0 -308)"><g class="h" transform="matrix(1, 0, 0, 1, 0, 308)"><ellipse class="c" cx="960.5" cy="576" rx="960.5" ry="576" transform="translate(0 27)"/></g><g class="g" transform="matrix(1, 0, 0, 1, 0, 308)"><ellipse class="d" cx="960.5" cy="576" rx="960.5" ry="576" transform="translate(0 136)"/></g><g class="f" transform="matrix(1, 0, 0, 1, 0, 308)"><ellipse class="e" cx="960" cy="576" rx="960" ry="576" transform="translate(1 244)"/></g></g></svg>