<svg xmlns="http://www.w3.org/2000/svg" width="80" height="81.451" viewBox="0 0 80 81.451"><defs><style>.a{fill:#145bc7;}.b{fill:#fff;}.c{fill:#ffb70e;}</style></defs><g transform="translate(-1341 -2180)"><path class="a" d="M7,4c-.193.068-.894.547-1.625,2.062A16.169,16.169,0,0,0,4,12.923,16.169,16.169,0,0,0,5.375,19.78C6.106,21.294,6.807,21.773,7,21.841c.193-.068.894-.547,1.625-2.062A16.169,16.169,0,0,0,10,12.923,16.169,16.169,0,0,0,8.625,6.067C7.894,4.552,7.193,4.073,7,4M7,0c3.866,0,7,5.786,7,12.923S10.866,25.846,7,25.846,0,20.06,0,12.923,3.134,0,7,0Z" transform="translate(1358.534 2190.217) rotate(-45)"/><path class="a" d="M7,4A4.224,4.224,0,0,0,5.375,6.066,16.168,16.168,0,0,0,4,12.923a16.168,16.168,0,0,0,1.375,6.856A4.224,4.224,0,0,0,7,21.84a4.224,4.224,0,0,0,1.625-2.061A16.168,16.168,0,0,0,10,12.923,16.168,16.168,0,0,0,8.625,6.066,4.224,4.224,0,0,0,7,4M7,0c3.866,0,7,5.786,7,12.923S10.866,25.845,7,25.845,0,20.06,0,12.923,3.134,0,7,0Z" transform="translate(1385.191 2208.175) rotate(-135)"/><rect class="b" width="80" height="41" rx="2" transform="translate(1341 2220.451)"/><path class="c" d="M3,3V38H77V3H3M2,0H78a2,2,0,0,1,2,2V39a2,2,0,0,1-2,2H2a2,2,0,0,1-2-2V2A2,2,0,0,1,2,0Z" transform="translate(1341 2220.451)"/><path class="b" d="M2,0H78a2,2,0,0,1,2,2V20a0,0,0,0,1,0,0H0a0,0,0,0,1,0,0V2A2,2,0,0,1,2,0Z" transform="translate(1341 2203.451)"/><path class="c" d="M3,3V17H77V3H3M2,0H78a2,2,0,0,1,2,2V20H0V2A2,2,0,0,1,2,0Z" transform="translate(1341 2203.451)"/><rect class="a" width="14" height="58" transform="translate(1374 2203.451)"/></g></svg>