<svg xmlns="http://www.w3.org/2000/svg" width="86" height="83.896" viewBox="0 0 86 83.896"><defs><style>.a{fill:#fff;}.b{fill:#ffb70e;}.c{fill:#145bc7;}</style></defs><g transform="translate(-932 -2178)"><path class="a" d="M0,0,44,8.9v48L0,48Z" transform="translate(932 2205)"/><path class="b" d="M3,3.667V45.546l38,7.682V11.35L3,3.667M0,0,44,8.9v48L0,48Z" transform="translate(932 2205)"/><path class="a" d="M44,0,0,8.9v48L44,48Z" transform="translate(974 2205)"/><path class="b" d="M41,3.667,3,11.35V53.228l38-7.682V3.667M44,0V48L0,56.9V8.9Z" transform="translate(974 2205)"/><circle class="c" cx="11" cy="11" r="11" transform="translate(947 2183)"/><circle class="c" cx="6.5" cy="6.5" r="6.5" transform="translate(979 2193)"/><circle class="c" cx="5" cy="5" r="5" transform="translate(991 2178)"/></g></svg>