<svg xmlns="http://www.w3.org/2000/svg" width="99.61" height="92.574" viewBox="0 0 99.61 92.574"><defs><style>.a{fill:#fff;}.b{fill:#ffb70e;}.c{fill:#145bc7;}</style></defs><g transform="translate(-505 -2169.698)"><path class="a" d="M23.485,67.271s-3.862-17.92-2.741-34.85S28.271,0,28.271,0,19.728,2.82,13.145,2.82A23.377,23.377,0,0,1,1.938,0S-5.793,18.9-.406,35.72,23.485,67.271,23.485,67.271Z" transform="matrix(-0.914, 0.407, -0.407, -0.914, 602.496, 2233.297)"/><path class="b" d="M19.08,61.114c-.122-.889-.245-1.832-.365-2.82a141.553,141.553,0,0,1-.966-25.062A118.989,118.989,0,0,1,22.04,9.352c.518-1.836,1.023-3.481,1.479-4.894A46.987,46.987,0,0,1,13.145,5.907,26.624,26.624,0,0,1,3.7,4.14c-1.813,5.928-5.05,19.542-1.244,31.794a48.2,48.2,0,0,0,5.63,11.611,82.67,82.67,0,0,0,7.646,9.975c1.161,1.309,2.291,2.514,3.347,3.594m1.36,5.97s.273-.008-3.654-4.024C11.127,57.273,2.9,47.452-.406,36.824-5.793,19.486,1.938,0,1.938,0A22.859,22.859,0,0,0,13.145,2.907,45.674,45.674,0,0,0,26.83.249a158.126,158.126,0,0,0-6.086,33.175A332.825,332.825,0,0,0,20.44,67.084Z" transform="matrix(-0.914, 0.407, -0.407, -0.914, 602.496, 2233.297)"/><path class="c" d="M0-.143A14.25,14.25,0,0,1,2.985-.51,14.709,14.709,0,0,1,6-.143V18.551H0Z" transform="translate(551.495 2243.722)"/><path class="a" d="M24.956,0s8.62,8.321,17.114,29.775,5.625,33.149,5.625,33.149a90.681,90.681,0,0,0-22.738-2.987,92.291,92.291,0,0,0-21.964,2.59S-1.124,50.184,6.828,29.775,24.956,0,24.956,0Z" transform="translate(530.124 2181.058)"/><path class="b" d="M24.874,4.558c-.982,1.174-2.244,2.785-3.669,4.84a92.45,92.45,0,0,0-5.619,9.267,113.176,113.176,0,0,0-5.95,13.243A106.16,106.16,0,0,0,3.442,56.365c-.266,2.225-.394,4.089-.45,5.543,1.192-.281,2.622-.6,4.234-.913A95.642,95.642,0,0,1,24.956,59.1a95.642,95.642,0,0,1,17.731,1.893c1.544.3,2.921.606,4.081.877-.108-1.34-.291-3.026-.6-5.036a123.31,123.31,0,0,0-6.9-24.914,123.848,123.848,0,0,0-11.3-22.958c-1.206-1.864-2.26-3.323-3.094-4.406m1.539-3s7.162,7.06,15.657,29.29,5.758,34.5,5.758,34.5A85.551,85.551,0,0,0,24.956,62.1,83.276,83.276,0,0,0,2.991,64.995S-1.124,52,6.828,30.851,26.413,1.561,26.413,1.561Z" transform="translate(530.124 2178.765)"/><path class="a" d="M25.8,0s-3.862,18.27-2.742,35.531a110.089,110.089,0,0,0,7.274,31.843,91.257,91.257,0,0,0-14.873-1.663A23.045,23.045,0,0,0,4.252,68.587S-3.479,49.315,1.908,32.168,25.8,0,25.8,0Z" transform="matrix(0.914, 0.407, -0.407, 0.914, 532.897, 2169.698)"/><path class="b" d="M21.394,8.243C15.742,14.035,7.879,23.419,4.773,33.417A42.22,42.22,0,0,0,3,45.539a61.578,61.578,0,0,0,.987,11.24,71.978,71.978,0,0,0,2.026,8.433,26.624,26.624,0,0,1,9.443-1.768,46.98,46.98,0,0,1,10.375,1.448c-.457-1.413-.962-3.058-1.479-4.894A118.988,118.988,0,0,1,20.064,36.12a141.552,141.552,0,0,1,.966-25.063c.12-.986.242-1.926.364-2.814m4.4-7.191s-3.86,17.422-2.739,34.875a113.472,113.472,0,0,0,7.381,32.45,80.938,80.938,0,0,0-14.979-1.934A22.859,22.859,0,0,0,4.252,69.351S-3.479,49.865,1.908,32.527,25.8,1.052,25.8,1.052Z" transform="matrix(0.914, 0.407, -0.407, 0.914, 533.208, 2169)"/></g></svg>