<svg xmlns="http://www.w3.org/2000/svg" width="100.54" height="92.32" viewBox="0 0 100.54 92.32"><defs><style>.a{fill:#fff;}.b{fill:#ffb70e;}.c{fill:#145bc7;}</style></defs><g transform="translate(-504.5 -1875.5)"><path class="a" d="M71.473,0a26.045,26.045,0,0,0-22.7,13.285A26.044,26.044,0,0,0,26.067,0C11.671,0,0,13.353,0,27.748,0,63.906,48.77,89.131,48.77,89.131S97.54,63.906,97.54,27.748C97.54,13.353,85.869,0,71.473,0Zm0,0" transform="translate(506 1877)"/><path class="b" d="M48.77,90.82l-.689-.356c-.127-.066-3.162-1.642-7.74-4.576A139.106,139.106,0,0,1,23.389,73.12,89.577,89.577,0,0,1,6.342,53.378C1.138,44.9-1.5,36.277-1.5,27.748A29.258,29.258,0,0,1,.657,16.779,30.657,30.657,0,0,1,6.53,7.461,28.316,28.316,0,0,1,15.279.956,25.036,25.036,0,0,1,26.067-1.5a27.544,27.544,0,0,1,22.7,11.951A27.543,27.543,0,0,1,71.473-1.5,25.036,25.036,0,0,1,82.261.956,28.316,28.316,0,0,1,91.01,7.461a30.657,30.657,0,0,1,5.873,9.318A29.258,29.258,0,0,1,99.04,27.748c0,8.528-2.638,17.151-7.842,25.629A89.577,89.577,0,0,1,74.151,73.12,139.107,139.107,0,0,1,57.2,85.888c-4.578,2.934-7.614,4.51-7.74,4.576ZM26.067,1.5C12.98,1.5,1.5,13.766,1.5,27.748c0,18.12,12.987,33.455,23.881,43.129A135.519,135.519,0,0,0,48.77,87.429c1.144-.625,3.63-2.027,6.865-4.1A135.986,135.986,0,0,0,72.207,70.834C83.08,61.17,96.04,45.849,96.04,27.748,96.04,13.766,84.56,1.5,71.473,1.5a24.574,24.574,0,0,0-21.4,12.52L48.77,16.348,47.462,14.02A24.574,24.574,0,0,0,26.067,1.5Z" transform="translate(506 1877)"/><path class="c" d="M-9943,16V11h-5a2,2,0,0,1-2-2,2,2,0,0,1,2-2h5V2a2,2,0,0,1,2-2,2,2,0,0,1,2,2V7h5a2,2,0,0,1,2,2,2,2,0,0,1-2,2h-5v5a2,2,0,0,1-2,2A2,2,0,0,1-9943,16Z" transform="translate(10497 1913)"/></g></svg>