<svg xmlns="http://www.w3.org/2000/svg" width="90" height="90" viewBox="0 0 90 90"><defs><style>.a{fill:#fff;}.b{fill:#ffb70e;}.c{fill:#145bc7;}</style></defs><g transform="translate(-1336 -1847)"><circle class="a" cx="45" cy="45" r="45" transform="translate(1336 1847)"/><path class="b" d="M45,3A42.012,42.012,0,0,0,28.653,83.7,42.012,42.012,0,0,0,61.347,6.3,41.734,41.734,0,0,0,45,3m0-3A45,45,0,1,1,0,45,45,45,0,0,1,45,0Z" transform="translate(1336 1847)"/><path class="c" d="M13.5,0A13.5,13.5,0,0,1,27,13.5c0,3.832-3.972,8.089-6.693,12.415-2.269,3.612-4.318,7.4-6.807,7.4-2.511,0-4.5-3.546-7.056-7.4C3.856,22.009,0,17.489,0,13.5A13.5,13.5,0,0,1,13.5,0Z" transform="translate(1368.5 1868.341)"/><circle class="a" cx="6" cy="6" r="6" transform="translate(1375.5 1874.341)"/></g></svg>