<svg xmlns="http://www.w3.org/2000/svg" width="84" height="82" viewBox="0 0 84 82"><defs><style>.a{fill:#ffb70e;}.b{fill:#fff;}.c{fill:#145bc7;}</style></defs><g transform="translate(-933 -1884)"><path class="a" d="M-9930.97,20.5h-6.019c-.009-.158-.013-.326-.013-.5V10a10.012,10.012,0,0,1,10-10h45a10.012,10.012,0,0,1,10,10V20c0,.179,0,.347-.013.5h-6.019A4.053,4.053,0,0,0-9878,20V10a4.005,4.005,0,0,0-4-4h-45a4,4,0,0,0-4,4V20a4.125,4.125,0,0,0,.031.5Z" transform="translate(10880 1884)"/><rect class="b" width="84" height="62" rx="2" transform="translate(933 1904)"/><path class="a" d="M3,3V59H81V3H3M2,0H82a2,2,0,0,1,2,2V60a2,2,0,0,1-2,2H2a2,2,0,0,1-2-2V2A2,2,0,0,1,2,0Z" transform="translate(933 1904)"/><rect class="a" width="8" height="12" rx="4" transform="translate(942 1909)"/><rect class="a" width="8" height="12" rx="4" transform="translate(1002 1909)"/><path class="c" d="M-9941.445,19.555v-6.11h-6.11A2.446,2.446,0,0,1-9950,11a2.446,2.446,0,0,1,2.445-2.445h6.11V2.445A2.444,2.444,0,0,1-9939,0a2.444,2.444,0,0,1,2.445,2.445v6.11h6.112A2.443,2.443,0,0,1-9928,11a2.443,2.443,0,0,1-2.442,2.445h-6.112v6.11A2.444,2.444,0,0,1-9939,22,2.444,2.444,0,0,1-9941.445,19.555Z" transform="translate(10914 1924)"/></g></svg>