<svg xmlns="http://www.w3.org/2000/svg" width="380" height="230" viewBox="0 0 380 230">
  <g id="组_5169" data-name="组 5169" transform="translate(-2319 -2991)">
    <path id="路径_24107" data-name="路径 24107" d="M0,0H380V230H0Z" transform="translate(2319 2991)" fill="#1173f3"/>
    <g id="组_5168" data-name="组 5168" transform="translate(1942 3)">
      <path id="路径_24142" data-name="路径 24142" d="M30.06,2.988q-3.852,0-6.408-6.228A37.208,37.208,0,0,1,18.072.792a2.275,2.275,0,0,1-1.332.36A1.832,1.832,0,0,1,15.624.468q-.72-.828-.54-1.422a2.224,2.224,0,0,1,1.188-1.134,36.972,36.972,0,0,0,6.3-4.5,58.641,58.641,0,0,1-1.908-10.08H12.78v5.04l4.428-.864q1.584-.324,1.692,1.3A1.394,1.394,0,0,1,17.712-9.54q-3.1.756-4.932,1.116V-1.26a5.523,5.523,0,0,1-.378,2.3,2.429,2.429,0,0,1-1.314,1.188,12.363,12.363,0,0,1-4.068.612Q5,2.916,4.5,1.548,4.1.468,4.788-.036a3.269,3.269,0,0,1,1.944-.4Q8.28-.432,8.6-.468a1.114,1.114,0,0,0,.648-.2.781.781,0,0,0,.18-.594V-7.668Q7.848-7.344,4.9-6.7q-.54.108-.828.18a1.527,1.527,0,0,1-1.944-1.26,2.161,2.161,0,0,1-.036-1.4A1.4,1.4,0,0,1,3.2-9.828Q6.48-10.4,9.432-10.98v-5.688H3.816a1.4,1.4,0,0,1-1.584-1.584,1.4,1.4,0,0,1,1.584-1.584H9.432V-24.8q-1.44.252-4.212.648-.4.036-.576.072A1.508,1.508,0,0,1,2.88-25.092q-.612-1.584,1.26-1.872a95.445,95.445,0,0,0,11.124-2.484,1.636,1.636,0,0,1,1.116-.036,3.186,3.186,0,0,1,.864.756q.72.9.576,1.458t-1.224.882q-2.124.576-3.816.9v5.652h7.56q-.288-3.2-.432-8.28A1.492,1.492,0,0,1,21.6-29.88q1.728,0,1.728,1.8,0,4.5.36,8.244h8.568a1.4,1.4,0,0,1,1.584,1.584,1.4,1.4,0,0,1-1.584,1.584H24.048a64.187,64.187,0,0,0,1.3,7.308,36.765,36.765,0,0,0,3.348-4.572,1.482,1.482,0,0,1,2.124-.684,1.306,1.306,0,0,1,.72,2.088A37.839,37.839,0,0,1,26.352-5.8Q28.188-.432,30.384-.432q.9,0,1.224-3.132a4.2,4.2,0,0,1,.54-2.16q.36-.36,1.116.252,1.332.684,1.008,3.456a8.236,8.236,0,0,1-1.44,3.96A3.532,3.532,0,0,1,30.06,2.988Zm1.872-25.416a2.088,2.088,0,0,1-1.26.5,1.278,1.278,0,0,1-1.008-.72,30.811,30.811,0,0,0-3.168-3.6q-1.332-1.26.144-2.268a1.493,1.493,0,0,1,1.944.072q1.008.936,2.2,2.16,1.116,1.188,1.548,1.764Q33.228-23.364,31.932-22.428Zm10.8,25.272A1.384,1.384,0,0,1,41.148,1.3V-15.228a3.2,3.2,0,0,0-.18.324q-.216.36-.324.5-.792,1.116-1.4,1.116-.612-.036-1.188-1.224a2.7,2.7,0,0,1-.288-1.26,2.3,2.3,0,0,1,.468-1.152,42.311,42.311,0,0,0,5.256-11.448A1.471,1.471,0,0,1,45.5-29.556a1.367,1.367,0,0,1,1.08,1.944q-1.152,3.456-2.3,6.192V1.3A1.368,1.368,0,0,1,42.732,2.844Zm6.876,0a1.432,1.432,0,0,1-1.62-1.62V-21.1a1.432,1.432,0,0,1,1.62-1.62,1.432,1.432,0,0,1,1.62,1.62V1.224A1.432,1.432,0,0,1,49.608,2.844ZM63.72,2.736q-2.016.072-2.448-1.224Q60.66-.36,63.4-.288q.468,0,1.188-.036h.4a.7.7,0,0,0,.792-.792v-23.94a.764.764,0,0,0-.864-.864H58.14a1.336,1.336,0,0,1-1.512-1.512,1.336,1.336,0,0,1,1.512-1.512h8.568A2.288,2.288,0,0,1,68.4-28.3a2.288,2.288,0,0,1,.648,1.692V-1.08a5.054,5.054,0,0,1-.36,2.124A2.247,2.247,0,0,1,67.464,2.16,10.412,10.412,0,0,1,63.72,2.736Zm-8.64-25.38A1.736,1.736,0,0,1,53.8-22.3a1.437,1.437,0,0,1-.882-.882q-.216-.432-.756-1.368a4.937,4.937,0,0,1-.36-.576q-.18-.252-.5-.828-.612-1.008-.936-1.512a1.239,1.239,0,0,1,.5-2.052,1.328,1.328,0,0,1,1.944.432q1.728,2.448,2.952,4.608a1.215,1.215,0,0,1,.144,1.044A2.027,2.027,0,0,1,55.08-22.644ZM82.728,2.844a1.448,1.448,0,0,1-1.656-1.62V-13.644a28.456,28.456,0,0,1-4.032,3.96A1.507,1.507,0,0,1,74.7-9.9q-1.152-1.332.36-2.52a30.627,30.627,0,0,0,7.848-10.152H76.032a1.384,1.384,0,0,1-1.548-1.584A1.368,1.368,0,0,1,76.032-25.7h8.244q.72-1.944,1.008-2.916a1.573,1.573,0,0,1,2.088-1.188,1.447,1.447,0,0,1,1.188,2.124q-.216.684-.648,1.98h16.164a1.368,1.368,0,0,1,1.548,1.548,1.384,1.384,0,0,1-1.548,1.584H86.58q-.792,1.656-1.872,3.6H99.18a2.288,2.288,0,0,1,1.692.648,2.288,2.288,0,0,1,.648,1.692V-1.044a5.675,5.675,0,0,1-.324,2.16,2.363,2.363,0,0,1-1.332,1.152,12.82,12.82,0,0,1-4.14.54q-2.052,0-2.484-1.332A1.134,1.134,0,0,1,93.6.036a2.866,2.866,0,0,1,1.8-.4,14.146,14.146,0,0,0,2.088,0,.9.9,0,0,0,.63-.162.775.775,0,0,0,.162-.558v-3.1H84.348v5.4A1.432,1.432,0,0,1,82.728,2.844Zm1.62-9.828H98.28v-3.132H84.348Zm0-5.94H98.28v-2.268a.764.764,0,0,0-.864-.864H84.348ZM113.112,1.728a1.858,1.858,0,0,1-1.332-.54,2.226,2.226,0,0,1-.828-1.044,1.74,1.74,0,0,1,.36-1.26q1.08-1.656,2.448-3.924.072-.108.216-.36,1.584-2.772,2.3-4.176.864-1.656,2.3-.324a1.6,1.6,0,0,1,.4,2.016q-2.2,4.392-4.788,8.712A1.622,1.622,0,0,1,113.112,1.728ZM124.524,1.3a2.288,2.288,0,0,1-1.692-.648,2.288,2.288,0,0,1-.648-1.692V-8.892a2.288,2.288,0,0,1,.648-1.692,2.288,2.288,0,0,1,1.692-.648h5.148V-16.56h-8.316a1.416,1.416,0,0,1-1.584-1.62,1.4,1.4,0,0,1,1.584-1.584h8.316v-5.112q-2.916.468-6.084.756a1.529,1.529,0,0,1-1.764-1.116q-.54-1.584,1.368-1.8a73.793,73.793,0,0,0,14.076-2.736,1.438,1.438,0,0,1,1.044-.036,2.621,2.621,0,0,1,.864.648q1.656,1.656-.4,2.34a61.308,61.308,0,0,1-5.976,1.4v5.652h7.848a1.4,1.4,0,0,1,1.584,1.584,1.416,1.416,0,0,1-1.584,1.62H132.8v5.328h5a2.288,2.288,0,0,1,1.692.648,2.288,2.288,0,0,1,.648,1.692v7.848A2.288,2.288,0,0,1,139.5.648a2.288,2.288,0,0,1-1.692.648H124.524Zm1.548-3.024h10.08a.764.764,0,0,0,.864-.864V-7.344a.764.764,0,0,0-.864-.864h-10.08a.764.764,0,0,0-.864.864v4.752A.764.764,0,0,0,126.072-1.728Zm-9.828-12.456a1.487,1.487,0,0,1-1.188-.288q-.54-.324-1.764-1.044a19.856,19.856,0,0,0-2.124-1.224q-1.368-.756-.4-2.124a1.446,1.446,0,0,1,1.944-.54q.252.144.828.432,2.412,1.26,3.384,1.836.684.432.72.9a2.059,2.059,0,0,1-.432,1.188A1.885,1.885,0,0,1,116.244-14.184Zm1.692-9.7a1.558,1.558,0,0,1-1.188-.306q-.4-.288-1.332-.828a4.439,4.439,0,0,1-.468-.288q-.216-.108-.612-.36l-1.512-.864q-1.4-.756-.324-2.124a1.418,1.418,0,0,1,1.908-.5q2.628,1.368,4.284,2.34.72.432.756.936a1.888,1.888,0,0,1-.486,1.17A2.006,2.006,0,0,1,117.936-23.886Zm52.2,26.37a28.662,28.662,0,0,1-3.816.072,2.267,2.267,0,0,1-2.34-1.44Q163.3-.972,166.356-.792q1.044.036,2.34.036a2.255,2.255,0,0,0,1.656-.54q.864-.828,1.44-4.536.576-3.852,1.044-11.664a3.085,3.085,0,0,0-.144-1.332.676.676,0,0,0-.648-.324h-10.3a31.807,31.807,0,0,1-2.556,10.764,24.907,24.907,0,0,1-8.46,10.08,4.235,4.235,0,0,1-1.656.648,1.739,1.739,0,0,1-1.548-.5A1.355,1.355,0,0,1,147.24.144a3.8,3.8,0,0,1,1.476-1.512q8.568-6.336,9.5-17.784h-9.36a1.512,1.512,0,0,1-1.692-1.728,1.5,1.5,0,0,1,1.692-1.692h9.54V-28.4a1.543,1.543,0,0,1,1.764-1.728,1.527,1.527,0,0,1,1.728,1.728v5.832h12.2a1.846,1.846,0,0,1,1.728.936,7.617,7.617,0,0,1,.432,3.708q-.576,9.468-1.188,13.482T173.412.828a4.618,4.618,0,0,1-1.476,1.224A5.826,5.826,0,0,1,170.136,2.484Z" transform="translate(408 3068)" fill="#fff"/>
      <path id="路径_24143" data-name="路径 24143" d="M14.168,1.694q-.418,0-.814-.022-1.1-.066-1.1-.638,0-.594.924-.594h.814q.594-.022.869-.022a.708.708,0,0,0,.528-.3,2.8,2.8,0,0,0,.429-1.177V-1.1q0-.066-11.33-.088-1.034,0-1.034-.88,0-.132.638-4a10.711,10.711,0,0,0-1.936-.066q-1.144,0-1.144-.748t1.144-.748H4.18a.16.16,0,0,0,.176-.154L4.818-11.4A1.114,1.114,0,0,1,6.05-12.5H16.94q1.122,0,1.122,1.078L17.93-7.744a.1.1,0,0,0,.11.11h1.826q1.144,0,1.144.748t-1.144.748H18.018a.117.117,0,0,0-.132.132l-.264,3.278a.1.1,0,0,0,.11.11h1.386q1.144,0,1.144.726t-1.144.726H17.6a.16.16,0,0,0-.176.154A8.73,8.73,0,0,1,17.138.374a2.178,2.178,0,0,1-.7.968A4.826,4.826,0,0,1,14.168,1.694Zm1.716-4.312a.117.117,0,0,0,.132-.132l.264-3.322a.1.1,0,0,0-.11-.11H5.9a.16.16,0,0,0-.176.154L5.214-2.684Q5.214-2.618,15.884-2.618Zm.33-4.972a.117.117,0,0,0,.132-.132l.132-3.212a.1.1,0,0,0-.11-.11H6.556a.16.16,0,0,0-.176.154L5.94-7.656Q5.94-7.59,16.214-7.59ZM2.244-10.45a.722.722,0,0,1-.528-.253.751.751,0,0,1-.242-.517A1.244,1.244,0,0,1,2-12.078a17.627,17.627,0,0,0,1.782-2.365,18.18,18.18,0,0,0,1.8-3.113q.352-.814.88-.814a.742.742,0,0,1,.33.088.7.7,0,0,1,.44.66,1.748,1.748,0,0,1-.2.726l-.308.638q0,.066,12.386.066,1.144,0,1.144.726,0,.748-1.144.748H6.138a.474.474,0,0,0-.418.242Q3.234-10.45,2.244-10.45ZM12.276-2.728a1.437,1.437,0,0,1-.9-.462A9.342,9.342,0,0,0,9.24-4.664q-.792-.418-.792-.836a.548.548,0,0,1,.066-.242A.485.485,0,0,1,9-6.028a1.91,1.91,0,0,1,.814.242q.33.154,1.518.924a11.19,11.19,0,0,1,1.518,1.1.422.422,0,0,1,.132.308.869.869,0,0,1-.286.55A.571.571,0,0,1,12.276-2.728Zm.242-5.016a.671.671,0,0,1-.418-.231,11.92,11.92,0,0,0-1.342-.935A12.635,12.635,0,0,0,9.24-9.79a.382.382,0,0,1-.264-.374q0-.66.616-.66a2.048,2.048,0,0,1,.77.2q.242.11,1.375.792a12.778,12.778,0,0,1,1.463.968.333.333,0,0,1,.132.264.869.869,0,0,1-.286.55A.779.779,0,0,1,12.518-7.744ZM29.832,1.694q-.9,0-1.144-.55a.9.9,0,0,1-.066-.308q0-.55.99-.55h.924A5.492,5.492,0,0,0,32.1.187a.443.443,0,0,0,.11-.341V-2.86H24.156a.622.622,0,0,1-.7-.7.622.622,0,0,1,.7-.7h8.052v-.726a.525.525,0,0,1,.594-.594h.176a17.866,17.866,0,0,0,2.6-1.3H27.742a.583.583,0,0,1-.66-.66.583.583,0,0,1,.66-.66H36.96q.946,0,.946.506a1.5,1.5,0,0,1-.462.88,11.115,11.115,0,0,1-3.652,2.2v.352h8.1a.622.622,0,0,1,.7.7.622.622,0,0,1-.7.7h-8.1V-.11a2.024,2.024,0,0,1-.22,1.056,1.258,1.258,0,0,1-.77.506A15.319,15.319,0,0,1,29.832,1.694ZM24.134-7a.774.774,0,0,1-.616-.33.973.973,0,0,1-.264-.55q0-.374.594-.594A22.713,22.713,0,0,0,27.412-10.2a17.012,17.012,0,0,0,3.036-2.255H24.156a.6.6,0,0,1-.682-.682.6.6,0,0,1,.682-.682h7.986v-2.156q-4.884.352-6.314.352a.687.687,0,0,1-.726-.55.771.771,0,0,1-.044-.242q0-.484.726-.528A81.82,81.82,0,0,0,38.61-18.216l.2-.022a1.027,1.027,0,0,1,.572.286q.484.418.484.66-.022.242-.594.374a51.145,51.145,0,0,1-5.544.792v2.31h8.162a.6.6,0,0,1,.682.682.6.6,0,0,1-.682.682H35.53a18.541,18.541,0,0,0,6.424,3.784q.66.22.66.594a.9.9,0,0,1-.264.55.812.812,0,0,1-.638.308,1.394,1.394,0,0,1-.4-.066A22.539,22.539,0,0,1,37.2-9.438a17.794,17.794,0,0,1-3.476-2.948v2.794a.7.7,0,0,1-.792.792.7.7,0,0,1-.792-.792v-2.662a17.7,17.7,0,0,1-3.52,2.97,22.79,22.79,0,0,1-4.114,2.2A.923.923,0,0,1,24.134-7Zm21.846,8.4a.893.893,0,0,1-.484-.176.768.768,0,0,1-.374-.638,1.271,1.271,0,0,1,.132-.528,17.14,17.14,0,0,0,1.32-5.06,42.666,42.666,0,0,0,.242-4.95V-14.96a1.249,1.249,0,0,1,.352-.924,1.249,1.249,0,0,1,.924-.352H54.8v-1.342a.729.729,0,0,1,.836-.814.719.719,0,0,1,.814.814v1.342h7.392a.661.661,0,0,1,.748.748.661.661,0,0,1-.748.748H48.8a.408.408,0,0,0-.462.462v4.334Q48.334-2.86,46.618.9,46.354,1.408,45.98,1.408Zm17.578.22-.264-.022A22.918,22.918,0,0,1,56.87-.22a28.553,28.553,0,0,1-6.974,1.8l-.22.022a.79.79,0,0,1-.748-.484.9.9,0,0,1-.11-.4q0-.44.726-.528a28.378,28.378,0,0,0,5.7-1.3,11.515,11.515,0,0,1-2.9-2.464A.7.7,0,0,1,52.162-4q0-.4.528-.572H50.006a.593.593,0,0,1-.66-.682.583.583,0,0,1,.66-.66H61.4q.99,0,.99.726a1.911,1.911,0,0,1-.22.792,9.72,9.72,0,0,1-3.608,3.344A25.953,25.953,0,0,0,63.712.176q.858.088.858.528a.927.927,0,0,1-.2.506A.9.9,0,0,1,63.558,1.628Zm-6.666-3.41a9.831,9.831,0,0,0,3.674-2.794H53.372A9.861,9.861,0,0,0,56.892-1.782ZM59.642-7.3h-5.83a1.249,1.249,0,0,1-.924-.352,1.249,1.249,0,0,1-.352-.924v-2.354H49.742a.593.593,0,0,1-.66-.682.583.583,0,0,1,.66-.66h2.794V-13.42a.681.681,0,0,1,.77-.77.681.681,0,0,1,.77.77v1.144h5.28V-13.42a.69.69,0,0,1,.792-.77.681.681,0,0,1,.77.77v1.144h2.86a.583.583,0,0,1,.66.66.593.593,0,0,1-.66.682h-2.86V-8.58a1.249,1.249,0,0,1-.352.924A1.249,1.249,0,0,1,59.642-7.3Zm-.748-1.32a.408.408,0,0,0,.462-.462v-1.848h-5.28v1.848a.408.408,0,0,0,.462.462Zm27.148.946h-18a.788.788,0,0,1-.88-.9.778.778,0,0,1,.88-.88h18a.778.778,0,0,1,.88.88A.788.788,0,0,1,86.042-7.678Zm7.986,9.086a.756.756,0,0,1-.638-.286A.585.585,0,0,1,93.258.77a.744.744,0,0,1,.2-.462,1.986,1.986,0,0,1,.836-.638,11.585,11.585,0,0,0,5.1-5.236,10.219,10.219,0,0,0,1.144-4.51v-2.772H97.9a22.011,22.011,0,0,1-1.936,3.762q-.33.462-.66.462a1.05,1.05,0,0,1-.55-.2q-.528-.308-.528-.638a1.073,1.073,0,0,1,.264-.594,21.938,21.938,0,0,0,3.146-7.414q.2-.748.792-.748.924.088.924.726a1.364,1.364,0,0,1-.044.33q-.4,1.54-.814,2.684h8.866q1.1,0,1.1.99a2.33,2.33,0,0,1-.088.594,23.888,23.888,0,0,1-1.738,4.312.5.5,0,0,1-.418.308,1.325,1.325,0,0,1-.462-.132q-.528-.286-.528-.594a.873.873,0,0,1,.11-.374,21.311,21.311,0,0,0,1.364-3.476h-4.466v2.86a10.689,10.689,0,0,0,1.012,4.312,11.04,11.04,0,0,0,4.532,5.192q.9.462.9,1.144a.613.613,0,0,1-.132.374.842.842,0,0,1-.726.33,1.432,1.432,0,0,1-.682-.176,12.075,12.075,0,0,1-4.224-4.246,11.032,11.032,0,0,1-1.54-3.96,10.34,10.34,0,0,1-1.738,3.96A13.1,13.1,0,0,1,94.8,1.21,1.717,1.717,0,0,1,94.028,1.408Zm-3.916-3.19a.831.831,0,0,1-.616-.4.973.973,0,0,1-.242-.594.715.715,0,0,1,.242-.506q2.64-2.64,3.916-4a.858.858,0,0,1,.572-.308q.308,0,.594.44a.918.918,0,0,1,.176.506.872.872,0,0,1-.264.594Q90.53-1.782,90.112-1.782Zm3.52-10.934a.872.872,0,0,1-.594-.308q-.594-.594-1.144-1.056a.626.626,0,0,1-.132-.11L90.4-15.268a.726.726,0,0,1-.374-.572.858.858,0,0,1,.308-.572.887.887,0,0,1,.616-.308.82.82,0,0,1,.484.176q3.146,2.288,3.146,2.816a.984.984,0,0,1-.319.649A.992.992,0,0,1,93.632-12.716ZM125.906,1.3l-1.144-.022A1.082,1.082,0,0,1,123.64.4a.873.873,0,0,1-.11-.374q0-.33.594-.33.066,0,.605.033t1.749.033a1.092,1.092,0,0,0,.9-.33q.528-.55.814-3.212t.484-8.822a1.49,1.49,0,0,0-.1-.671.365.365,0,0,0-.341-.165h-5.06Q121.638-9.856,121-9.856a1.03,1.03,0,0,1-.528-.2.782.782,0,0,1-.418-.616.737.737,0,0,1,.154-.418,23.057,23.057,0,0,0,2.728-6.578q.154-.682.7-.682a.986.986,0,0,1,.264.044q.616.154.616.66a1.045,1.045,0,0,1-.044.286,22.271,22.271,0,0,1-.726,2.4h5.742a.69.69,0,0,1,.77.792Q130-6.38,129.712-3.52q-.33,3.1-.946,3.883a2.4,2.4,0,0,1-1.738.891Q126.566,1.3,125.906,1.3ZM118.338-.616h-4.994a1.249,1.249,0,0,1-.924-.352,1.249,1.249,0,0,1-.352-.924V-13.618a1.249,1.249,0,0,1,.352-.924,1.249,1.249,0,0,1,.924-.352h1.166q.462-1.474.726-2.728.132-.7.748-.7.924,0,.924.682a14.432,14.432,0,0,1-.924,2.75h2.354a1.249,1.249,0,0,1,.924.352,1.249,1.249,0,0,1,.352.924V-1.892a1.249,1.249,0,0,1-.352.924A1.249,1.249,0,0,1,118.338-.616Zm-.682-1.474a.408.408,0,0,0,.462-.462V-7.37h-4.576v4.818A.408.408,0,0,0,114-2.09Zm7.964-2.376a.593.593,0,0,1-.528-.374q-.858-1.518-2.354-3.652a1.351,1.351,0,0,1-.33-.638.674.674,0,0,1,.4-.55.935.935,0,0,1,.44-.132.655.655,0,0,1,.55.308q2.838,3.718,2.838,4.268,0,.264-.462.572A1.05,1.05,0,0,1,125.62-4.466Zm-7.5-4.356v-4.136a.408.408,0,0,0-.462-.462H114a.408.408,0,0,0-.462.462v4.136ZM150.722.77H135.278a1.249,1.249,0,0,1-.924-.352A1.249,1.249,0,0,1,134-.506V-16.17a1.249,1.249,0,0,1,.352-.924,1.249,1.249,0,0,1,.924-.352h15.444a1.249,1.249,0,0,1,.924.352,1.249,1.249,0,0,1,.352.924V-.506a1.249,1.249,0,0,1-.352.924A1.249,1.249,0,0,1,150.722.77Zm-.77-1.452a.408.408,0,0,0,.462-.462V-15.488a.408.408,0,0,0-.462-.462h-13.97a.408.408,0,0,0-.462.462V-1.144a.408.408,0,0,0,.462.462Zm-7.018-1.3q-1.144,0-1.144-.748,0-.726,1.144-.726h.792q.374,0,.374-.352,0-5.06-.022-5.06l-.044.044a21.352,21.352,0,0,1-5.434,4.6,1.671,1.671,0,0,1-.792.264.624.624,0,0,1-.572-.352.654.654,0,0,1-.088-.33q0-.44.726-.836a18.186,18.186,0,0,0,2.508-1.936,18.983,18.983,0,0,0,3.124-3.256l.022-.044q0-.044-5.346-.044-1.144,0-1.144-.748,0-.726,1.144-.726h5.808a.1.1,0,0,0,.11-.11V-13.86q0-1.144.792-1.144t.792,1.144v1.518a.1.1,0,0,0,.11.11h2.134q1.144,0,1.144.726,0,.748-1.144.748h-2.134a.1.1,0,0,0-.11.11v6.842a2.377,2.377,0,0,1-.165,1,.8.8,0,0,1-.385.429q-.22.088-.726.33A7.574,7.574,0,0,1,142.934-1.98ZM156.156,1.5a.869.869,0,0,1-.572-.3.823.823,0,0,1-.308-.561q0-.044.011-.2t.429-.484a10.2,10.2,0,0,0,2.178-2.772,13.85,13.85,0,0,1-1.8-3.586,1.13,1.13,0,0,1-.066-.352.574.574,0,0,1,.44-.572.776.776,0,0,1,.308-.066q.4,0,.594.572a10.505,10.505,0,0,0,1.21,2.508,17.9,17.9,0,0,0,1.166-4.51v-.11a.35.35,0,0,0-.4-.4H157.3l-.132.264a.7.7,0,0,1-.66.462,1.046,1.046,0,0,1-.286-.044q-.594-.176-.594-.572a.908.908,0,0,1,.132-.418q1.5-2.9,2.838-5.918h-2.772a.642.642,0,0,1-.726-.726.642.642,0,0,1,.726-.726h3.432q1.1,0,1.1.792A32.114,32.114,0,0,1,158-10.78h2.156q1.166,0,1.166,1.254l-.022.33A25.137,25.137,0,0,1,159.7-2.97a8.1,8.1,0,0,0,3.784,2,20.535,20.535,0,0,0,4.906.484q4.048,0,5.808-.022.682,0,.682.33a1.824,1.824,0,0,1-.2.66.941.941,0,0,1-.968.616h-5.368a21.99,21.99,0,0,1-5.3-.528,9.108,9.108,0,0,1-4.048-2.134,10.661,10.661,0,0,1-2.244,2.794A1,1,0,0,1,156.156,1.5ZM167.75-1.232a.69.69,0,0,1-.792-.77V-3.564H161.92a.593.593,0,0,1-.66-.682.583.583,0,0,1,.66-.66h5.038V-6.644h-4.092a.554.554,0,0,1-.616-.638.544.544,0,0,1,.616-.616h4.092V-9.526H163.02a.583.583,0,0,1-.66-.66.583.583,0,0,1,.66-.66h3.938v-1.628h-5.346a.574.574,0,0,1-.638-.66.564.564,0,0,1,.638-.638h5.346v-1.584h-3.806a.574.574,0,0,1-.638-.66.564.564,0,0,1,.638-.638h3.806v-.814a.69.69,0,0,1,.792-.77.681.681,0,0,1,.77.77v.814h3.52a1.249,1.249,0,0,1,.924.352,1.249,1.249,0,0,1,.352.924v1.606h.99a.564.564,0,0,1,.638.638.574.574,0,0,1-.638.66h-.99V-10.8a1.249,1.249,0,0,1-.352.924,1.249,1.249,0,0,1-.924.352h-3.52V-7.9h4.4a.544.544,0,0,1,.616.616.554.554,0,0,1-.616.638h-4.4v1.738h5.3a.583.583,0,0,1,.66.66.593.593,0,0,1-.66.682h-5.3V-2A.681.681,0,0,1,167.75-1.232Zm3.542-9.614a.408.408,0,0,0,.462-.462v-1.166H168.52v1.628Zm.462-2.926v-1.122a.408.408,0,0,0-.462-.462H168.52v1.584Zm7.062,14.85a.912.912,0,0,1-.572-.264.836.836,0,0,1-.418-.638.832.832,0,0,1,.2-.484A62.619,62.619,0,0,0,181.3-5.94q.242-.462.55-.462a.9.9,0,0,1,.572.275.8.8,0,0,1,.308.605.9.9,0,0,1-.11.4Q179.5,1.078,178.816,1.078Zm15.356-.33h-8.228A1.249,1.249,0,0,1,185.02.4a1.249,1.249,0,0,1-.352-.924V-5.544a1.249,1.249,0,0,1,.352-.924,1.249,1.249,0,0,1,.924-.352h3.41v-3.608h-5.478a.7.7,0,0,1-.792-.792.7.7,0,0,1,.792-.792h5.478v-3.564q-3.828.528-4.268.528a.687.687,0,0,1-.726-.55,1.045,1.045,0,0,1-.044-.286q0-.484.7-.572a51.2,51.2,0,0,0,9.174-1.716,1.117,1.117,0,0,1,.308-.044,1.022,1.022,0,0,1,.638.374,1.022,1.022,0,0,1,.374.638q0,.066-.011.187t-.561.275a38.514,38.514,0,0,1-4.048.924v3.806h5.17a.7.7,0,0,1,.792.792.7.7,0,0,1-.792.792h-5.17V-6.82h3.278a1.249,1.249,0,0,1,.924.352,1.249,1.249,0,0,1,.352.924V-.528A1.249,1.249,0,0,1,195.1.4,1.249,1.249,0,0,1,194.172.748ZM193.446-.77a.408.408,0,0,0,.462-.462V-4.84a.408.408,0,0,0-.462-.462H186.6a.408.408,0,0,0-.462.462v3.608a.408.408,0,0,0,.462.462ZM180.928-8.822a.71.71,0,0,1-.4-.132q-1.144-.77-2.772-1.65a.581.581,0,0,1-.374-.506.991.991,0,0,1,.231-.539.661.661,0,0,1,.539-.319.774.774,0,0,1,.374.11q1.848.946,2.9,1.584a.568.568,0,0,1,.352.484,1.059,1.059,0,0,1-.22.528A.832.832,0,0,1,180.928-8.822Zm1.122-5.94a.911.911,0,0,1-.484-.2q-1.144-.77-2.728-1.628a.627.627,0,0,1-.4-.528.892.892,0,0,1,.242-.539.72.72,0,0,1,.572-.3.742.742,0,0,1,.33.088q1.8.924,2.97,1.628a.673.673,0,0,1,.352.462,1.065,1.065,0,0,1-.264.572Q182.314-14.762,182.05-14.762Zm25.718-1.848a.652.652,0,0,1,.726.748.642.642,0,0,1-.726.726h-7a.642.642,0,0,1-.726-.726.652.652,0,0,1,.726-.748Zm1.3,13.992a.682.682,0,0,1-.528.924.622.622,0,0,1-.9-.484l-.22-.748a54.919,54.919,0,0,0-6.71,1.672q-.66.242-.924-.528a1.166,1.166,0,0,1,.264-1.3q-.154.44.462-.968A32.659,32.659,0,0,0,202.29-9.9h-2.31a.652.652,0,0,1-.726-.748.652.652,0,0,1,.726-.748h8.162a.652.652,0,0,1,.726.748.652.652,0,0,1-.726.748h-4.158a39.613,39.613,0,0,1-2.09,6.336q-.154.374.242.308l4.818-1.034L205.92-6.974a.558.558,0,0,1,.44-.836.7.7,0,0,1,.946.462A34.884,34.884,0,0,1,209.066-2.618Zm4.818-10.736H217.8a.817.817,0,0,1,.924.924l-.022.286q-.22,6.49-.484,9.24A7.846,7.846,0,0,1,217.4.528a2.342,2.342,0,0,1-1.584.836,15.083,15.083,0,0,1-2.31,0,1.04,1.04,0,0,1-.99-.836q-.242-.792.484-.748a21.1,21.1,0,0,0,2.134.066.961.961,0,0,0,.836-.33,6.7,6.7,0,0,0,.682-2.992q.264-2.53.44-7.9a.369.369,0,0,0-.418-.418h-2.86a35.778,35.778,0,0,1-1.254,7.986,10.625,10.625,0,0,1-2.706,4.95q-.484.528-1.122-.066t-.154-1.122a9.113,9.113,0,0,0,2.486-4.444,31.281,31.281,0,0,0,1.144-7.3H209.88q-.726,0-.726-.77,0-.792.726-.792h2.4l.066-3.96q0-.726.792-.726.814,0,.814.726Zm9.834,15.532a.555.555,0,0,1-.506-.4.646.646,0,0,1-.044-.242.719.719,0,0,1,.484-.682,3.524,3.524,0,0,0,2.09-2.9,2.421,2.421,0,0,1-.374.022,1.741,1.741,0,0,1-1.177-.407,1.441,1.441,0,0,1-.473-1.155,1.458,1.458,0,0,1,.484-1.166,1.754,1.754,0,0,1,1.188-.418,1.6,1.6,0,0,1,1.386.682,3.138,3.138,0,0,1,.484,1.848A4.909,4.909,0,0,1,226.226.44a5.471,5.471,0,0,1-2.178,1.672A.943.943,0,0,1,223.718,2.178Zm38.346-1.166H250.492A.7.7,0,0,1,249.7.22a.71.71,0,0,1,.792-.814h4.422V-17.446a.71.71,0,0,1,.814-.792.7.7,0,0,1,.792.792V-11.2h4a.681.681,0,0,1,.77.77.69.69,0,0,1-.77.792h-4V-.594h5.544a.71.71,0,0,1,.792.814A.7.7,0,0,1,262.064,1.012ZM246.444.99l-.11-.022a1.609,1.609,0,0,1-.583-.341A.689.689,0,0,1,245.5.11a.387.387,0,0,1,.11-.286,3.276,3.276,0,0,0,.99-2.156v-7.15a.408.408,0,0,0-.462-.462H243.98a.69.69,0,0,1-.77-.792.681.681,0,0,1,.77-.77h2.97a1.145,1.145,0,0,1,.847.319,1.145,1.145,0,0,1,.319.847v8.052l1.848-1.386a.968.968,0,0,1,.528-.22q.44,0,.55.616a1.123,1.123,0,0,1-.286.616,3.892,3.892,0,0,1-.638.66A40.036,40.036,0,0,0,246.444.99ZM248.4-13.882a.663.663,0,0,1-.484-.286q-1.5-1.584-2.288-2.332a.715.715,0,0,1-.242-.506.794.794,0,0,1,.253-.517.716.716,0,0,1,.517-.275.652.652,0,0,1,.462.22q2.64,2.442,2.64,2.772a1.074,1.074,0,0,1-.286.561A.773.773,0,0,1,248.4-13.882ZM281.072,1.65q-1.254,0-1.254-.946,0-.594,1.034-.594h.132A4.007,4.007,0,0,0,282.359,0a.487.487,0,0,0,.121-.374v-5.06h-4.862A12.78,12.78,0,0,1,275.066,1.1a.929.929,0,0,1-.66.352.82.82,0,0,1-.484-.176.7.7,0,0,1-.33-.572,1.135,1.135,0,0,1,.352-.7,10.532,10.532,0,0,0,1.98-4.554,24.984,24.984,0,0,0,.374-4.73v-6.8a1.249,1.249,0,0,1,.352-.924,1.249,1.249,0,0,1,.924-.352h5.192a1.249,1.249,0,0,1,.924.352,1.249,1.249,0,0,1,.352.924V-.352A2.7,2.7,0,0,1,283.855.77a1.3,1.3,0,0,1-.649.616A5.894,5.894,0,0,1,281.072,1.65Zm-10.934-.022a.69.69,0,0,1-.792-.77v-2.97H265.8a.652.652,0,0,1-.726-.748.642.642,0,0,1,.726-.726h3.542v-1.76h-2.134a1.249,1.249,0,0,1-.924-.352,1.249,1.249,0,0,1-.352-.924v-4.84a1.249,1.249,0,0,1,.352-.924,1.249,1.249,0,0,1,.924-.352h2.134V-14.5h-3.3a.642.642,0,0,1-.726-.726.642.642,0,0,1,.726-.726h3.3v-1.694a.69.69,0,0,1,.792-.77.681.681,0,0,1,.77.77v1.694h3.476a.642.642,0,0,1,.726.726.642.642,0,0,1-.726.726h-3.476v1.76H273.2a1.249,1.249,0,0,1,.924.352,1.249,1.249,0,0,1,.352.924v4.84a1.249,1.249,0,0,1-.352.924,1.249,1.249,0,0,1-.924.352h-2.288v1.76h3.52a.642.642,0,0,1,.726.726.652.652,0,0,1-.726.748h-3.52V.858A.681.681,0,0,1,270.138,1.628Zm2.4-8.25A.408.408,0,0,0,273-7.084V-8.448h-5.61v1.364a.408.408,0,0,0,.462.462Zm9.944-.33v-3.7h-4.62q0,2.618-.088,3.7ZM273-9.658v-1.364a.408.408,0,0,0-.462-.462H267.85a.408.408,0,0,0-.462.462v1.364Zm9.482-2.486V-15.4a.408.408,0,0,0-.462-.462h-3.7a.408.408,0,0,0-.462.462v3.256ZM305.206,1.672q-1.98,0-2.926-2.926a28.993,28.993,0,0,1-1.012-7.15H290.2a.632.632,0,0,1-.7-.726.622.622,0,0,1,.7-.7H301.62q1.232,0,1.3,1.8.462,8.1,2.376,8.1.374,0,.506-1.3.044-1.144.528-1.144a.543.543,0,0,1,.308.132,1.436,1.436,0,0,1,.286,1.078,5.447,5.447,0,0,1-.517,2.2A1.3,1.3,0,0,1,305.206,1.672ZM288.134-9.57a.948.948,0,0,1-.528-.2q-.44-.308-.44-.594a.973.973,0,0,1,.352-.638,19.858,19.858,0,0,0,3.96-6.666q.22-.638.748-.638a1.045,1.045,0,0,1,.286.044q.638.154.638.616a5.973,5.973,0,0,1-.638,1.694h13.024a.622.622,0,0,1,.7.7.622.622,0,0,1-.7.7H291.852a23.209,23.209,0,0,1-3.08,4.642A.835.835,0,0,1,288.134-9.57Zm15.818-1.98H292.358a.613.613,0,0,1-.682-.7.6.6,0,0,1,.682-.682h11.594a.6.6,0,0,1,.682.682A.613.613,0,0,1,303.952-11.55ZM313.9.88a.928.928,0,0,1-.7-.4,38.025,38.025,0,0,0-3.52-3.542.85.85,0,0,1-.352-.616.963.963,0,0,1,.418-.7.978.978,0,0,1,.66-.308q.462,0,2.519,2.057t2.057,2.5a.912.912,0,0,1-.374.693A1.118,1.118,0,0,1,313.9.88ZM6.05,33.474a.638.638,0,0,1-.473-.22.63.63,0,0,1-.209-.418q0-.374.572-.77a6.917,6.917,0,0,0,2.552-4.4H6.358a.7.7,0,0,1,0-1.408H8.646V23.706h-1.1a10.393,10.393,0,0,1-.605,1.2.7.7,0,0,1-.561.407.737.737,0,0,1-.418-.154.674.674,0,0,1-.374-.55.8.8,0,0,1,.176-.462A12.3,12.3,0,0,0,7,21.176q.154-.572.616-.572.748.088.748.616a3.929,3.929,0,0,1-.286,1.122H11.66a.682.682,0,0,1,0,1.364H10.054v2.552h1.958a.7.7,0,0,1,0,1.408H9.922a2.354,2.354,0,0,1-.066.572q2.2,1.98,2.2,2.442a.806.806,0,0,1-.22.506q-.308.374-.528.374a.6.6,0,0,1-.462-.308,13.661,13.661,0,0,0-1.43-1.54,8.306,8.306,0,0,1-2.728,3.5A1.1,1.1,0,0,1,6.05,33.474Zm6.182-.066a.664.664,0,0,1-.462-.264.756.756,0,0,1-.242-.484.8.8,0,0,1,.2-.44A8.122,8.122,0,0,0,13,29.052a25.271,25.271,0,0,0,.4-4.18q.044-.748.638-.748t.594.572q0,.924-.2,2.838A6.669,6.669,0,0,0,16.1,30.922V22.5h-2.64a.632.632,0,0,1-.7-.726.622.622,0,0,1,.7-.7h6.094q1.144,0,1.144,1.056a2.039,2.039,0,0,1-.044.4,13.137,13.137,0,0,1-.462,1.8.386.386,0,0,1-.4.33.986.986,0,0,1-.264-.044q-.462-.132-.462-.506a2.3,2.3,0,0,1,.088-.418q.088-.462.154-.682l.022-.154q0-.352-.4-.352H17.49V26.06h2.486a.682.682,0,0,1,0,1.364H17.49v4.312a5.557,5.557,0,0,0,1.584.2H20.2q.77,0,.77.528a1.293,1.293,0,0,1-.044.308.781.781,0,0,1-.836.572h-1.1a5.2,5.2,0,0,1-2.816-.682,5.45,5.45,0,0,1-2.09-2.794,8.788,8.788,0,0,1-1.342,3.19A.8.8,0,0,1,12.232,33.408ZM2.178,31.56a1,1,0,0,1-.506-.176.708.708,0,0,1-.44-.616.9.9,0,0,1,.11-.4,55.168,55.168,0,0,0,2.4-5.456q.2-.506.55-.506a.893.893,0,0,1,.484.176.746.746,0,0,1,.4.616.884.884,0,0,1-.088.352Q2.772,31.56,2.178,31.56ZM18.106,20.714a.634.634,0,0,1-.44-.22,23.044,23.044,0,0,0-3.344-2.354.627.627,0,0,1-.4-.528.8.8,0,0,1,.231-.473.652.652,0,0,1,.495-.275,10.356,10.356,0,0,1,1.8.968,15.129,15.129,0,0,0,1.958-2.244H13.728a.6.6,0,0,1-.682-.682.6.6,0,0,1,.682-.682h5.456q1.034,0,1.034.726a1.815,1.815,0,0,1-.264.836,15.3,15.3,0,0,1-2.31,2.816q.484.352.968.748a.629.629,0,0,1,.264.484.788.788,0,0,1-.22.484Q18.348,20.714,18.106,20.714Zm-7.018-.286H8.426a2.574,2.574,0,0,1-1.672-.385,2.083,2.083,0,0,1-.418-1.529v-4.18a.642.642,0,0,1,.726-.726.642.642,0,0,1,.726.726v1.694a23.265,23.265,0,0,0,3.168-1.276.781.781,0,0,1,.352-.088.644.644,0,0,1,.528.3.908.908,0,0,1,.22.495q0,.616-4.268,1.782v1.276q0,.374.143.484a1.22,1.22,0,0,0,.649.11h2.354a.532.532,0,0,0,.528-.264q.176-1.122.7-1.122.638,0,.638.924a2,2,0,0,1-.55,1.474A1.874,1.874,0,0,1,11.088,20.428ZM4.62,19a.739.739,0,0,1-.55-.308,15.566,15.566,0,0,0-2.2-2.112.719.719,0,0,1-.352-.55.727.727,0,0,1,.286-.506.834.834,0,0,1,.55-.264.82.82,0,0,1,.484.176q2.684,2.156,2.684,2.684a.885.885,0,0,1-.308.561A.861.861,0,0,1,4.62,19ZM32.956,33.606a.7.7,0,0,1-.792-.792V26.83a15.133,15.133,0,0,1-2.42.814.8.8,0,0,1-.671-.341,1.039,1.039,0,0,1-.253-.561.527.527,0,0,1,.077-.231q.077-.143.627-.275a29.477,29.477,0,0,0,6.688-2.6.654.654,0,0,1,.33-.088.937.937,0,0,1,.418.11q.462.242.462.484,0,.418-2.354,1.452a12.39,12.39,0,0,0,1.474,2.31,28.014,28.014,0,0,0,3.674-2.684.73.73,0,0,1,.462-.176.976.976,0,0,1,.484.154q.418.264.418.55a.709.709,0,0,1-.352.528A36.164,36.164,0,0,1,37.4,28.832a12.3,12.3,0,0,0,4.334,2.816q.748.264.748.7a.98.98,0,0,1-.242.561.784.784,0,0,1-.66.319,1.6,1.6,0,0,1-.506-.088,14.033,14.033,0,0,1-7.26-6.974l-.066.022v6.622A.7.7,0,0,1,32.956,33.606Zm-8.69-.462a.951.951,0,0,1-.616-.264.89.89,0,0,1-.352-.572,1.492,1.492,0,0,1,.033-.209q.033-.165.561-.407A20.771,20.771,0,0,0,28.8,28.326a.8.8,0,0,1,.55-.22,1.081,1.081,0,0,1,.4.088q.528.22.528.528a.733.733,0,0,1-.264.484,27.469,27.469,0,0,1-5.28,3.806A.967.967,0,0,1,24.266,33.144Zm.2-5.214a.827.827,0,0,1-.528-.22.767.767,0,0,1-.352-.55q0-.308.55-.55a21.9,21.9,0,0,0,3.828-2.244.674.674,0,0,1,.462-.176.923.923,0,0,1,.374.088q.528.2.528.462,0,.33-2.222,1.76A9.772,9.772,0,0,1,24.464,27.93Zm7.26-3.674a.652.652,0,0,1-.748-.726v-.418l-.4.044q-6.512.594-6.754.594-.55,0-.55-.726,0-.506.55-.528.308,0,1.364-.088V15.9H24.112a.544.544,0,0,1-.616-.616.544.544,0,0,1,.616-.616h8.734a.967.967,0,0,1,.715.275,1.056,1.056,0,0,1,.275.781H40.59q1.056,0,1.056.858a2.152,2.152,0,0,1-.154.726A9.9,9.9,0,0,1,39.358,20.3q3.3,1.936,3.3,2.464a.894.894,0,0,1-.341.55.941.941,0,0,1-.583.33.744.744,0,0,1-.462-.2,29.109,29.109,0,0,0-3.058-2.112A16.548,16.548,0,0,1,34.32,23.6a.943.943,0,0,1-.33.066.72.72,0,0,1-.572-.3.868.868,0,0,1-.242-.5q0-.352.528-.55a13.437,13.437,0,0,0,3.19-1.8q-1.056-.638-2.134-1.166-.44-.22-.44-.506a.724.724,0,0,1,.275-.484.815.815,0,0,1,.561-.264.781.781,0,0,1,.352.088q1.694.858,2.574,1.364a11.569,11.569,0,0,0,1.936-2.486H34.672a1.072,1.072,0,0,1-.792-.308,1.16,1.16,0,0,1-.308-.858H32.45V23.53A.642.642,0,0,1,31.724,24.256ZM26.642,22.3l4.334-.352V20.692H26.642Zm4.334-2.64V18.316H26.642v1.342Zm0-2.4V15.9H26.642V17.26ZM58.938,33.54l-1.43-.022a1.088,1.088,0,0,1-1.144-.924.873.873,0,0,1-.11-.374q0-.374.616-.374h.154q1.408.088,2.376.088a1.378,1.378,0,0,0,1.012-.33,6.1,6.1,0,0,0,.946-2.992q.374-2.442.682-7.81a1.5,1.5,0,0,0-.088-.627.34.34,0,0,0-.33-.165H54.648a19.088,19.088,0,0,1-1.584,6.732,15.944,15.944,0,0,1-5.456,6.38,1.583,1.583,0,0,1-.924.33.847.847,0,0,1-.627-.231.694.694,0,0,1-.231-.495q0-.55.836-1.1A14.415,14.415,0,0,0,51.5,25.95a17.313,17.313,0,0,0,1.474-5.94h-6.16A.719.719,0,0,1,46,19.2a.719.719,0,0,1,.814-.814h6.248V14.466a.836.836,0,1,1,1.672,0v3.916H62.5q1.188,0,1.188,1.958l-.022.55q-.352,5.9-.748,8.448a7.185,7.185,0,0,1-1.056,3.3,2.1,2.1,0,0,1-.814.638A5.807,5.807,0,0,1,58.938,33.54Zm18.348.154a.729.729,0,0,1-.836-.814V27.908H71.544a.408.408,0,0,0-.462.462v3.52a.814.814,0,1,1-1.628,0v-4.2a1.209,1.209,0,0,1,1.276-1.276h5.72v-1.8H72.688a1.209,1.209,0,0,1-1.276-1.276V21.264a1.209,1.209,0,0,1,1.276-1.276h8.8a1.209,1.209,0,0,1,1.276,1.276v2.068a1.209,1.209,0,0,1-1.276,1.276H78.1v1.8h5.39a1.209,1.209,0,0,1,1.276,1.276V31.01a2.309,2.309,0,0,1-.176,1.023,1.132,1.132,0,0,1-.66.517,7.842,7.842,0,0,1-2.508.264q-1.232,0-1.232-.88,0-.594,1.012-.594l.99.022a2.056,2.056,0,0,0,.825-.088.33.33,0,0,0,.121-.286V28.37a.408.408,0,0,0-.462-.462H78.1V32.88A.719.719,0,0,1,77.286,33.694ZM80.7,23.376a.408.408,0,0,0,.462-.462V21.682a.408.408,0,0,0-.462-.462H73.414a.408.408,0,0,0-.462.462v1.232a.408.408,0,0,0,.462.462Zm4.62-1.672a.7.7,0,0,1-.792-.792V18.888a.408.408,0,0,0-.462-.462H70.048a.408.408,0,0,0-.462.462v2.046a.77.77,0,0,1-1.54,0V18.272A1.209,1.209,0,0,1,69.322,17h2.222A13.124,13.124,0,0,0,70.4,15.17a.892.892,0,0,1-.22-.528q0-.374.528-.594a.923.923,0,0,1,.374-.088.772.772,0,0,1,.594.308q.506.616.88,1.144a1.077,1.077,0,0,1,.154.55,1.57,1.57,0,0,1-.1.429q-.1.3-.847.6h4.554V14.4a.729.729,0,0,1,.836-.814.719.719,0,0,1,.814.814V17h6.864a1.209,1.209,0,0,1,1.276,1.276v2.64A.7.7,0,0,1,85.316,21.7Zm-3.3-4.84a.923.923,0,0,1-.374-.088q-.484-.22-.484-.528a.682.682,0,0,1,.176-.418q.33-.462.946-1.386a.819.819,0,0,1,.748-.484,1.184,1.184,0,0,1,.374.066q.55.2.55.572a1,1,0,0,1-.242.583q-.242.319-.484.6Q82.39,16.864,82.016,16.864Zm17.4,16.808q-1.232,0-1.232-.88a.543.543,0,0,1,.264-.451,1.281,1.281,0,0,1,.748-.187h1.826a.77.77,0,0,0,.385-.1.394.394,0,0,0,.1-.319v-4.07h-5.3a.77.77,0,0,1,0-1.54h5.3V24.674q0-.572.638-.572a14.517,14.517,0,0,0,2.574-2.134H98.01a.652.652,0,0,1-.726-.748.642.642,0,0,1,.726-.726h7.854q.968,0,.968.638a1.671,1.671,0,0,1-.33.858A14.529,14.529,0,0,1,103.114,25v1.122h4.994a.77.77,0,1,1,0,1.54h-4.994v4.092a2.415,2.415,0,0,1-.2,1.1,1.279,1.279,0,0,1-.7.572A13.586,13.586,0,0,1,99.418,33.672Zm-6.336-.044a.71.71,0,0,1-.814-.792V25q-1.76,1.914-2.332,1.914a.754.754,0,0,1-.638-.462.976.976,0,0,1-.154-.484.936.936,0,0,1,.44-.748,19.76,19.76,0,0,0,5.324-7.194H90.332a.7.7,0,0,1-.792-.792.7.7,0,0,1,.792-.792H95.59q.484-1.364.682-2.024t.748-.66a1.364,1.364,0,0,1,.33.044q.66.176.66.7a8.176,8.176,0,0,1-.616,1.936h10.3a.7.7,0,0,1,.792.792.7.7,0,0,1-.792.792H96.734a25.1,25.1,0,0,1-2.86,5.038v9.768A.7.7,0,0,1,93.082,33.628Zm21.428-.286a3.355,3.355,0,0,1,0-6.71,3.355,3.355,0,1,1,0,6.71Zm0-1.122a2.132,2.132,0,0,0,1.584-.649,2.187,2.187,0,0,0,.638-1.595,2.222,2.222,0,0,0-4.444,0,2.2,2.2,0,0,0,.638,1.584A2.114,2.114,0,0,0,114.51,32.22Z" transform="translate(408 3138)" fill="#fff"/>
      <rect id="矩形_328" data-name="矩形 328" width="48" height="6" transform="translate(408 3092)" fill="#fff"/>
    </g>
  </g>
</svg>
