<svg xmlns="http://www.w3.org/2000/svg" width="380" height="230" viewBox="0 0 380 230">
  <g id="组_5170" data-name="组 5170" transform="translate(-360 -2991)">
    <rect id="矩形_304" data-name="矩形 304" width="380" height="230" transform="translate(360 2991)" fill="#ffaf0e"/>
    <g id="组_5167" data-name="组 5167" transform="translate(-1 3)">
      <path id="路径_24144" data-name="路径 24144" d="M30.06,2.988q-3.852,0-6.408-6.228A37.208,37.208,0,0,1,18.072.792a2.275,2.275,0,0,1-1.332.36A1.832,1.832,0,0,1,15.624.468q-.72-.828-.54-1.422a2.224,2.224,0,0,1,1.188-1.134,36.972,36.972,0,0,0,6.3-4.5,58.641,58.641,0,0,1-1.908-10.08H12.78v5.04l4.428-.864q1.584-.324,1.692,1.3A1.394,1.394,0,0,1,17.712-9.54q-3.1.756-4.932,1.116V-1.26a5.523,5.523,0,0,1-.378,2.3,2.429,2.429,0,0,1-1.314,1.188,12.363,12.363,0,0,1-4.068.612Q5,2.916,4.5,1.548,4.1.468,4.788-.036a3.269,3.269,0,0,1,1.944-.4Q8.28-.432,8.6-.468a1.114,1.114,0,0,0,.648-.2.781.781,0,0,0,.18-.594V-7.668Q7.848-7.344,4.9-6.7q-.54.108-.828.18a1.527,1.527,0,0,1-1.944-1.26,2.161,2.161,0,0,1-.036-1.4A1.4,1.4,0,0,1,3.2-9.828Q6.48-10.4,9.432-10.98v-5.688H3.816a1.4,1.4,0,0,1-1.584-1.584,1.4,1.4,0,0,1,1.584-1.584H9.432V-24.8q-1.44.252-4.212.648-.4.036-.576.072A1.508,1.508,0,0,1,2.88-25.092q-.612-1.584,1.26-1.872a95.445,95.445,0,0,0,11.124-2.484,1.636,1.636,0,0,1,1.116-.036,3.186,3.186,0,0,1,.864.756q.72.9.576,1.458t-1.224.882q-2.124.576-3.816.9v5.652h7.56q-.288-3.2-.432-8.28A1.492,1.492,0,0,1,21.6-29.88q1.728,0,1.728,1.8,0,4.5.36,8.244h8.568a1.4,1.4,0,0,1,1.584,1.584,1.4,1.4,0,0,1-1.584,1.584H24.048a64.187,64.187,0,0,0,1.3,7.308,36.765,36.765,0,0,0,3.348-4.572,1.482,1.482,0,0,1,2.124-.684,1.306,1.306,0,0,1,.72,2.088A37.839,37.839,0,0,1,26.352-5.8Q28.188-.432,30.384-.432q.9,0,1.224-3.132a4.2,4.2,0,0,1,.54-2.16q.36-.36,1.116.252,1.332.684,1.008,3.456a8.236,8.236,0,0,1-1.44,3.96A3.532,3.532,0,0,1,30.06,2.988Zm1.872-25.416a2.088,2.088,0,0,1-1.26.5,1.278,1.278,0,0,1-1.008-.72,30.811,30.811,0,0,0-3.168-3.6q-1.332-1.26.144-2.268a1.493,1.493,0,0,1,1.944.072q1.008.936,2.2,2.16,1.116,1.188,1.548,1.764Q33.228-23.364,31.932-22.428Zm10.8,25.272A1.384,1.384,0,0,1,41.148,1.3V-15.228a3.2,3.2,0,0,0-.18.324q-.216.36-.324.5-.792,1.116-1.4,1.116-.612-.036-1.188-1.224a2.7,2.7,0,0,1-.288-1.26,2.3,2.3,0,0,1,.468-1.152,42.311,42.311,0,0,0,5.256-11.448A1.471,1.471,0,0,1,45.5-29.556a1.367,1.367,0,0,1,1.08,1.944q-1.152,3.456-2.3,6.192V1.3A1.368,1.368,0,0,1,42.732,2.844Zm6.876,0a1.432,1.432,0,0,1-1.62-1.62V-21.1a1.432,1.432,0,0,1,1.62-1.62,1.432,1.432,0,0,1,1.62,1.62V1.224A1.432,1.432,0,0,1,49.608,2.844ZM63.72,2.736q-2.016.072-2.448-1.224Q60.66-.36,63.4-.288q.468,0,1.188-.036h.4a.7.7,0,0,0,.792-.792v-23.94a.764.764,0,0,0-.864-.864H58.14a1.336,1.336,0,0,1-1.512-1.512,1.336,1.336,0,0,1,1.512-1.512h8.568A2.288,2.288,0,0,1,68.4-28.3a2.288,2.288,0,0,1,.648,1.692V-1.08a5.054,5.054,0,0,1-.36,2.124A2.247,2.247,0,0,1,67.464,2.16,10.412,10.412,0,0,1,63.72,2.736Zm-8.64-25.38A1.736,1.736,0,0,1,53.8-22.3a1.437,1.437,0,0,1-.882-.882q-.216-.432-.756-1.368a4.937,4.937,0,0,1-.36-.576q-.18-.252-.5-.828-.612-1.008-.936-1.512a1.239,1.239,0,0,1,.5-2.052,1.328,1.328,0,0,1,1.944.432q1.728,2.448,2.952,4.608a1.215,1.215,0,0,1,.144,1.044A2.027,2.027,0,0,1,55.08-22.644ZM80.5,2.772A1.464,1.464,0,0,1,78.84,1.116V-10.62q-1.368,1.3-2.088,1.908-1.62,1.224-2.484-.468a1.741,1.741,0,0,1,.612-2.448,30.211,30.211,0,0,0,7.776-10.116H76.032a1.416,1.416,0,0,1-1.584-1.62,1.4,1.4,0,0,1,1.584-1.584H84.1a31.921,31.921,0,0,0,1.26-3.636,1.576,1.576,0,0,1,2.16-1.224,1.452,1.452,0,0,1,1.188,2.16q-.288.9-.936,2.7H104a1.4,1.4,0,0,1,1.584,1.584A1.416,1.416,0,0,1,104-21.744H86.4a46.121,46.121,0,0,1-4.248,7.236V1.116A1.464,1.464,0,0,1,80.5,2.772Zm5.328-.792A1.368,1.368,0,0,1,84.276.432a1.384,1.384,0,0,1,1.548-1.584H93.24V-10.44H87.156a1.368,1.368,0,0,1-1.548-1.548,1.368,1.368,0,0,1,1.548-1.548H93.24V-18.36a1.48,1.48,0,0,1,1.692-1.656,1.464,1.464,0,0,1,1.656,1.656v4.824h6.048a1.368,1.368,0,0,1,1.548,1.548,1.368,1.368,0,0,1-1.548,1.548H96.588v9.288H104A1.384,1.384,0,0,1,105.552.432,1.368,1.368,0,0,1,104,1.98H85.824ZM112.788,1.3q-1.116,1.656-2.376.576-1.152-.936-.144-2.484a23.758,23.758,0,0,0,2.952-8.064,44.16,44.16,0,0,0,.576-7.632v-5.148h-2.34a1.384,1.384,0,0,1-1.548-1.584,1.368,1.368,0,0,1,1.548-1.548h4.284v-4a1.4,1.4,0,0,1,1.584-1.584,1.4,1.4,0,0,1,1.584,1.584v4h3.528a1.921,1.921,0,0,1,1.422.522,1.922,1.922,0,0,1,.522,1.422v.108q0,.864.468.18a26.015,26.015,0,0,0,2.772-6.228,1.585,1.585,0,0,1,2.052-1.332,1.423,1.423,0,0,1,1.224,2.052,4.416,4.416,0,0,1-.144.432q-.432,1.188-.648,1.764h10.152A1.368,1.368,0,0,1,141.8-24.12a1.368,1.368,0,0,1-1.548,1.548h-11.52a22.916,22.916,0,0,1-2.556,4.1,1.454,1.454,0,0,1-2.3.288q-1.476-1.152-.108-2.628.072-.108.234-.324t.234-.324h-7.488v4.14H121a1.737,1.737,0,0,1,1.656.936,7.632,7.632,0,0,1,.576,3.636q-.18,7.38-.4,10.224a9.52,9.52,0,0,1-.864,3.816,2.934,2.934,0,0,1-2.16,1.3,16.471,16.471,0,0,1-2.124.108q-1.584-.072-1.908-1.188-.5-1.8,1.908-1.692h.54a1.185,1.185,0,0,0,1.08-.5,8.8,8.8,0,0,0,.558-3.114q.2-2.574.342-8.73a2.975,2.975,0,0,0-.18-1.4.676.676,0,0,0-.648-.324h-2.664Q116.424-4.608,112.788,1.3Zm15.876,1.512A1.384,1.384,0,0,1,127.08,1.26V-13.284a2.088,2.088,0,0,1-2.448-.972q-.36-.54,1.692-1.656,1.26-.72,4.9-2.3a68.142,68.142,0,0,0,6.228-3.024,1.516,1.516,0,0,1,1.908.144,1.8,1.8,0,0,1,.774,1.026q.054.45-.666.954a37.09,37.09,0,0,1-4.608,2.628,35.98,35.98,0,0,0,1.008,5.04,43.6,43.6,0,0,0,3.456-3.132,1.34,1.34,0,0,1,2.124,0,1.267,1.267,0,0,1,0,2.124q-2.016,1.8-4.716,3.78a18.5,18.5,0,0,0,4.536,7.416,2.146,2.146,0,0,1,.918,1.242,1.865,1.865,0,0,1-.558,1.386,1.884,1.884,0,0,1-1.134.81,1.782,1.782,0,0,1-1.242-.558Q134.1-3.2,132.12-15.228q-.9.4-1.908.792V1.26A1.368,1.368,0,0,1,128.664,2.808Zm34.92-5.292q-1.728,0-2.088-1.188-.5-1.62,1.728-1.548.252,0,.648-.036h.288a.625.625,0,0,0,.432-.108A.625.625,0,0,0,164.7-5.8v-7.272h-7.524a1.225,1.225,0,0,1-1.368-1.4,1.209,1.209,0,0,1,1.368-1.368H164.7v-2.7h-2.556a2.263,2.263,0,0,1-1.674-.63,2.263,2.263,0,0,1-.63-1.674v-.288a25.722,25.722,0,0,1-2.484,1.584,1.517,1.517,0,0,1-2.3-.54q-.9-1.476.828-2.376a26.192,26.192,0,0,0,7.74-6.552,2.494,2.494,0,0,1,.99-.792,3.057,3.057,0,0,1,1.35-.324h.252a2.839,2.839,0,0,1,2.3,1.044,28.864,28.864,0,0,0,8.1,6.336,2.1,2.1,0,0,1,1.206,1.044,1.817,1.817,0,0,1-.342,1.476,1.742,1.742,0,0,1-1.044.882,2.049,2.049,0,0,1-1.4-.342q-.18-.108-.5-.324-1.08-.648-1.62-1.044v1.368a1.018,1.018,0,0,1-1.152,1.152H167.94v2.7h8.1a1.209,1.209,0,0,1,1.368,1.368,1.225,1.225,0,0,1-1.368,1.4h-8.1v7.344a4.384,4.384,0,0,1-.288,1.8,2.041,2.041,0,0,1-1.044,1.008A9.613,9.613,0,0,1,163.584-2.484ZM158.04-4.9a1.5,1.5,0,0,1-2.052.216q-.756-.54-.756-1.08a1.749,1.749,0,0,1,.72-1.188,18.41,18.41,0,0,0,2.664-3.672,1.467,1.467,0,0,1,1.836-.864q1.62.36.9,1.872a24.905,24.905,0,0,1-1.512,2.448A21.9,21.9,0,0,1,158.04-4.9Zm18,.144a1.425,1.425,0,0,1-2.124-.576q-.648-1.08-1.26-1.944-.612-.936-1.548-2.124-1.08-1.332.468-2.016a1.421,1.421,0,0,1,1.836.36,32.718,32.718,0,0,1,3.348,4.464,1.214,1.214,0,0,1,.18,1.062A1.8,1.8,0,0,1,176.04-4.752ZM160.02-21.276h12.564a28.913,28.913,0,0,1-6.408-5.9A27.446,27.446,0,0,1,160.02-21.276Zm5.4,23.76a34.511,34.511,0,0,1-5.868-.4A12.222,12.222,0,0,1,155.2.5q-.54-.36-1.548-1.08a4.8,4.8,0,0,0-1.98-1.116q-.864,0-2.412,2.088a3.168,3.168,0,0,1-1.584,1.368,1.387,1.387,0,0,1-1.62-.648q-1.008-1.368.4-2.88A11.478,11.478,0,0,1,150.084-4.5v-9.576a.764.764,0,0,0-.864-.864h-1.872a1.448,1.448,0,0,1-1.62-1.656,1.432,1.432,0,0,1,1.62-1.62H151.6a1.776,1.776,0,0,1,1.314.486,1.776,1.776,0,0,1,.486,1.314V-4.248q.288.18,1.008.684.9.648,1.476,1.008a10.265,10.265,0,0,0,4.14,1.4,36.523,36.523,0,0,0,5.508.324A105.5,105.5,0,0,0,176.58-1.4q1.26-.144,1.62.288t.036,1.692a2.652,2.652,0,0,1-.5,1.188,1.6,1.6,0,0,1-1.152.4Q171.216,2.484,165.42,2.484Zm-12.672-24.66a2.076,2.076,0,0,1-1.314.54,1.593,1.593,0,0,1-1.1-.756q-.576-.792-1.368-1.692-.792-.936-1.728-1.944a1.312,1.312,0,0,1,.18-2.268,1.523,1.523,0,0,1,2.16.144q2.124,2.088,3.6,3.852a1.234,1.234,0,0,1,.36,1.116A2.013,2.013,0,0,1,152.748-22.176Z" transform="translate(408 3068)" fill="#fff"/>
      <path id="路径_24145" data-name="路径 24145" d="M14.168,1.694q-.418,0-.814-.022-1.1-.066-1.1-.638,0-.594.924-.594h.814q.594-.022.869-.022a.708.708,0,0,0,.528-.3,2.8,2.8,0,0,0,.429-1.177V-1.1q0-.066-11.33-.088-1.034,0-1.034-.88,0-.132.638-4a10.711,10.711,0,0,0-1.936-.066q-1.144,0-1.144-.748t1.144-.748H4.18a.16.16,0,0,0,.176-.154L4.818-11.4A1.114,1.114,0,0,1,6.05-12.5H16.94q1.122,0,1.122,1.078L17.93-7.744a.1.1,0,0,0,.11.11h1.826q1.144,0,1.144.748t-1.144.748H18.018a.117.117,0,0,0-.132.132l-.264,3.278a.1.1,0,0,0,.11.11h1.386q1.144,0,1.144.726t-1.144.726H17.6a.16.16,0,0,0-.176.154A8.73,8.73,0,0,1,17.138.374a2.178,2.178,0,0,1-.7.968A4.826,4.826,0,0,1,14.168,1.694Zm1.716-4.312a.117.117,0,0,0,.132-.132l.264-3.322a.1.1,0,0,0-.11-.11H5.9a.16.16,0,0,0-.176.154L5.214-2.684Q5.214-2.618,15.884-2.618Zm.33-4.972a.117.117,0,0,0,.132-.132l.132-3.212a.1.1,0,0,0-.11-.11H6.556a.16.16,0,0,0-.176.154L5.94-7.656Q5.94-7.59,16.214-7.59ZM2.244-10.45a.722.722,0,0,1-.528-.253.751.751,0,0,1-.242-.517A1.244,1.244,0,0,1,2-12.078a17.627,17.627,0,0,0,1.782-2.365,18.18,18.18,0,0,0,1.8-3.113q.352-.814.88-.814a.742.742,0,0,1,.33.088.7.7,0,0,1,.44.66,1.748,1.748,0,0,1-.2.726l-.308.638q0,.066,12.386.066,1.144,0,1.144.726,0,.748-1.144.748H6.138a.474.474,0,0,0-.418.242Q3.234-10.45,2.244-10.45ZM12.276-2.728a1.437,1.437,0,0,1-.9-.462A9.342,9.342,0,0,0,9.24-4.664q-.792-.418-.792-.836a.548.548,0,0,1,.066-.242A.485.485,0,0,1,9-6.028a1.91,1.91,0,0,1,.814.242q.33.154,1.518.924a11.19,11.19,0,0,1,1.518,1.1.422.422,0,0,1,.132.308.869.869,0,0,1-.286.55A.571.571,0,0,1,12.276-2.728Zm.242-5.016a.671.671,0,0,1-.418-.231,11.92,11.92,0,0,0-1.342-.935A12.635,12.635,0,0,0,9.24-9.79a.382.382,0,0,1-.264-.374q0-.66.616-.66a2.048,2.048,0,0,1,.77.2q.242.11,1.375.792a12.778,12.778,0,0,1,1.463.968.333.333,0,0,1,.132.264.869.869,0,0,1-.286.55A.779.779,0,0,1,12.518-7.744ZM34.1,1.694A.719.719,0,0,1,33.286.88V-3.344H24a.7.7,0,0,1-.792-.792A.7.7,0,0,1,24-4.928H26.8v-4.62a1.249,1.249,0,0,1,.352-.924,1.249,1.249,0,0,1,.924-.352h5.214v-3.344h-5.3a19.646,19.646,0,0,1-2.772,3.806.887.887,0,0,1-.616.308.827.827,0,0,1-.528-.22.836.836,0,0,1-.418-.638A.973.973,0,0,1,24-11.55,18.416,18.416,0,0,0,27.9-17.688a.8.8,0,0,1,.77-.638,1.046,1.046,0,0,1,.286.044q.638.132.638.616a6.5,6.5,0,0,1-.77,1.914H41.008a.7.7,0,0,1,.792.792.7.7,0,0,1-.792.792H34.914v3.344h5.61a.681.681,0,0,1,.77.77.681.681,0,0,1-.77.77h-5.61v4.356H42.02a.7.7,0,0,1,.792.792.7.7,0,0,1-.792.792H34.914V.88A.719.719,0,0,1,34.1,1.694Zm-.814-6.622V-9.284H28.864a.408.408,0,0,0-.462.462v3.894Zm30.756-2.75h-18a.788.788,0,0,1-.88-.9.778.778,0,0,1,.88-.88h18a.778.778,0,0,1,.88.88A.788.788,0,0,1,64.042-7.678Zm7.986,9.086a.756.756,0,0,1-.638-.286A.585.585,0,0,1,71.258.77a.744.744,0,0,1,.2-.462,1.986,1.986,0,0,1,.836-.638,11.585,11.585,0,0,0,5.1-5.236,10.219,10.219,0,0,0,1.144-4.51v-2.772H75.9a22.011,22.011,0,0,1-1.936,3.762q-.33.462-.66.462a1.05,1.05,0,0,1-.55-.2q-.528-.308-.528-.638a1.073,1.073,0,0,1,.264-.594,21.938,21.938,0,0,0,3.146-7.414q.2-.748.792-.748.924.088.924.726a1.364,1.364,0,0,1-.044.33q-.4,1.54-.814,2.684H85.36q1.1,0,1.1.99a2.33,2.33,0,0,1-.088.594A23.888,23.888,0,0,1,84.634-8.58a.5.5,0,0,1-.418.308,1.325,1.325,0,0,1-.462-.132Q83.226-8.69,83.226-9a.873.873,0,0,1,.11-.374A21.311,21.311,0,0,0,84.7-12.848H80.234v2.86a10.689,10.689,0,0,0,1.012,4.312A11.04,11.04,0,0,0,85.778-.484q.9.462.9,1.144a.613.613,0,0,1-.132.374.842.842,0,0,1-.726.33,1.432,1.432,0,0,1-.682-.176,12.075,12.075,0,0,1-4.224-4.246,11.032,11.032,0,0,1-1.54-3.96,10.34,10.34,0,0,1-1.738,3.96A13.1,13.1,0,0,1,72.8,1.21,1.717,1.717,0,0,1,72.028,1.408Zm-3.916-3.19a.831.831,0,0,1-.616-.4.973.973,0,0,1-.242-.594.715.715,0,0,1,.242-.506q2.64-2.64,3.916-4a.858.858,0,0,1,.572-.308q.308,0,.594.44a.918.918,0,0,1,.176.506.872.872,0,0,1-.264.594Q68.53-1.782,68.112-1.782Zm3.52-10.934a.872.872,0,0,1-.594-.308q-.594-.594-1.144-1.056a.626.626,0,0,1-.132-.11L68.4-15.268a.726.726,0,0,1-.374-.572.858.858,0,0,1,.308-.572.887.887,0,0,1,.616-.308.82.82,0,0,1,.484.176q3.146,2.288,3.146,2.816a.984.984,0,0,1-.319.649A.992.992,0,0,1,71.632-12.716ZM103.906,1.3l-1.144-.022A1.082,1.082,0,0,1,101.64.4a.873.873,0,0,1-.11-.374q0-.33.594-.33.066,0,.605.033t1.749.033a1.092,1.092,0,0,0,.9-.33q.528-.55.814-3.212t.484-8.822a1.49,1.49,0,0,0-.1-.671.365.365,0,0,0-.341-.165h-5.06Q99.638-9.856,99-9.856a1.03,1.03,0,0,1-.528-.2.782.782,0,0,1-.418-.616.737.737,0,0,1,.154-.418,23.057,23.057,0,0,0,2.728-6.578q.154-.682.7-.682a.986.986,0,0,1,.264.044q.616.154.616.66a1.045,1.045,0,0,1-.044.286,22.271,22.271,0,0,1-.726,2.4h5.742a.69.69,0,0,1,.77.792Q108-6.38,107.712-3.52q-.33,3.1-.946,3.883a2.4,2.4,0,0,1-1.738.891Q104.566,1.3,103.906,1.3ZM96.338-.616H91.344a1.249,1.249,0,0,1-.924-.352,1.249,1.249,0,0,1-.352-.924V-13.618a1.249,1.249,0,0,1,.352-.924,1.249,1.249,0,0,1,.924-.352H92.51q.462-1.474.726-2.728.132-.7.748-.7.924,0,.924.682a14.432,14.432,0,0,1-.924,2.75h2.354a1.249,1.249,0,0,1,.924.352,1.249,1.249,0,0,1,.352.924V-1.892a1.249,1.249,0,0,1-.352.924A1.249,1.249,0,0,1,96.338-.616ZM95.656-2.09a.408.408,0,0,0,.462-.462V-7.37H91.542v4.818A.408.408,0,0,0,92-2.09Zm7.964-2.376a.593.593,0,0,1-.528-.374q-.858-1.518-2.354-3.652a1.351,1.351,0,0,1-.33-.638.674.674,0,0,1,.4-.55.935.935,0,0,1,.44-.132.655.655,0,0,1,.55.308q2.838,3.718,2.838,4.268,0,.264-.462.572A1.05,1.05,0,0,1,103.62-4.466Zm-7.5-4.356v-4.136a.408.408,0,0,0-.462-.462H92a.408.408,0,0,0-.462.462v4.136ZM116.094,1.584h-.4a.958.958,0,0,1-1.012-.792.742.742,0,0,1-.088-.33q0-.308.528-.308l1.3.044a.781.781,0,0,0,.693-.341,6.04,6.04,0,0,0,.374-2.079q.143-1.738.231-5.94a1.49,1.49,0,0,0-.1-.671A.365.365,0,0,0,117.282-9H115.1A19.771,19.771,0,0,1,112.552.924a.9.9,0,0,1-.7.484.828.828,0,0,1-.506-.209.657.657,0,0,1-.264-.539A1.263,1.263,0,0,1,111.32,0a15.559,15.559,0,0,0,1.98-5.324,29.18,29.18,0,0,0,.374-5.016v-3.014h-1.738a.661.661,0,0,1-.748-.748.661.661,0,0,1,.748-.748h3.036V-17.6a.681.681,0,0,1,.77-.77.681.681,0,0,1,.77.77v2.75h2.728a.661.661,0,0,1,.748.748.661.661,0,0,1-.748.748h-4.114v2.882H118.6a.593.593,0,0,1,.66.682q-.132,5.852-.286,7.832a6.83,6.83,0,0,1-.594,2.849,1.588,1.588,0,0,1-1.232.649Q116.688,1.584,116.094,1.584Zm6.446.088a.681.681,0,0,1-.77-.77V-8.536a5.722,5.722,0,0,1-.858.2.808.808,0,0,1-.693-.352,1.088,1.088,0,0,1-.253-.572.594.594,0,0,1,.077-.242q.077-.154.627-.286a32.577,32.577,0,0,0,4.158-1.452,18.574,18.574,0,0,0,3.5-1.826.585.585,0,0,1,.352-.132.853.853,0,0,1,.506.2q.374.264.374.506,0,.55-3.476,2.222A29.716,29.716,0,0,0,126.83-6.8a29.112,29.112,0,0,0,2.64-2.288.7.7,0,0,1,.484-.242.85.85,0,0,1,.55.253.723.723,0,0,1,.286.539q0,.55-3.542,3.1a12.324,12.324,0,0,0,3.146,5.126q.484.352.484.682a1.068,1.068,0,0,1-.3.627.794.794,0,0,1-.561.363,1.065,1.065,0,0,1-.572-.264q-3.432-3.014-4.686-10.78-.726.33-1.452.594V.9A.681.681,0,0,1,122.54,1.672Zm-2.354-12.628a1,1,0,0,1-.572-.22.9.9,0,0,1-.4-.66.869.869,0,0,1,.286-.55,14.472,14.472,0,0,0,2.684-5.214q.2-.682.77-.682.88,0,.88.66a10.657,10.657,0,0,1-.7,2.134h6.754a.661.661,0,0,1,.748.748.661.661,0,0,1-.748.748H122.43a15.8,15.8,0,0,1-1.672,2.684A.881.881,0,0,1,120.186-10.956Zm26.84,12.65q-1.166,0-1.166-.858,0-.594.979-.594T147.994.22q.4,0,.4-.352v-4.8h-2.552a.642.642,0,0,1-.726-.726.642.642,0,0,1,.726-.726h2.552v-1.5q0-.594.66-.594a11.454,11.454,0,0,0,1.43-1.65h-3.014a1.249,1.249,0,0,1-.924-.352,1.249,1.249,0,0,1-.352-.924l-.022-.044a.571.571,0,0,1-.484.308.817.817,0,0,1-.418-.132q-.528-.33-.528-.7a.764.764,0,0,1,.154-.44,17,17,0,0,0,1.87-5.126q.11-.726.726-.726.858,0,.858.682a9.741,9.741,0,0,1-.484,2.09H152.2a.681.681,0,0,1,.77.77.681.681,0,0,1-.77.77h-4.862a19.236,19.236,0,0,1-1.1,2.4h5.038q1.012,0,1.012.7a1.942,1.942,0,0,1-.264.858,12.645,12.645,0,0,1-2.134,2.552V-6.38h2.376a.642.642,0,0,1,.726.726.642.642,0,0,1-.726.726h-2.376V-.11A2.457,2.457,0,0,1,149.721.9a1.067,1.067,0,0,1-.627.528A7.32,7.32,0,0,1,147.026,1.694Zm-5.83-.022a.892.892,0,0,1-.99-.814.583.583,0,0,1-.088-.286q0-.352.616-.352.528.022,1.166.022a.665.665,0,0,0,.616-.286,5.534,5.534,0,0,0,.418-2.068q.154-1.694.264-5.742a1.49,1.49,0,0,0-.1-.671.365.365,0,0,0-.341-.165h-1.694q-.616,6.754-2.882,9.724a.839.839,0,0,1-.594.352.756.756,0,0,1-.484-.242.89.89,0,0,1-.352-.572.887.887,0,0,1,.264-.528,13.282,13.282,0,0,0,2.244-5.962,60.963,60.963,0,0,0,.506-7.414h-1.254a.681.681,0,0,1-.77-.77.681.681,0,0,1,.77-.77h2.42v-2.75a.681.681,0,0,1,.77-.77.681.681,0,0,1,.77.77v2.75h2.112a.681.681,0,0,1,.77.77.681.681,0,0,1-.77.77h-3.3L141.24-12.3q-.044,1.386-.088,2.09h2.288a.973.973,0,0,1,.924.528,4.357,4.357,0,0,1,.286,1.892q-.11,4.554-.286,6.391a5.639,5.639,0,0,1-.528,2.321,1.724,1.724,0,0,1-1.3.7A12.729,12.729,0,0,1,141.2,1.672ZM134.574,1.1a1.1,1.1,0,0,1-.506-.154q-.484-.264-.484-.638a.923.923,0,0,1,.088-.374q1.386-3.256,2.156-5.588.176-.55.528-.55a.927.927,0,0,1,.506.2.77.77,0,0,1,.418.66,1.045,1.045,0,0,1-.044.286Q135.278,1.1,134.574,1.1Zm1.87-10.362a.832.832,0,0,1-.484-.2,19.228,19.228,0,0,0-2.178-1.3q-.462-.2-.462-.55a.943.943,0,0,1,.231-.528.7.7,0,0,1,.583-.308,1,1,0,0,1,.352.066q2.838,1.3,2.838,1.87a1.008,1.008,0,0,1-.242.528A.836.836,0,0,1,136.444-9.262Zm.748-5.72a1.4,1.4,0,0,1-.682-.352,19.573,19.573,0,0,0-1.892-1.276q-.418-.22-.418-.528a.874.874,0,0,1,.253-.539.732.732,0,0,1,.561-.3.923.923,0,0,1,.374.088q2.64,1.408,2.64,2a.892.892,0,0,1-.22.528A.839.839,0,0,1,137.192-14.982ZM168.586,1.694a.739.739,0,0,1-.836-.836V-9.482h-4.73a.729.729,0,0,1-.814-.836.719.719,0,0,1,.814-.814h4.73V-17.49a.739.739,0,0,1,.836-.836.739.739,0,0,1,.836.836v6.358h4.686a.719.719,0,0,1,.814.814.729.729,0,0,1-.814.836h-4.686V.858A.739.739,0,0,1,168.586,1.694Zm-9.966-.638-.044-.022A1.072,1.072,0,0,1,158.037.5a1.512,1.512,0,0,1-.187-.561.79.79,0,0,1,.242-.616,2.047,2.047,0,0,0,.528-1.364V-9.46a.408.408,0,0,0-.462-.462H156a.71.71,0,0,1-.792-.814.7.7,0,0,1,.792-.792h3.058a1.174,1.174,0,0,1,.869.319,1.174,1.174,0,0,1,.319.869V-2.2l1.914-1.3a1,1,0,0,1,.506-.176q.462,0,.572.638a1.15,1.15,0,0,1-.3.627,3.168,3.168,0,0,1-.627.627Q159.06.594,158.62,1.056Zm1.958-14.894a.715.715,0,0,1-.528-.33,26.792,26.792,0,0,0-2.332-2.31.692.692,0,0,1-.264-.506.8.8,0,0,1,.264-.539.749.749,0,0,1,.528-.275.684.684,0,0,1,.462.2q2.772,2.376,2.772,2.838a1,1,0,0,1-.308.572A.838.838,0,0,1,160.578-13.838Zm31.834,15.51a1.749,1.749,0,0,1-.748-.154.782.782,0,0,1-.572-.77q0-.66,1.1-.66,1.386,0,1.628-.022.528,0,.528-.506V-17.358a.7.7,0,0,1,.792-.792.69.69,0,0,1,.792.77V-.462a2.7,2.7,0,0,1-.209,1.2,1.289,1.289,0,0,1-.715.605A8.413,8.413,0,0,1,192.412,1.672Zm-5.852-.066q-2.2,0-3.828-3.982A22.28,22.28,0,0,1,178.86.792a.972.972,0,0,1-.55.2.826.826,0,0,1-.616-.319.92.92,0,0,1-.286-.583q0-.374.528-.66A20.2,20.2,0,0,0,182.116-4a40.939,40.939,0,0,1-1.474-6.8l-2.86.33q-.7,0-.7-.836,0-.616.682-.7l2.706-.308a45.965,45.965,0,0,1-.352-5.3q0-.748.792-.748a.729.729,0,0,1,.814.836,48.622,48.622,0,0,0,.308,5.038l6.27-.726q.682,0,.682.814a.687.687,0,0,1-.682.748l-6.094.7a40.562,40.562,0,0,0,1.144,5.5,21.669,21.669,0,0,0,2.53-4.268.768.768,0,0,1,.7-.55,1.116,1.116,0,0,1,.308.044q.594.176.594.616a1.064,1.064,0,0,1-.132.462A24.442,24.442,0,0,1,183.92-3.7a11.235,11.235,0,0,0,1.353,2.717q.715.979,1.375.979.55,0,.77-1.584a3.049,3.049,0,0,1,.275-1.122q.209-.4.473-.4.66,0,.66,1.254a5.421,5.421,0,0,1-.792,2.794A1.744,1.744,0,0,1,186.56,1.606Zm4.4-5.588a.681.681,0,0,1-.77-.77V-15.2a.681.681,0,0,1,.77-.77.681.681,0,0,1,.77.77v10.45A.681.681,0,0,1,190.96-3.982ZM186.032-14.19a.623.623,0,0,1-.506-.308,17.319,17.319,0,0,0-2.09-2.046.652.652,0,0,1-.286-.462.715.715,0,0,1,.33-.528.765.765,0,0,1,.484-.2.7.7,0,0,1,.44.176q2.508,2.068,2.508,2.6a.738.738,0,0,1-.308.495A.9.9,0,0,1,186.032-14.19ZM201.718,2.178a.555.555,0,0,1-.506-.4.646.646,0,0,1-.044-.242.719.719,0,0,1,.484-.682,3.524,3.524,0,0,0,2.09-2.9,2.421,2.421,0,0,1-.374.022,1.741,1.741,0,0,1-1.177-.407,1.441,1.441,0,0,1-.473-1.155,1.458,1.458,0,0,1,.484-1.166,1.754,1.754,0,0,1,1.188-.418,1.6,1.6,0,0,1,1.386.682,3.138,3.138,0,0,1,.484,1.848A4.909,4.909,0,0,1,204.226.44a5.471,5.471,0,0,1-2.178,1.672A.943.943,0,0,1,201.718,2.178Zm38.346-1.166H228.492A.7.7,0,0,1,227.7.22a.71.71,0,0,1,.792-.814h4.422V-17.446a.71.71,0,0,1,.814-.792.7.7,0,0,1,.792.792V-11.2h4a.681.681,0,0,1,.77.77.69.69,0,0,1-.77.792h-4V-.594h5.544a.71.71,0,0,1,.792.814A.7.7,0,0,1,240.064,1.012ZM224.444.99l-.11-.022a1.609,1.609,0,0,1-.583-.341A.689.689,0,0,1,223.5.11a.387.387,0,0,1,.11-.286,3.276,3.276,0,0,0,.99-2.156v-7.15a.408.408,0,0,0-.462-.462H221.98a.69.69,0,0,1-.77-.792.681.681,0,0,1,.77-.77h2.97a1.145,1.145,0,0,1,.847.319,1.145,1.145,0,0,1,.319.847v8.052l1.848-1.386a.968.968,0,0,1,.528-.22q.44,0,.55.616a1.123,1.123,0,0,1-.286.616,3.892,3.892,0,0,1-.638.66A40.036,40.036,0,0,0,224.444.99ZM226.4-13.882a.663.663,0,0,1-.484-.286q-1.5-1.584-2.288-2.332a.715.715,0,0,1-.242-.506.794.794,0,0,1,.253-.517.716.716,0,0,1,.517-.275.652.652,0,0,1,.462.22q2.64,2.442,2.64,2.772a1.074,1.074,0,0,1-.286.561A.773.773,0,0,1,226.4-13.882Zm34.166,15.62q-2.42,0-4.048-4.114A21.493,21.493,0,0,1,252.626.462a1.16,1.16,0,0,1-.55.154.791.791,0,0,1-.616-.308.9.9,0,0,1-.264-.55q0-.374.55-.682A22,22,0,0,0,255.992-4a41.1,41.1,0,0,1-1.232-6.38h-5.1v3.52q3.234-.7,3.366-.7.594,0,.594.7a.722.722,0,0,1-.594.77l-3.366.792V-.418a2.586,2.586,0,0,1-.22,1.2,1.34,1.34,0,0,1-.726.605,9.18,9.18,0,0,1-2.574.308q-1.034,0-1.276-.66a.9.9,0,0,1-.066-.308q0-.638,1.1-.638H246a6.716,6.716,0,0,0,1.925-.121.562.562,0,0,0,.121-.407V-4.906q-3.85.88-4,.88-.55,0-.726-.66a2.306,2.306,0,0,1-.044-.4.91.91,0,0,1,.066-.341q.066-.165.506-.253,3.85-.748,4.2-.858v-3.85h-3.894a.69.69,0,0,1-.77-.792.681.681,0,0,1,.77-.77h3.894v-3.5a27.25,27.25,0,0,1-3.5.594.75.75,0,0,1-.726-.528,1.13,1.13,0,0,1-.066-.352q0-.484.682-.572a45.57,45.57,0,0,0,7.172-1.65.9.9,0,0,1,.308-.066.521.521,0,0,1,.253.066,2.086,2.086,0,0,1,.407.385.908.908,0,0,1,.286.561q0,.572-3.212,1.232v3.828h4.972q-.286-2.97-.286-5.478a.71.71,0,0,1,.814-.792q.836,0,.836.88.044,2.86.264,5.39h5.632a.681.681,0,0,1,.77.77.69.69,0,0,1-.77.792H256.41a38.2,38.2,0,0,0,.9,5.016,20.069,20.069,0,0,0,2.508-3.388.722.722,0,0,1,.638-.418,1.081,1.081,0,0,1,.4.088q.506.2.506.572a.935.935,0,0,1-.132.44,22.717,22.717,0,0,1-3.41,4.466Q259.138.11,260.7.11q.616,0,.836-1.892.132-1.562.748-1.562.66,0,.66,1.32l-.022.352A6.068,6.068,0,0,1,262.174,1,1.844,1.844,0,0,1,260.568,1.738Zm.374-15.2a.67.67,0,0,1-.528-.33,22.14,22.14,0,0,0-2.354-2.552.79.79,0,0,1-.308-.55.726.726,0,0,1,.374-.572.82.82,0,0,1,.484-.176.684.684,0,0,1,.462.2,28.512,28.512,0,0,1,2.464,2.508,1.04,1.04,0,0,1,.352.638.726.726,0,0,1-.374.572A1.163,1.163,0,0,1,260.942-13.464ZM272.316,1.694a.69.69,0,0,1-.792-.77V-13.222a.69.69,0,0,1,.792-.77.681.681,0,0,1,.77.77V.924A.681.681,0,0,1,272.316,1.694Zm-4.18-.022a.69.69,0,0,1-.792-.77V-9.988q-.462.792-.814,1.309t-.616.517q-.33,0-.616-.55a1.16,1.16,0,0,1-.154-.55.963.963,0,0,1,.22-.594,26.946,26.946,0,0,0,3.5-7.634q.176-.638.682-.638a1.045,1.045,0,0,1,.286.044q.572.154.572.616a1.13,1.13,0,0,1-.066.352,34.1,34.1,0,0,1-1.43,3.938V.9A.681.681,0,0,1,268.136,1.672Zm12.628-.044q-.99,0-1.21-.638A.73.73,0,0,1,279.488.7q0-.594,1.034-.594h.11A5.766,5.766,0,0,0,282.4-.011a.563.563,0,0,0,.121-.407V-15.642a.408.408,0,0,0-.462-.462h-4.686a.661.661,0,0,1-.748-.748.661.661,0,0,1,.748-.748h5.456a1.249,1.249,0,0,1,.924.352,1.249,1.249,0,0,1,.352.924V-.4a2.627,2.627,0,0,1-.2,1.144,1.253,1.253,0,0,1-.682.594A8.766,8.766,0,0,1,280.764,1.628Zm-5.632-15.29q-.308,0-.484-.4a21.739,21.739,0,0,0-1.8-3.036.773.773,0,0,1-.176-.44q0-.33.44-.55a.9.9,0,0,1,.4-.11.678.678,0,0,1,.55.352q2.046,2.9,2.046,3.454,0,.286-.462.55A1.1,1.1,0,0,1,275.132-13.662ZM15.906,33.3l-1.144-.022a1.082,1.082,0,0,1-1.122-.88.873.873,0,0,1-.11-.374q0-.33.594-.33.066,0,.605.033t1.749.033a1.092,1.092,0,0,0,.9-.33q.528-.55.814-3.212t.484-8.822a1.49,1.49,0,0,0-.1-.671.365.365,0,0,0-.341-.165h-5.06Q11.638,22.144,11,22.144a1.03,1.03,0,0,1-.528-.2.782.782,0,0,1-.418-.616.737.737,0,0,1,.154-.418,23.057,23.057,0,0,0,2.728-6.578q.154-.682.7-.682a.986.986,0,0,1,.264.044q.616.154.616.66a1.045,1.045,0,0,1-.044.286,22.272,22.272,0,0,1-.726,2.4h5.742a.69.69,0,0,1,.77.792Q20,25.62,19.712,28.48q-.33,3.1-.946,3.883a2.4,2.4,0,0,1-1.738.891Q16.566,33.3,15.906,33.3ZM8.338,31.384H3.344a1.209,1.209,0,0,1-1.276-1.276V18.382a1.209,1.209,0,0,1,1.276-1.276H4.51q.462-1.474.726-2.728.132-.7.748-.7.924,0,.924.682a14.432,14.432,0,0,1-.924,2.75H8.338a1.209,1.209,0,0,1,1.276,1.276V30.108a1.209,1.209,0,0,1-1.276,1.276ZM7.656,29.91a.408.408,0,0,0,.462-.462V24.63H3.542v4.818A.408.408,0,0,0,4,29.91Zm7.964-2.376a.593.593,0,0,1-.528-.374q-.858-1.518-2.354-3.652a1.351,1.351,0,0,1-.33-.638.674.674,0,0,1,.4-.55.935.935,0,0,1,.44-.132.655.655,0,0,1,.55.308q2.838,3.718,2.838,4.268,0,.264-.462.572A1.05,1.05,0,0,1,15.62,27.534Zm-7.5-4.356V19.042a.408.408,0,0,0-.462-.462H4a.408.408,0,0,0-.462.462v4.136Zm33.726,10.34a1.289,1.289,0,0,1-.572-.154,12.476,12.476,0,0,1-5.478-7.084,11.58,11.58,0,0,1-5.17,6.974,1.444,1.444,0,0,1-.748.264.741.741,0,0,1-.583-.264.787.787,0,0,1-.231-.506q0-.506.748-.9a9.808,9.808,0,0,0,4.6-6.644H30.1a.69.69,0,0,1-.77-.792.681.681,0,0,1,.77-.77h4.532q.11-1.188.11-5.016H31.262a.681.681,0,0,1-.77-.77.681.681,0,0,1,.77-.77h3.476V14.378a.71.71,0,0,1,.814-.792.7.7,0,0,1,.792.792v2.706h3.564a1.209,1.209,0,0,1,1.276,1.276v5.28h1.1a.681.681,0,0,1,.77.77.69.69,0,0,1-.77.792H36.96a11.257,11.257,0,0,0,5.126,6.512q.748.352.748.792a1.156,1.156,0,0,1-.275.638A.849.849,0,0,1,41.844,33.518Zm-15.158.154a.71.71,0,0,1-.814-.792v-18.5a.71.71,0,0,1,.814-.792.7.7,0,0,1,.792.792v18.5A.7.7,0,0,1,26.686,33.672ZM23.76,23.706a.9.9,0,0,1-.308-.066q-.506-.2-.506-.506a.771.771,0,0,1,.044-.242,22.8,22.8,0,0,0,.858-4.466.519.519,0,0,1,.572-.506q.7,0,.7.572a23.775,23.775,0,0,1-.88,4.818A.493.493,0,0,1,23.76,23.706ZM39.6,23.64V19.086a.408.408,0,0,0-.462-.462H36.344q0,3.762-.088,5.016ZM29.414,21.484q-.352,0-.462-.44a30.268,30.268,0,0,0-1.166-2.882.73.73,0,0,1-.066-.286.555.555,0,0,1,.4-.506.742.742,0,0,1,.33-.088.537.537,0,0,1,.484.352,23.618,23.618,0,0,1,1.276,3.036.589.589,0,0,1,.044.22.433.433,0,0,1-.077.231.794.794,0,0,1-.33.242A1.037,1.037,0,0,1,29.414,21.484ZM52.69,33.628q-1.32,0-1.32-.924a.573.573,0,0,1,.275-.495,1.428,1.428,0,0,1,.8-.187l1.1.022a1.975,1.975,0,0,0,.935-.121.477.477,0,0,0,.143-.385V23.97q-5.412,0-6.4.022h-.55q-1.034,0-1.034-.88A3.128,3.128,0,0,1,46.9,21.99a20.923,20.923,0,0,0,.924-5.17q.066-1.54,1.342-1.584A69.342,69.342,0,0,0,61.688,13.96l.2-.022q.352,0,.66.484a1.268,1.268,0,0,1,.264.616q0,.308-.506.418A70.891,70.891,0,0,1,49.5,16.71a34.4,34.4,0,0,1-.99,5.632h6.116V18.778a.814.814,0,0,1,1.628,0v3.564h7.128a.814.814,0,0,1,0,1.628H56.254v7.59a2.641,2.641,0,0,1-.209,1.177,1.2,1.2,0,0,1-.715.583A8.005,8.005,0,0,1,52.69,33.628Zm-6.38-1.584a.953.953,0,0,1-.572-.242.642.642,0,0,1-.044-1.144,21.993,21.993,0,0,0,3.256-4.18.781.781,0,0,1,.682-.44,1,1,0,0,1,.352.066q.572.2.572.594a.839.839,0,0,1-.154.44,34.608,34.608,0,0,1-3.52,4.6A.755.755,0,0,1,46.31,32.044Zm17.336-.022a.638.638,0,0,1-.55-.374A35.57,35.57,0,0,0,59.73,27.2a.771.771,0,0,1-.242-.506q0-.308.484-.55a.968.968,0,0,1,.4-.088.793.793,0,0,1,.594.286,43.692,43.692,0,0,1,3.608,4.532.817.817,0,0,1,.154.418q0,.264-.55.55A1.221,1.221,0,0,1,63.646,32.022Zm8.69,1.606a.7.7,0,0,1-.792-.792V23.948a26,26,0,0,1-3.3,5.852.823.823,0,0,1-.55.352q-.264,0-.572-.528a1.278,1.278,0,0,1-.2-.594.807.807,0,0,1,.264-.506,19.8,19.8,0,0,0,2.189-3.179,24.469,24.469,0,0,0,1.749-3.773h-3.1a.671.671,0,0,1-.748-.77.661.661,0,0,1,.748-.748h3.52V16.4q-2.97.462-3.146.462a.684.684,0,0,1-.66-.506,1.045,1.045,0,0,1-.044-.286q0-.462.638-.572A40.145,40.145,0,0,0,75.2,13.982a.776.776,0,0,1,.308-.066q.242,0,.572.385a1.1,1.1,0,0,1,.33.627l-.022.154q-.044.308-3.256,1.012v3.96h3.036a.661.661,0,0,1,.748.748.671.671,0,0,1-.748.77H73.128v.572q.682.726,3.212,3.74a.841.841,0,0,1,.308.506.917.917,0,0,1-.242.462q-.418.572-.594.572-.22,0-.462-.352-.748-1.144-2.222-3.058v8.822A.7.7,0,0,1,72.336,33.628Zm12.1-2.728h-5.5a1.209,1.209,0,0,1-1.276-1.276V16.908a1.209,1.209,0,0,1,1.276-1.276h5.5a1.209,1.209,0,0,1,1.276,1.276V29.624A1.209,1.209,0,0,1,84.436,30.9Zm-.792-1.584a.408.408,0,0,0,.462-.462v-11.2a.408.408,0,0,0-.462-.462H79.706a.408.408,0,0,0-.462.462v11.2a.408.408,0,0,0,.462.462Zm6.666,4.136a.784.784,0,0,1-.539-.275.8.8,0,0,1-.275-.561A.85.85,0,0,1,89.848,32q2.464-2.486,3.124-7.392.088-.792.792-.792.924,0,.924.77a10.48,10.48,0,0,1-.44,2.112A7.043,7.043,0,0,0,98.3,31.032v-8.91H93.1a1.209,1.209,0,0,1-1.276-1.276V15.94A1.209,1.209,0,0,1,93.1,14.664h12.254a1.209,1.209,0,0,1,1.276,1.276v4.906a1.209,1.209,0,0,1-1.276,1.276H99.946V25.51h6.534a.661.661,0,0,1,.748.748.671.671,0,0,1-.748.77H99.946v4.466a18.6,18.6,0,0,0,3.784.33h4.488q.572,0,.572.352a1.89,1.89,0,0,1-.132.572.925.925,0,0,1-.946.638h-4.07a15.971,15.971,0,0,1-5.962-.9,8.042,8.042,0,0,1-4.07-3.74,11.392,11.392,0,0,1-2.75,4.466A.868.868,0,0,1,90.31,33.452ZM104.5,20.56a.408.408,0,0,0,.462-.462V16.71a.408.408,0,0,0-.462-.462H93.9a.408.408,0,0,0-.462.462V20.1a.408.408,0,0,0,.462.462Zm19.624,10.01q-1.144,0-1.144-.858,0-.572.88-.572h.946q.352,0,.352-.33v-10.6h-2.222v2.332a18.631,18.631,0,0,1-.528,4.818,10.392,10.392,0,0,1-2.706,4.708,1.274,1.274,0,0,1-.814.4.808.808,0,0,1-.5-.2.6.6,0,0,1-.253-.484,1.364,1.364,0,0,1,.55-.9,9.547,9.547,0,0,0,2.354-4.18,16.634,16.634,0,0,0,.44-4.158V18.206H118.14a.661.661,0,0,1-.748-.748.661.661,0,0,1,.748-.748h5.038V14.378a.69.69,0,0,1,.792-.77.681.681,0,0,1,.77.77V16.71h5.324a.661.661,0,0,1,.748.748.661.661,0,0,1-.748.748h-3.388v10.6q0,1.166-.726,1.5A5.942,5.942,0,0,1,124.124,30.57Zm-6.864-4.312a.935.935,0,0,1-.44-.132q-.462-.242-.462-.55a.836.836,0,0,1,.242-.506,13.742,13.742,0,0,0,1.892-4.2q.2-.638.726-.638.792,0,.792.638a11.473,11.473,0,0,1-.99,2.9Q117.9,26.258,117.26,26.258Zm12.716.132a.693.693,0,0,1-.264-.066q-.154-.066-.242-.462a15.157,15.157,0,0,0-.7-2.156,20.634,20.634,0,0,0-1.056-2.464.744.744,0,0,1-.11-.352q0-.352.506-.528a1.045,1.045,0,0,1,.286-.044.62.62,0,0,1,.572.4,20.08,20.08,0,0,1,1.958,4.84l.022.2a.444.444,0,0,1-.088.286A1.194,1.194,0,0,1,129.976,26.39Zm-6.93,7.062a21.5,21.5,0,0,1-3.608-.242,7.775,7.775,0,0,1-2.64-.99q-.308-.2-.858-.638a2.909,2.909,0,0,0-1.254-.748q-.616,0-1.848,1.65a1.313,1.313,0,0,1-1.012.682.7.7,0,0,1-.572-.33.816.816,0,0,1-.2-.528,1.306,1.306,0,0,1,.374-.88,7.93,7.93,0,0,1,2.53-2V23.068a.408.408,0,0,0-.462-.462h-1.584a.71.71,0,0,1-.792-.814.7.7,0,0,1,.792-.792h2.618a.952.952,0,0,1,1.034,1.034v7.524l1.65,1.188a6.926,6.926,0,0,0,2.508.9,22.129,22.129,0,0,0,3.344.2,67.758,67.758,0,0,0,7.084-.352l.286-.022q.594,0,.594.462a1.972,1.972,0,0,1-.088.528,1.641,1.641,0,0,1-.264.6.823.823,0,0,1-.55.165Q126.478,33.452,123.046,33.452Zm-7.634-15.158h-.176q-.132,0-.4-.352a22.663,22.663,0,0,0-2.244-2.53.779.779,0,0,1-.308-.528.723.723,0,0,1,.4-.572.8.8,0,0,1,.462-.176.852.852,0,0,1,.572.264q2.662,2.574,2.662,3.036a.756.756,0,0,1-.363.583A1.1,1.1,0,0,1,115.412,18.294Zm26.422,12.54a.613.613,0,0,1-.7-.682v-5.94a14.042,14.042,0,0,1-1.716,5.06.781.781,0,0,1-.616.44.773.773,0,0,1-.44-.176.761.761,0,0,1-.352-.616,1.128,1.128,0,0,1,.22-.616A15.86,15.86,0,0,0,139.92,20.3V18.338a1.209,1.209,0,0,1,1.276-1.276h8.932a1.209,1.209,0,0,1,1.276,1.276v1.738a1.209,1.209,0,0,1-1.276,1.276l-8.734.022q0,.44-.088,1.364h9.372a1.209,1.209,0,0,1,1.276,1.276v5.324a2.089,2.089,0,0,1-.11.77q-.286.66-1.65.66-.858,0-.858-.77,0-.44.682-.44a2.336,2.336,0,0,1,.33-.022q.176,0,.176-.22V27.16h-1.936V30a.572.572,0,1,1-1.144,0V27.16H145.53V30a.506.506,0,0,1-.572.572q-.594,0-.594-.572V27.16h-1.848v2.992A.6.6,0,0,1,141.834,30.834Zm2.53-4.906V23.992h-1.848v1.936Zm3.08,0V23.992H145.53v1.936Zm3.08,0V24.454a.408.408,0,0,0-.462-.462h-1.474v1.936Zm-1.078-5.764a.408.408,0,0,0,.462-.462v-.99a.408.408,0,0,0-.462-.462h-7.568a.408.408,0,0,0-.462.462v1.452Zm2.53-4.356H139.238a.6.6,0,0,1-.682-.682.6.6,0,0,1,.682-.682h12.738a.6.6,0,0,1,.682.682A.6.6,0,0,1,151.976,15.808Zm-14.85,2.64a.665.665,0,0,1-.528-.352,16.206,16.206,0,0,0-2.486-2.486.715.715,0,0,1-.33-.528.732.732,0,0,1,.3-.528.873.873,0,0,1,.561-.264.684.684,0,0,1,.462.2,16.082,16.082,0,0,1,2.816,2.662.817.817,0,0,1,.154.418.861.861,0,0,1-.341.561A.958.958,0,0,1,137.126,18.448Zm7.92,15a21.5,21.5,0,0,1-3.608-.242,7.775,7.775,0,0,1-2.64-.99q-.308-.2-.858-.638a2.909,2.909,0,0,0-1.254-.748q-.616,0-1.848,1.65a1.313,1.313,0,0,1-1.012.682.7.7,0,0,1-.572-.33.816.816,0,0,1-.2-.528,1.306,1.306,0,0,1,.374-.88,7.93,7.93,0,0,1,2.53-2V23.068a.408.408,0,0,0-.462-.462h-1.584a.71.71,0,0,1-.792-.814.7.7,0,0,1,.792-.792h2.618a.952.952,0,0,1,1.034,1.034v7.524l1.65,1.188a6.926,6.926,0,0,0,2.508.9,22.129,22.129,0,0,0,3.344.2,67.758,67.758,0,0,0,7.084-.352l.286-.022q.594,0,.594.462a1.972,1.972,0,0,1-.088.528,1.641,1.641,0,0,1-.264.6.823.823,0,0,1-.55.165Q148.478,33.452,145.046,33.452Zm20.988.264a.71.71,0,0,1-.814-.792V24.08H160.6v6.8a.7.7,0,0,1-.792.792.71.71,0,0,1-.814-.792V24.454a17.64,17.64,0,0,1-2.464,2.354,1,1,0,0,1-.572.22.738.738,0,0,1-.594-.374.948.948,0,0,1-.2-.528.867.867,0,0,1,.44-.7,19.835,19.835,0,0,0,5.368-6.886h-4.686a.7.7,0,0,1-.792-.792.7.7,0,0,1,.792-.792h5.39q.528-1.3.924-2.574a.731.731,0,0,1,.726-.638,1.117,1.117,0,0,1,.308.044q.66.154.66.682a17.122,17.122,0,0,1-.836,2.486h10.3a.7.7,0,0,1,.792.792.7.7,0,0,1-.792.792h-11a27.075,27.075,0,0,1-2.288,4h4.752V20.384a.71.71,0,0,1,.814-.792.7.7,0,0,1,.792.792V22.54h5.236a1.209,1.209,0,0,1,1.276,1.276V29.58a2.335,2.335,0,0,1-.187,1.045,1.153,1.153,0,0,1-.671.539,8.76,8.76,0,0,1-2.728.264q-.946,0-1.166-.616a.83.83,0,0,1-.044-.264q0-.572.946-.572h1.76a.685.685,0,0,0,.385-.11.4.4,0,0,0,.1-.308V24.542a.408.408,0,0,0-.462-.462h-4.444v8.844A.7.7,0,0,1,166.034,33.716Zm17.534-.132q-1.078,0-1.342-.66a.884.884,0,0,1-.088-.352q0-.66,1.122-.66l1.606.022a2.948,2.948,0,0,0,1.331-.154.634.634,0,0,0,.165-.484v-7.37h-8.206a.71.71,0,0,1-.792-.814.7.7,0,0,1,.792-.792h8.206V16.776h-6.688a.71.71,0,0,1-.792-.814.7.7,0,0,1,.792-.792h14.652a.7.7,0,0,1,.792.792.71.71,0,0,1-.792.814h-6.27V22.32h7.81a.7.7,0,0,1,.792.792.71.71,0,0,1-.792.814h-7.81V31.3a2.673,2.673,0,0,1-.264,1.342,1.512,1.512,0,0,1-.88.638A13.693,13.693,0,0,1,183.568,33.584Zm33.748-1.518H203.742a1.209,1.209,0,0,1-1.276-1.276V20.626H199.98a.69.69,0,0,1-.77-.792.681.681,0,0,1,.77-.77h2.486v-4.07a.729.729,0,0,1,.836-.814.719.719,0,0,1,.814.814v4.07h4.048V14.51a.71.71,0,0,1,.814-.792.7.7,0,0,1,.792.792v4.554h4.092v-4.29a.71.71,0,0,1,.814-.792.7.7,0,0,1,.792.792v4.29h2.6a.681.681,0,0,1,.77.77.69.69,0,0,1-.77.792h-2.6v4.862a1.209,1.209,0,0,1-1.276,1.276H209.44a1.209,1.209,0,0,1-1.276-1.276V20.626h-4.048V30.02a.408.408,0,0,0,.462.462h12.738a.792.792,0,1,1,0,1.584ZM213.4,25.224a.408.408,0,0,0,.462-.462V20.626H209.77v4.136a.408.408,0,0,0,.462.462Zm10.648,8.36a.8.8,0,0,1-.638-.286.56.56,0,0,1-.154-.374q0-.66,1.1-1.144a5.287,5.287,0,0,0,2.156-2.222,6.819,6.819,0,0,0,.418-2.706.814.814,0,1,1,1.628,0v.528a6.838,6.838,0,0,1-.77,3.366,6.917,6.917,0,0,1-3.036,2.662A1.768,1.768,0,0,1,224.048,33.584Zm10.6.066a.729.729,0,0,1-.836-.814V27.314a1.209,1.209,0,0,1,1.276-1.276h.33a15.026,15.026,0,0,1-3.146-2.948H229.9a14.954,14.954,0,0,1-3.124,2.9,18.465,18.465,0,0,1-3.85,2.09,1.126,1.126,0,0,1-.418.088.813.813,0,0,1-.66-.33.982.982,0,0,1-.264-.572q0-.4.682-.638a14.73,14.73,0,0,0,5.654-3.542h-3.058a1.209,1.209,0,0,1-1.276-1.276V15.588a1.209,1.209,0,0,1,1.276-1.276h12.32a1.209,1.209,0,0,1,1.276,1.276v6.226a1.209,1.209,0,0,1-1.276,1.276H234.19a13.441,13.441,0,0,0,5.632,3.432q.726.22.726.638a.985.985,0,0,1-.22.55.917.917,0,0,1-.726.374,1.246,1.246,0,0,1-.4-.066,16.26,16.26,0,0,1-3.74-1.958v6.776A.719.719,0,0,1,234.652,33.65ZM230.164,21.7V19.328h-4.972v1.914a.408.408,0,0,0,.462.462Zm6.16,0a.408.408,0,0,0,.462-.462V19.328H231.77V21.7Zm-6.16-3.674V15.7h-4.51a.408.408,0,0,0-.462.462v1.87Zm6.622,0V16.16a.408.408,0,0,0-.462-.462H231.77V18.03ZM258.1,32.77H247.852a1.209,1.209,0,0,1-1.276-1.276V27.138a1.209,1.209,0,0,1,1.276-1.276H258.1a1.209,1.209,0,0,1,1.276,1.276v4.356A1.209,1.209,0,0,1,258.1,32.77Zm-.858-1.474a.408.408,0,0,0,.462-.462V27.842a.408.408,0,0,0-.462-.462h-8.6a.408.408,0,0,0-.462.462v2.992a.408.408,0,0,0,.462.462Zm-13.222-4.972a.818.818,0,0,1-.748-.506,1.2,1.2,0,0,1-.154-.506.619.619,0,0,1,.088-.275q.088-.165.638-.3a33.656,33.656,0,0,0,7.832-2.97,20.3,20.3,0,0,1-3.586-3.19,20.077,20.077,0,0,1-2.838,2.31.946.946,0,0,1-.528.176.919.919,0,0,1-.638-.3.837.837,0,0,1-.308-.583q0-.352.528-.66a17.8,17.8,0,0,0,5.61-5.5.781.781,0,0,1,.682-.44,1,1,0,0,1,.352.066q.572.2.572.594a4.542,4.542,0,0,1-1.012,1.65h7.832q1.012,0,1.012.7a1.793,1.793,0,0,1-.264.814,15.757,15.757,0,0,1-4.466,4.4,30.882,30.882,0,0,0,7.282,2.794q.792.176.792.638a1.069,1.069,0,0,1-.22.55.949.949,0,0,1-.814.44l-.308-.044a29.944,29.944,0,0,1-8.228-3.454,36.071,36.071,0,0,1-8.778,3.542A1.364,1.364,0,0,1,244.024,26.324Zm9.086-5.412a17.536,17.536,0,0,0,4.224-3.564H249.3l-.176.2A17.137,17.137,0,0,0,253.11,20.912ZM282,33.188H276.65a3.907,3.907,0,0,1-2.53-.594,3.155,3.155,0,0,1-.66-2.354V23.31a7.469,7.469,0,0,1-1.386.528q-.4,0-.638-.506a.9.9,0,0,1-.11-.4q0-.4.506-.616l1.628-.7V16.4a.77.77,0,0,1,1.54,0v4.554l2.926-1.254V14.356a.77.77,0,0,1,1.54,0v4.708l2.882-1.232q.55-.528.682-.528.044,0,.858.33.2.088.2.242a68.5,68.5,0,0,1-.264,8.382,1.543,1.543,0,0,1-1.166,1.452,7.239,7.239,0,0,1-1.408.154.749.749,0,0,1-.836-.858q0-.528.814-.528h.462a.637.637,0,0,0,.66-.572q.154-.748.154-6.468l-3.036,1.3v7.3a.77.77,0,0,1-1.54,0V21.4L275,22.65v7.612a1.572,1.572,0,0,0,.319,1.166,2.225,2.225,0,0,0,1.375.286h5.258a1.465,1.465,0,0,0,.99-.275,1.9,1.9,0,0,0,.462-1.045,2.851,2.851,0,0,1,.286-1.067q.22-.407.528-.407.7,0,.7,1.188l-.022.308a3.774,3.774,0,0,1-.836,2.167A2.892,2.892,0,0,1,282,33.188ZM265.87,29.954q-.418,0-.66-.572a1.616,1.616,0,0,1-.11-.528q0-.374.539-.561t2.233-.913V20.406h-2a.69.69,0,0,1-.77-.792.681.681,0,0,1,.77-.77h2V14.62a.77.77,0,1,1,1.54,0v4.224h1.76a.681.681,0,0,1,.77.77.69.69,0,0,1-.77.792h-1.76v6.358a13.716,13.716,0,0,1,2.046-.814q.528,0,.616.814a.719.719,0,0,1-.462.682Q266.156,29.954,265.87,29.954Zm24.64,3.388a3.355,3.355,0,0,1,0-6.71,3.355,3.355,0,1,1,0,6.71Zm0-1.122a2.132,2.132,0,0,0,1.584-.649,2.188,2.188,0,0,0,.638-1.595,2.222,2.222,0,0,0-4.444,0,2.2,2.2,0,0,0,.638,1.584A2.114,2.114,0,0,0,290.51,32.22Z" transform="translate(408 3138)" fill="#fff"/>
      <rect id="矩形_328" data-name="矩形 328" width="48" height="6" transform="translate(408 3092)" fill="#fff"/>
    </g>
  </g>
</svg>
