<svg xmlns="http://www.w3.org/2000/svg" width="1163" height="179.5" viewBox="0 0 1163 179.5">
  <g id="组_6484" data-name="组 6484" transform="translate(-369 -744)">
    <line id="直线_33" data-name="直线 33" x2="846.5" transform="translate(429 897.5)" fill="none" stroke="#ccc" stroke-width="1"/>
    <g id="组_658" data-name="组 658" transform="translate(-76.5 -120)">
      <g id="组_635" data-name="组 635">
        <circle id="椭圆_1317" data-name="椭圆 1317" cx="48" cy="48" r="48" transform="translate(474.5 865)" fill="#095fe1"/>
        <path id="路径_24151" data-name="路径 24151" d="M-21.24,0a.6.6,0,0,1-.68-.68V-.74a1.66,1.66,0,0,1,.68-1.2,31.221,31.221,0,0,0,4.42-4.72,6.884,6.884,0,0,0,1.48-3.8,2.844,2.844,0,0,0-.64-1.96,2.363,2.363,0,0,0-1.86-.74,3.347,3.347,0,0,0-2.2.94.871.871,0,0,1-1.38.04.8.8,0,0,1,.06-1.28A5.523,5.523,0,0,1-17.56-15a4.365,4.365,0,0,1,3.23,1.21,4.339,4.339,0,0,1,1.21,3.21,8.006,8.006,0,0,1-1.52,4.32A27.016,27.016,0,0,1-18.5-1.82a23.339,23.339,0,0,1,2.4-.14h2.7a.866.866,0,0,1,.98.98A.866.866,0,0,1-13.4,0h-7.84ZM-5.7.26A3.9,3.9,0,0,1-9.16-1.66a10.589,10.589,0,0,1-1.3-5.76,10.332,10.332,0,0,1,1.3-5.7A3.892,3.892,0,0,1-5.7-15a3.922,3.922,0,0,1,3.46,1.88,10.393,10.393,0,0,1,1.3,5.7,10.527,10.527,0,0,1-1.3,5.76A3.873,3.873,0,0,1-5.7.26Zm0-1.82q2.56,0,2.56-5.86,0-5.76-2.56-5.76T-8.26-7.42A10.644,10.644,0,0,0-7.54-2.9,2.028,2.028,0,0,0-5.7-1.56ZM5.7.26A3.9,3.9,0,0,1,2.24-1.66,10.589,10.589,0,0,1,.94-7.42a10.332,10.332,0,0,1,1.3-5.7A3.892,3.892,0,0,1,5.7-15a3.922,3.922,0,0,1,3.46,1.88,10.393,10.393,0,0,1,1.3,5.7,10.527,10.527,0,0,1-1.3,5.76A3.873,3.873,0,0,1,5.7.26Zm0-1.82q2.56,0,2.56-5.86,0-5.76-2.56-5.76T3.14-7.42A10.644,10.644,0,0,0,3.86-2.9,2.028,2.028,0,0,0,5.7-1.56ZM16.76.26a6.527,6.527,0,0,1-4.28-1.48.787.787,0,0,1-.3-.56,1.116,1.116,0,0,1,.26-.6.789.789,0,0,1,1.32-.18,4.459,4.459,0,0,0,2.72.94,2.742,2.742,0,0,0,2.08-.84,3.164,3.164,0,0,0,.84-2.31,3.211,3.211,0,0,0-.76-2.27,2.681,2.681,0,0,0-2.04-.8,3.588,3.588,0,0,0-1.72.44,1.045,1.045,0,0,1-1.2.04l-.06-.04a.965.965,0,0,1-.46-.94l.32-5.14a1.245,1.245,0,0,1,.38-.9,1.313,1.313,0,0,1,.94-.34h5.26a.849.849,0,0,1,.96.96.857.857,0,0,1-.96.98h-4.5L15.22-9a4.338,4.338,0,0,1,2.02-.52A4.4,4.4,0,0,1,20.4-8.38a4.622,4.622,0,0,1,1.32,3.54A4.967,4.967,0,0,1,20.2-1.06,4.825,4.825,0,0,1,16.76.26Z" transform="translate(522.5 922)" fill="#fff"/>
        <path id="路径_540" data-name="路径 540" d="M8.5,0,17,12H0Z" transform="translate(531.5 977) rotate(-180)" fill="#095fe1"/>
      </g>
      <g id="组_636" data-name="组 636">
        <rect id="矩形_243" data-name="矩形 243" width="154" height="2" transform="translate(445.5 1016)" fill="#095fe1"/>
        <line id="直线_34" data-name="直线 34" y2="26" transform="translate(523 1017.5)" fill="none" stroke="#095fe1" stroke-width="1"/>
      </g>
    </g>
    <g id="组_656" data-name="组 656" transform="translate(-117.5 -120)">
      <g id="组_634" data-name="组 634">
        <circle id="椭圆_1319" data-name="椭圆 1319" cx="48" cy="48" r="48" transform="translate(1029.5 864)" fill="#095fe1"/>
        <path id="路径_24149" data-name="路径 24149" d="M-21.24,0a.6.6,0,0,1-.68-.68V-.74a1.66,1.66,0,0,1,.68-1.2,31.221,31.221,0,0,0,4.42-4.72,6.884,6.884,0,0,0,1.48-3.8,2.844,2.844,0,0,0-.64-1.96,2.363,2.363,0,0,0-1.86-.74,3.347,3.347,0,0,0-2.2.94.871.871,0,0,1-1.38.04.8.8,0,0,1,.06-1.28A5.523,5.523,0,0,1-17.56-15a4.365,4.365,0,0,1,3.23,1.21,4.339,4.339,0,0,1,1.21,3.21,8.006,8.006,0,0,1-1.52,4.32A27.016,27.016,0,0,1-18.5-1.82a23.339,23.339,0,0,1,2.4-.14h2.7a.866.866,0,0,1,.98.98A.866.866,0,0,1-13.4,0h-7.84ZM-5.7.26A3.9,3.9,0,0,1-9.16-1.66a10.589,10.589,0,0,1-1.3-5.76,10.332,10.332,0,0,1,1.3-5.7A3.892,3.892,0,0,1-5.7-15a3.922,3.922,0,0,1,3.46,1.88,10.393,10.393,0,0,1,1.3,5.7,10.527,10.527,0,0,1-1.3,5.76A3.873,3.873,0,0,1-5.7.26Zm0-1.82q2.56,0,2.56-5.86,0-5.76-2.56-5.76T-8.26-7.42A10.644,10.644,0,0,0-7.54-2.9,2.028,2.028,0,0,0-5.7-1.56ZM6.5,0A1.025,1.025,0,0,1,5.34-1.16V-12.18L3.3-10.92a.827.827,0,0,1-1.27-.28.816.816,0,0,1,.27-1.28l3.18-1.98a1.753,1.753,0,0,1,.96-.28h.42a.784.784,0,0,1,.58.22.784.784,0,0,1,.22.58V-1.16A1.025,1.025,0,0,1,6.5,0ZM17.9,0a1.025,1.025,0,0,1-1.16-1.16V-12.18L14.7-10.92a.827.827,0,0,1-1.27-.28.816.816,0,0,1,.27-1.28l3.18-1.98a1.753,1.753,0,0,1,.96-.28h.42a.784.784,0,0,1,.58.22.784.784,0,0,1,.22.58V-1.16A1.025,1.025,0,0,1,17.9,0Z" transform="translate(1077.5 921)" fill="#fff"/>
        <path id="路径_542" data-name="路径 542" d="M8.5,0,17,12H0Z" transform="translate(1086.5 977) rotate(-180)" fill="#095fe1"/>
      </g>
      <g id="组_638" data-name="组 638">
        <rect id="矩形_245" data-name="矩形 245" width="154" height="2" transform="translate(1000.5 1016)" fill="#095fe1"/>
        <line id="直线_36" data-name="直线 36" y2="26" transform="translate(1077.5 1017.5)" fill="none" stroke="#095fe1" stroke-width="1"/>
      </g>
    </g>
    <g id="组_655" data-name="组 655" transform="translate(-161.5 -120)">
      <g id="组_633" data-name="组 633">
        <circle id="椭圆_1320" data-name="椭圆 1320" cx="48" cy="48" r="48" transform="translate(1327.5 864)" fill="#fbb81d"/>
        <path id="路径_24148" data-name="路径 24148" d="M-21.24,0a.6.6,0,0,1-.68-.68V-.74a1.66,1.66,0,0,1,.68-1.2,31.221,31.221,0,0,0,4.42-4.72,6.884,6.884,0,0,0,1.48-3.8,2.844,2.844,0,0,0-.64-1.96,2.363,2.363,0,0,0-1.86-.74,3.347,3.347,0,0,0-2.2.94.871.871,0,0,1-1.38.04.8.8,0,0,1,.06-1.28A5.523,5.523,0,0,1-17.56-15a4.365,4.365,0,0,1,3.23,1.21,4.339,4.339,0,0,1,1.21,3.21,8.006,8.006,0,0,1-1.52,4.32A27.016,27.016,0,0,1-18.5-1.82a23.339,23.339,0,0,1,2.4-.14h2.7a.866.866,0,0,1,.98.98A.866.866,0,0,1-13.4,0h-7.84ZM-5.7.26A3.9,3.9,0,0,1-9.16-1.66a10.589,10.589,0,0,1-1.3-5.76,10.332,10.332,0,0,1,1.3-5.7A3.892,3.892,0,0,1-5.7-15a3.922,3.922,0,0,1,3.46,1.88,10.393,10.393,0,0,1,1.3,5.7,10.527,10.527,0,0,1-1.3,5.76A3.873,3.873,0,0,1-5.7.26Zm0-1.82q2.56,0,2.56-5.86,0-5.76-2.56-5.76T-8.26-7.42A10.644,10.644,0,0,0-7.54-2.9,2.028,2.028,0,0,0-5.7-1.56ZM6.5,0A1.025,1.025,0,0,1,5.34-1.16V-12.18L3.3-10.92a.827.827,0,0,1-1.27-.28.816.816,0,0,1,.27-1.28l3.18-1.98a1.753,1.753,0,0,1,.96-.28h.42a.784.784,0,0,1,.58.22.784.784,0,0,1,.22.58V-1.16A1.025,1.025,0,0,1,6.5,0Zm6.46,0a.6.6,0,0,1-.68-.68V-.74a1.66,1.66,0,0,1,.68-1.2,31.221,31.221,0,0,0,4.42-4.72,6.884,6.884,0,0,0,1.48-3.8,2.844,2.844,0,0,0-.64-1.96,2.363,2.363,0,0,0-1.86-.74,3.347,3.347,0,0,0-2.2.94.871.871,0,0,1-1.38.04.8.8,0,0,1,.06-1.28A5.523,5.523,0,0,1,16.64-15a4.365,4.365,0,0,1,3.23,1.21,4.339,4.339,0,0,1,1.21,3.21,8.006,8.006,0,0,1-1.52,4.32A27.016,27.016,0,0,1,15.7-1.82a23.339,23.339,0,0,1,2.4-.14h2.7a.866.866,0,0,1,.98.98A.866.866,0,0,1,20.8,0H12.96Z" transform="translate(1375.5 921)"/>
        <path id="多边形_7" data-name="多边形 7" d="M8.5,0,17,12H0Z" transform="translate(1384.5 977) rotate(-180)" fill="#fbb81d"/>
      </g>
      <g id="组_639" data-name="组 639">
        <rect id="矩形_246" data-name="矩形 246" width="154" height="2" transform="translate(1298.5 1016)" fill="#fbb81d"/>
        <line id="直线_37" data-name="直线 37" y2="26" transform="translate(1375.5 1017.5)" fill="none" stroke="#fbb81d" stroke-width="1"/>
      </g>
    </g>
    <g id="组_653" data-name="组 653" transform="translate(-95.5 -120)">
      <g id="组_523" data-name="组 523" transform="translate(-0.5 -390)">
        <circle id="椭圆_1318" data-name="椭圆 1318" cx="48" cy="48" r="48" transform="translate(736 1254)" fill="#fbb81d"/>
        <path id="路径_24150" data-name="路径 24150" d="M-21.24,0a.6.6,0,0,1-.68-.68V-.74a1.66,1.66,0,0,1,.68-1.2,31.221,31.221,0,0,0,4.42-4.72,6.884,6.884,0,0,0,1.48-3.8,2.844,2.844,0,0,0-.64-1.96,2.363,2.363,0,0,0-1.86-.74,3.347,3.347,0,0,0-2.2.94.871.871,0,0,1-1.38.04.8.8,0,0,1,.06-1.28A5.523,5.523,0,0,1-17.56-15a4.365,4.365,0,0,1,3.23,1.21,4.339,4.339,0,0,1,1.21,3.21,8.006,8.006,0,0,1-1.52,4.32A27.016,27.016,0,0,1-18.5-1.82a23.339,23.339,0,0,1,2.4-.14h2.7a.866.866,0,0,1,.98.98A.866.866,0,0,1-13.4,0h-7.84ZM-5.7.26A3.9,3.9,0,0,1-9.16-1.66a10.589,10.589,0,0,1-1.3-5.76,10.332,10.332,0,0,1,1.3-5.7A3.892,3.892,0,0,1-5.7-15a3.922,3.922,0,0,1,3.46,1.88,10.393,10.393,0,0,1,1.3,5.7,10.527,10.527,0,0,1-1.3,5.76A3.873,3.873,0,0,1-5.7.26Zm0-1.82q2.56,0,2.56-5.86,0-5.76-2.56-5.76T-8.26-7.42A10.644,10.644,0,0,0-7.54-2.9,2.028,2.028,0,0,0-5.7-1.56ZM5.7.26A3.9,3.9,0,0,1,2.24-1.66,10.589,10.589,0,0,1,.94-7.42a10.332,10.332,0,0,1,1.3-5.7A3.892,3.892,0,0,1,5.7-15a3.922,3.922,0,0,1,3.46,1.88,10.393,10.393,0,0,1,1.3,5.7,10.527,10.527,0,0,1-1.3,5.76A3.873,3.873,0,0,1,5.7.26Zm0-1.82q2.56,0,2.56-5.86,0-5.76-2.56-5.76T3.14-7.42A10.644,10.644,0,0,0,3.86-2.9,2.028,2.028,0,0,0,5.7-1.56ZM17.54.26a4.274,4.274,0,0,1-3.58-1.8,8.949,8.949,0,0,1-1.5-5.54q0-4.02,1.7-6.08A4.685,4.685,0,0,1,18.02-15a4.864,4.864,0,0,1,3.06,1.02.77.77,0,0,1,.04,1.22.958.958,0,0,1-1.48.08,2.836,2.836,0,0,0-1.5-.44,2.859,2.859,0,0,0-2.44,1.24A7.936,7.936,0,0,0,14.6-7.5a4.864,4.864,0,0,1,1.52-1.24A3.632,3.632,0,0,1,17.8-9.2a3.934,3.934,0,0,1,3,1.14,4.939,4.939,0,0,1,1.14,3.5,4.857,4.857,0,0,1-1.3,3.5A4.117,4.117,0,0,1,17.54.26ZM17.52-1.5a1.972,1.972,0,0,0,1.62-.82,3.526,3.526,0,0,0,.66-2.24,3.406,3.406,0,0,0-.62-2.2,2.188,2.188,0,0,0-1.8-.76A3.374,3.374,0,0,0,14.64-5.8a6.54,6.54,0,0,0,.94,3.24A2.266,2.266,0,0,0,17.52-1.5Z" transform="translate(784 1311)"/>
        <path id="多边形_5" data-name="多边形 5" d="M8.5,0,17,12H0Z" transform="translate(793 1367) rotate(-180)" fill="#fbb81d"/>
      </g>
      <g id="组_637" data-name="组 637">
        <rect id="矩形_244" data-name="矩形 244" width="154" height="2" transform="translate(706.5 1016)" fill="#fbb81d"/>
        <line id="直线_35" data-name="直线 35" y2="26" transform="translate(783.5 1017.5)" fill="none" stroke="#fbb81d" stroke-width="1"/>
      </g>
    </g>
    <g id="组_6482" data-name="组 6482">
      <circle id="椭圆_1319-2" data-name="椭圆 1319" cx="48" cy="48" r="48" transform="translate(1407 744)" fill="#095fe1"/>
      <path id="路径_24147" data-name="路径 24147" d="M-17.68.86q-1.2,0-1.2-.88,0-.86,1.2-.86h6.56a.088.088,0,0,0,.1-.1V-4.06a.088.088,0,0,0-.1-.1H-15.9q-1.2,0-1.2-.86t1.2-.86h4.78a.088.088,0,0,0,.1-.1V-7q0-1.2.98-1.2.96,0,.96,1.2v1.02a.088.088,0,0,0,.1.1H-4q1.2,0,1.2.86T-4-4.16H-8.98a.088.088,0,0,0-.1.1V-.98a.088.088,0,0,0,.1.1h6.72q1.2,0,1.2.86,0,.88-1.2.88ZM-2.5-8.26q-.78.58-1.05.22a8.854,8.854,0,0,0-.67-.78.726.726,0,0,0-.58-.22l-9.46.44a10.651,10.651,0,0,0-1.14.1l-.4.06q-1.12.14-1.4-.76a1.323,1.323,0,0,1,.62-1.54,8.227,8.227,0,0,0,.78-.66l.3-.32q.42-.4.82-.84.42-.46,1.12-1.38.06-.08-.04-.08h-3.6q-1.2,0-1.2-.86t1.2-.86H-2.92q1.2,0,1.2.86t-1.2.86H-10.8a.57.57,0,0,0-.48.24,27.776,27.776,0,0,1-3.04,3.4q-.08.06.02.06l8.18-.28q.1,0,.02-.06-1.04-.96-1.49-1.31T-7.54-13q.52-.66,1.48.04.74.56,2.1,1.78a18.964,18.964,0,0,1,1.9,1.85Q-1.7-8.86-2.5-8.26ZM11.6.92q-.74.94-1.54.3-.8-.66-.02-1.58,1.56-1.78,3.82-4.76.06-.08-.04-.08H4.44q-1.2,0-1.2-.96,0-.94,1.2-.96L15.5-7.36a1.585,1.585,0,0,1,1.34.5q.4.5-.28,1.36Zm.58-8.72q-.68.64-1.48-.26A19.908,19.908,0,0,0,8.82-9.58q-.94-.74-.46-1.4.5-.66,1.46.02,1.94,1.38,2.22,1.66Q12.88-8.42,12.18-7.8ZM2.92-8.26A1.053,1.053,0,0,1,1.4-8.38q-.66-.78.38-1.38a23.466,23.466,0,0,0,3.8-3A20.743,20.743,0,0,0,8.4-16.1a1.177,1.177,0,0,1,.53-.46,1.782,1.782,0,0,1,.79-.18h.24a1.527,1.527,0,0,1,1.32.64,22.369,22.369,0,0,0,3.34,3.62A23.037,23.037,0,0,0,18.2-9.92q.56.28.65.61a.968.968,0,0,1-.29.81,1.041,1.041,0,0,1-1.52.2,29.578,29.578,0,0,1-4.08-3.12,19.927,19.927,0,0,1-3.08-3.42,18.267,18.267,0,0,1-2.9,3.4A27.528,27.528,0,0,1,2.92-8.26Z" transform="translate(1455 801)" fill="#fff"/>
      <path id="路径_542-2" data-name="路径 542" d="M8.5,0,17,12H0Z" transform="translate(1464 857) rotate(-180)" fill="#095fe1"/>
      <g id="组_638-2" data-name="组 638" transform="translate(377.5 -120)">
        <rect id="矩形_245-2" data-name="矩形 245" width="154" height="2" transform="translate(1000.5 1016)" fill="#095fe1"/>
        <line id="直线_36-2" data-name="直线 36" y2="26" transform="translate(1077.5 1017.5)" fill="none" stroke="#095fe1" stroke-width="1"/>
      </g>
    </g>
    <g id="组_6483" data-name="组 6483">
      <g id="组_6480" data-name="组 6480" transform="translate(5)">
        <g id="组_803" data-name="组 803" transform="translate(-139.5 -121)">
          <rect id="矩形_311" data-name="矩形 311" width="16" height="2" rx="1" transform="translate(1416.051 1006.636) rotate(45)" fill="#fbb81d"/>
          <rect id="矩形_312" data-name="矩形 312" width="16" height="2" rx="1" transform="translate(1414.637 1027.949) rotate(-45)" fill="#fbb81d"/>
        </g>
        <g id="组_804" data-name="组 804" transform="translate(-131.5 -121)">
          <rect id="矩形_311-2" data-name="矩形 311" width="16" height="2" rx="1" transform="translate(1416.051 1006.636) rotate(45)" fill="#fbb81d"/>
          <rect id="矩形_312-2" data-name="矩形 312" width="16" height="2" rx="1" transform="translate(1414.637 1027.949) rotate(-45)" fill="#fbb81d"/>
        </g>
      </g>
      <g id="组_6481" data-name="组 6481" transform="translate(-2)">
        <circle id="椭圆_1624" data-name="椭圆 1624" cx="2" cy="2" r="2" transform="translate(1307.5 895)" fill="#fbb81d"/>
        <circle id="椭圆_1625" data-name="椭圆 1625" cx="2" cy="2" r="2" transform="translate(1317.5 895)" fill="#fbb81d" opacity="0.9"/>
        <circle id="椭圆_1626" data-name="椭圆 1626" cx="2" cy="2" r="2" transform="translate(1327.5 895)" fill="#fbb81d" opacity="0.8"/>
        <circle id="椭圆_1627" data-name="椭圆 1627" cx="2" cy="2" r="2" transform="translate(1337.5 895)" fill="#fbb81d" opacity="0.7"/>
        <circle id="椭圆_2925" data-name="椭圆 2925" cx="2" cy="2" r="2" transform="translate(1347.5 895)" fill="#fbb81d" opacity="0.6"/>
        <circle id="椭圆_2926" data-name="椭圆 2926" cx="2" cy="2" r="2" transform="translate(1357.5 895)" fill="#fbb81d" opacity="0.4"/>
        <circle id="椭圆_2927" data-name="椭圆 2927" cx="2" cy="2" r="2" transform="translate(1367.5 895)" fill="#fbb81d" opacity="0.3"/>
      </g>
    </g>
  </g>
</svg>
