<svg xmlns="http://www.w3.org/2000/svg" xmlns:xlink="http://www.w3.org/1999/xlink" width="189.5" height="100" viewBox="0 0 189.5 100"><defs><style>.a{fill:#92ecd7;}.b,.f{fill:#29dbb2;}.c{fill:#fff;}.d{fill:#ccc;}.e{fill:url(#a);}.f{opacity:0.2;}</style><linearGradient id="a" x1="0.13" y1="0.636" x2="1" y2="0.106" gradientUnits="objectBoundingBox"><stop offset="0" stop-color="#65dec2"/><stop offset="1" stop-color="#4de6ad"/></linearGradient></defs><g transform="translate(-608 -1386)"><g transform="translate(1)"><rect class="a" width="84" height="100" rx="2" transform="translate(641 1386)"/><path class="b" d="M2,1A1,1,0,0,0,1,2V98a1,1,0,0,0,1,1H82a1,1,0,0,0,1-1V2a1,1,0,0,0-1-1H2M2,0H82a2,2,0,0,1,2,2V98a2,2,0,0,1-2,2H2a2,2,0,0,1-2-2V2A2,2,0,0,1,2,0Z" transform="translate(641 1386)"/><rect class="c" width="72" height="90" rx="2" transform="translate(647 1391)"/><rect class="b" width="72" height="11" transform="translate(647 1391)"/><rect class="d" width="36" height="2" transform="translate(671 1413)"/><rect class="d" width="36" height="2" transform="translate(671 1432)"/><rect class="d" width="28" height="2" transform="translate(671 1442)"/><rect class="d" width="28" height="2" transform="translate(671 1462)"/><g transform="translate(0 -11)"><rect class="b" width="2" height="6" rx="1" transform="translate(655.172 1425.086) rotate(-45)"/><rect class="b" width="2" height="10" rx="1" transform="translate(659.586 1429.157) rotate(-135)"/></g><g transform="translate(0 8)"><rect class="b" width="2" height="6" rx="1" transform="translate(655.172 1425.086) rotate(-45)"/><rect class="b" width="2" height="10" rx="1" transform="translate(659.586 1429.157) rotate(-135)"/></g><g transform="translate(0 18)"><rect class="b" width="2" height="6" rx="1" transform="translate(655.172 1425.086) rotate(-45)"/><rect class="b" width="2" height="10" rx="1" transform="translate(659.586 1429.157) rotate(-135)"/></g><g transform="translate(0 37)"><rect class="b" width="2" height="6" rx="1" transform="translate(655.172 1425.086) rotate(-45)"/><rect class="b" width="2" height="10" rx="1" transform="translate(659.586 1429.157) rotate(-135)"/></g></g><rect class="e" width="64" height="44" rx="2" transform="translate(697 1442)"/><path class="c" d="M-9917,26h0l-28.8-22.5h3.248L-9917,23.462-9891.451,3.5h3.248L-9917,26Z" transform="translate(10646 1438.499)"/><circle class="c" cx="2" cy="2" r="2" transform="translate(727 1452)"/><circle class="f" cx="19.5" cy="19.5" r="19.5" transform="matrix(-0.407, 0.914, -0.914, -0.407, 797.5, 1406.117)"/><circle class="f" cx="5" cy="5" r="5" transform="matrix(-0.407, 0.914, -0.914, -0.407, 621.203, 1437.067)"/></g></svg>