<svg xmlns="http://www.w3.org/2000/svg" xmlns:xlink="http://www.w3.org/1999/xlink" width="291.946" height="172.5" viewBox="0 0 291.946 172.5">
  <defs>
    <linearGradient id="linear-gradient" x1="0.576" y1="0.451" x2="-0.057" y2="0.172" gradientUnits="objectBoundingBox">
      <stop offset="0" stop-color="#ffb70e"/>
      <stop offset="1" stop-color="#ffd35a"/>
    </linearGradient>
    <linearGradient id="linear-gradient-2" x1="0.5" y1="0" x2="0.5" y2="1" xlink:href="#linear-gradient"/>
    <linearGradient id="linear-gradient-3" x1="0.5" y1="0.5" x2="0.5" y2="1" xlink:href="#linear-gradient"/>
    <linearGradient id="linear-gradient-4" x1="0.664" y1="0.278" x2="0.104" y2="1" gradientUnits="objectBoundingBox">
      <stop offset="0" stop-color="#ffb70e"/>
      <stop offset="1" stop-color="#ffcd4a"/>
    </linearGradient>
  </defs>
  <g id="组_666" data-name="组 666" transform="translate(-443.027 -466.5)">
    <rect id="矩形_277" data-name="矩形 277" width="89.94" height="2.57" transform="translate(628.625 533.436) rotate(42)" fill="#ffc330"/>
    <rect id="矩形_276" data-name="矩形 276" width="89.94" height="2.57" transform="translate(514.122 570.412) rotate(-22)" fill="#ffc330"/>
    <path id="多边形_8" data-name="多边形 8" d="M65.373,0A18,18,0,0,1,80.992,9.053L95.95,35.166a18,18,0,0,1,0,17.894L80.992,79.173a18,18,0,0,1-15.619,9.053H35.7a18,18,0,0,1-15.619-9.053L5.125,53.06a18,18,0,0,1,0-17.894L20.083,9.053A18,18,0,0,1,35.7,0Z" transform="translate(558.399 523.02) rotate(-34)" fill="url(#linear-gradient)"/>
    <path id="多边形_11" data-name="多边形 11" d="M53.192,0a18,18,0,0,1,15.6,9.021l10.84,18.832a18,18,0,0,1,0,17.959L68.792,64.644a18,18,0,0,1-15.6,9.021H31.608a18,18,0,0,1-15.6-9.021L5.168,45.812a18,18,0,0,1,0-17.959L16.008,9.021A18,18,0,0,1,31.608,0Z" transform="matrix(-0.259, 0.966, -0.966, -0.259, 536.13, 557.089)" fill="url(#linear-gradient-2)"/>
    <circle id="椭圆_1615" data-name="椭圆 1615" cx="6" cy="6" r="6" transform="translate(514.973 565)" fill="#ffbc1b"/>
    <path id="多边形_12" data-name="多边形 12" d="M31.393,0a8,8,0,0,1,6.934,4.009l7.4,12.86a8,8,0,0,1,0,7.982l-7.4,12.86a8,8,0,0,1-6.934,4.009H16.632A8,8,0,0,1,9.7,37.71L2.3,24.85a8,8,0,0,1,0-7.982L9.7,4.009A8,8,0,0,1,16.632,0Z" transform="translate(710.96 570.392) rotate(60)" fill="url(#linear-gradient-3)"/>
    <circle id="椭圆_1618" data-name="椭圆 1618" cx="6" cy="6" r="6" transform="translate(683.463 585.164)" fill="url(#linear-gradient-4)"/>
    <circle id="椭圆_1616" data-name="椭圆 1616" cx="6" cy="6" r="6" transform="translate(651.973 554)" fill="#ffb70e"/>
    <circle id="椭圆_1617" data-name="椭圆 1617" cx="6" cy="6" r="6" transform="translate(577.973 538)" fill="#ffc93f"/>
    <g id="world" transform="translate(600.587 506.954)" opacity="0.6">
      <path id="路径_496" data-name="路径 496" d="M96.914,139.293a.952.952,0,0,0-.442,1.272,22.214,22.214,0,0,1,2.23,9.755A22.461,22.461,0,0,1,62.74,168.284a2.856,2.856,0,1,0-1.364,1.355,24.365,24.365,0,0,0,39.23-19.318,24.1,24.1,0,0,0-2.42-10.585A.952.952,0,0,0,96.914,139.293Z" transform="translate(-51.85 -125.942)" fill="#fff"/>
      <path id="路径_497" data-name="路径 497" d="M3.452,34.945a.952.952,0,0,0,.471-1.262A22.24,22.24,0,0,1,1.9,24.378,22.5,22.5,0,0,1,24.378,1.9,22.192,22.192,0,0,1,37.526,6.162a2.858,2.858,0,1,0,1.542-1.227A24.366,24.366,0,0,0,0,24.378a24.132,24.132,0,0,0,2.19,10.1A.952.952,0,0,0,3.452,34.945Z" fill="#fff"/>
      <path id="路径_498" data-name="路径 498" d="M84.093,66a18.093,18.093,0,1,0,18.093,18.093A18.069,18.069,0,0,0,84.093,66ZM79,68.727a20.115,20.115,0,0,0-3.775,8.7h-5.88A16.274,16.274,0,0,1,79,68.727ZM67.9,84.093a16.132,16.132,0,0,1,.715-4.761h6.275a35.107,35.107,0,0,0,0,9.524H68.619A16.132,16.132,0,0,1,67.9,84.093Zm1.437,6.666h5.88A20.114,20.114,0,0,0,79,99.459,16.273,16.273,0,0,1,69.341,90.759Zm13.8,9.39c-2.621-.731-4.873-4.423-5.964-9.39h5.964Zm0-11.295H76.825a32.513,32.513,0,0,1,0-9.523h6.315Zm0-11.427H77.177c1.091-4.967,3.343-8.66,5.964-9.39Zm1.9-9.39c2.621.731,4.873,4.423,5.964,9.39H85.045Zm0,11.295h6.315a32.512,32.512,0,0,1,0,9.523H85.045Zm0,20.817V90.758h5.964C89.918,95.726,87.666,99.419,85.045,100.149Zm4.145-.69a20.113,20.113,0,0,0,3.775-8.7h5.88A16.272,16.272,0,0,1,89.19,99.459Zm11.092-15.366a16.133,16.133,0,0,1-.715,4.761H93.291a35.1,35.1,0,0,0,0-9.523h6.275A16.133,16.133,0,0,1,100.281,84.093Zm-7.317-6.666a20.114,20.114,0,0,0-3.775-8.7,16.273,16.273,0,0,1,9.655,8.7Z" transform="translate(-59.715 -59.715)" fill="#fff"/>
    </g>
  </g>
</svg>
